<mxfile host="app.diagrams.net" modified="2023-06-27T14:35:26.600Z" agent="Mozilla/5.0 (Macintosh; Intel Mac OS X 10_15_7) AppleWebKit/537.36 (KHTML, like Gecko) Chrome/112.0.0.0 Safari/537.36" etag="Pu0OWtWCdghLL1-u5sxH" version="21.5.0" type="github" pages="3">
  <diagram id="-KC26STIBj3t9MYH2vu2" name="Workflow">
    <mxGraphModel dx="2120" dy="1120" grid="1" gridSize="10" guides="1" tooltips="1" connect="1" arrows="1" fold="1" page="1" pageScale="1" pageWidth="850" pageHeight="1100" math="0" shadow="0">
      <root>
        <mxCell id="0" />
        <mxCell id="1" parent="0" />
        <mxCell id="8u5Newi8nys6xHAhAptd-80" value="" style="rounded=0;whiteSpace=wrap;html=1;" parent="1" vertex="1">
          <mxGeometry x="20" y="20" width="1440" height="1480" as="geometry" />
        </mxCell>
        <mxCell id="8u5Newi8nys6xHAhAptd-28" style="edgeStyle=orthogonalEdgeStyle;rounded=0;orthogonalLoop=1;jettySize=auto;html=1;exitX=0.5;exitY=1;exitDx=0;exitDy=0;entryX=0.5;entryY=0;entryDx=0;entryDy=0;" parent="1" source="8u5Newi8nys6xHAhAptd-10" target="8u5Newi8nys6xHAhAptd-14" edge="1">
          <mxGeometry relative="1" as="geometry" />
        </mxCell>
        <mxCell id="8u5Newi8nys6xHAhAptd-10" value="" style="rounded=0;whiteSpace=wrap;html=1;" parent="1" vertex="1">
          <mxGeometry x="810" y="188" width="590" height="203" as="geometry" />
        </mxCell>
        <mxCell id="IXbX5ewmI5MATIdYdqmd-19" style="edgeStyle=orthogonalEdgeStyle;rounded=0;orthogonalLoop=1;jettySize=auto;html=1;exitX=1;exitY=0.5;exitDx=0;exitDy=0;" parent="1" source="IXbX5ewmI5MATIdYdqmd-11" target="IXbX5ewmI5MATIdYdqmd-18" edge="1">
          <mxGeometry relative="1" as="geometry" />
        </mxCell>
        <mxCell id="IXbX5ewmI5MATIdYdqmd-11" value="Obter Imagens silhueta" style="shape=process;whiteSpace=wrap;html=1;backgroundOutline=1;" parent="1" vertex="1">
          <mxGeometry x="50" y="130" width="220" height="60" as="geometry" />
        </mxCell>
        <mxCell id="IXbX5ewmI5MATIdYdqmd-12" value="&lt;h1 style=&quot;font-size: 10px;&quot;&gt;https://www.kaggle.com/datasets/deepshah16/silhouettes-of-human-posture&lt;br style=&quot;font-size: 10px;&quot;&gt;&lt;/h1&gt;&lt;div&gt;Separar as imagens nas seguintes pastas:&lt;/div&gt;&lt;div style=&quot;&quot;&gt;1)Bending&lt;/div&gt;&lt;div style=&quot;&quot;&gt;2)Lying&lt;/div&gt;&lt;div style=&quot;&quot;&gt;3)Sitting&lt;/div&gt;&lt;div style=&quot;&quot;&gt;4)Standing&lt;/div&gt;" style="text;html=1;strokeColor=none;fillColor=none;spacing=5;spacingTop=-20;whiteSpace=wrap;overflow=hidden;rounded=0;fontSize=10;" parent="1" vertex="1">
          <mxGeometry x="50" y="200" width="380" height="110" as="geometry" />
        </mxCell>
        <mxCell id="IXbX5ewmI5MATIdYdqmd-17" style="edgeStyle=orthogonalEdgeStyle;rounded=0;orthogonalLoop=1;jettySize=auto;html=1;entryX=0;entryY=0.5;entryDx=0;entryDy=0;entryPerimeter=0;" parent="1" source="IXbX5ewmI5MATIdYdqmd-13" target="IXbX5ewmI5MATIdYdqmd-5" edge="1">
          <mxGeometry relative="1" as="geometry" />
        </mxCell>
        <mxCell id="IXbX5ewmI5MATIdYdqmd-13" value="Obter Imagens de poses humanas" style="shape=process;whiteSpace=wrap;html=1;backgroundOutline=1;" parent="1" vertex="1">
          <mxGeometry x="50" y="330" width="230" height="60" as="geometry" />
        </mxCell>
        <mxCell id="IXbX5ewmI5MATIdYdqmd-14" value="&lt;h1 style=&quot;&quot;&gt;&lt;font style=&quot;font-size: 10px;&quot;&gt;http://human-pose.mpi-inf.mpg.de/#download&lt;/font&gt;&lt;/h1&gt;&lt;div style=&quot;&quot;&gt;Realizar o Download das poses juntamente com as anotações e coloca-las em um diretório local&lt;/div&gt;" style="text;html=1;strokeColor=none;fillColor=none;spacing=5;spacingTop=-20;whiteSpace=wrap;overflow=hidden;rounded=0;fontSize=10;" parent="1" vertex="1">
          <mxGeometry x="50" y="400" width="230" height="110" as="geometry" />
        </mxCell>
        <mxCell id="8u5Newi8nys6xHAhAptd-46" style="edgeStyle=orthogonalEdgeStyle;rounded=0;orthogonalLoop=1;jettySize=auto;html=1;exitX=1;exitY=0.5;exitDx=0;exitDy=0;entryX=0;entryY=0.5;entryDx=0;entryDy=0;" parent="1" source="IXbX5ewmI5MATIdYdqmd-1" target="8u5Newi8nys6xHAhAptd-43" edge="1">
          <mxGeometry relative="1" as="geometry" />
        </mxCell>
        <mxCell id="IXbX5ewmI5MATIdYdqmd-1" value="Loop de treinamento da rede Efficient_B2. Cada melhor modelo é salvo no repositório do Neptune após o treino" style="shape=process;whiteSpace=wrap;html=1;backgroundOutline=1;fontSize=7;" parent="1" vertex="1">
          <mxGeometry x="981.33" y="263" width="128.67" height="42" as="geometry" />
        </mxCell>
        <mxCell id="8u5Newi8nys6xHAhAptd-45" style="edgeStyle=orthogonalEdgeStyle;rounded=0;orthogonalLoop=1;jettySize=auto;html=1;exitX=1;exitY=0.5;exitDx=0;exitDy=0;exitPerimeter=0;entryX=0;entryY=0.5;entryDx=0;entryDy=0;" parent="1" source="IXbX5ewmI5MATIdYdqmd-3" target="IXbX5ewmI5MATIdYdqmd-1" edge="1">
          <mxGeometry relative="1" as="geometry" />
        </mxCell>
        <mxCell id="IXbX5ewmI5MATIdYdqmd-3" value="&lt;br&gt;DataSetLoader" style="shape=cylinder3;whiteSpace=wrap;html=1;boundedLbl=1;backgroundOutline=1;size=15;fontSize=7;" parent="1" vertex="1">
          <mxGeometry x="870" y="259" width="60" height="50" as="geometry" />
        </mxCell>
        <mxCell id="8u5Newi8nys6xHAhAptd-7" style="edgeStyle=orthogonalEdgeStyle;rounded=0;orthogonalLoop=1;jettySize=auto;html=1;entryX=0;entryY=0.5;entryDx=0;entryDy=0;" parent="1" source="IXbX5ewmI5MATIdYdqmd-5" target="IXbX5ewmI5MATIdYdqmd-21" edge="1">
          <mxGeometry relative="1" as="geometry">
            <Array as="points">
              <mxPoint x="434" y="360" />
              <mxPoint x="434" y="260" />
              <mxPoint x="470" y="260" />
              <mxPoint x="470" y="162" />
            </Array>
          </mxGeometry>
        </mxCell>
        <mxCell id="IXbX5ewmI5MATIdYdqmd-5" value="Base local" style="shape=cylinder3;whiteSpace=wrap;html=1;boundedLbl=1;backgroundOutline=1;size=15;fontSize=7;" parent="1" vertex="1">
          <mxGeometry x="330" y="332" width="38" height="56" as="geometry" />
        </mxCell>
        <mxCell id="8u5Newi8nys6xHAhAptd-6" style="edgeStyle=orthogonalEdgeStyle;rounded=0;orthogonalLoop=1;jettySize=auto;html=1;entryX=0;entryY=0.5;entryDx=0;entryDy=0;" parent="1" source="IXbX5ewmI5MATIdYdqmd-18" target="IXbX5ewmI5MATIdYdqmd-21" edge="1">
          <mxGeometry relative="1" as="geometry">
            <Array as="points">
              <mxPoint x="434" y="160" />
              <mxPoint x="434" y="260" />
              <mxPoint x="470" y="260" />
              <mxPoint x="470" y="162" />
            </Array>
          </mxGeometry>
        </mxCell>
        <mxCell id="IXbX5ewmI5MATIdYdqmd-18" value="Base local" style="shape=cylinder3;whiteSpace=wrap;html=1;boundedLbl=1;backgroundOutline=1;size=15;fontSize=7;" parent="1" vertex="1">
          <mxGeometry x="330" y="132" width="38" height="56" as="geometry" />
        </mxCell>
        <mxCell id="8u5Newi8nys6xHAhAptd-8" style="edgeStyle=orthogonalEdgeStyle;rounded=0;orthogonalLoop=1;jettySize=auto;html=1;exitX=1;exitY=0.5;exitDx=0;exitDy=0;entryX=0;entryY=0.5;entryDx=0;entryDy=0;" parent="1" source="IXbX5ewmI5MATIdYdqmd-21" target="IXbX5ewmI5MATIdYdqmd-24" edge="1">
          <mxGeometry relative="1" as="geometry" />
        </mxCell>
        <UserObject label="Criar estrutura de diretórios conforme orientação em um Drive Google" link="https://github.com/OctavioGuaschi/IA901-2023S1/blob/main/templates/ia901-E2-instrucoes.md" linkTarget="_blank" id="IXbX5ewmI5MATIdYdqmd-21">
          <mxCell style="shape=process;whiteSpace=wrap;html=1;backgroundOutline=1;" parent="1" vertex="1">
            <mxGeometry x="500" y="132" width="210" height="60" as="geometry" />
          </mxCell>
        </UserObject>
        <mxCell id="8u5Newi8nys6xHAhAptd-9" style="edgeStyle=orthogonalEdgeStyle;rounded=0;orthogonalLoop=1;jettySize=auto;html=1;exitX=1;exitY=0.5;exitDx=0;exitDy=0;entryX=0;entryY=0.5;entryDx=0;entryDy=0;" parent="1" source="IXbX5ewmI5MATIdYdqmd-24" target="8u5Newi8nys6xHAhAptd-4" edge="1">
          <mxGeometry relative="1" as="geometry" />
        </mxCell>
        <UserObject label="Adicionar Imagens no diretório; &quot;data/raw&quot;" link="https://github.com/OctavioGuaschi/IA901-2023S1/blob/main/templates/ia901-E2-instrucoes.md" linkTarget="_blank" id="IXbX5ewmI5MATIdYdqmd-24">
          <mxCell style="shape=process;whiteSpace=wrap;html=1;backgroundOutline=1;" parent="1" vertex="1">
            <mxGeometry x="500" y="222" width="210" height="60" as="geometry" />
          </mxCell>
        </UserObject>
        <UserObject label="&lt;h1 style=&quot;&quot;&gt;&lt;span style=&quot;font-size: 10px;&quot;&gt;&lt;u&gt;Imagens&lt;/u&gt;&lt;/span&gt;&lt;/h1&gt;" link="https://datasets.d2.mpi-inf.mpg.de/andriluka14cvpr/mpii_human_pose_v1.tar.gz" linkTarget="_blank" id="8u5Newi8nys6xHAhAptd-1">
          <mxCell style="text;html=1;strokeColor=none;fillColor=none;spacing=5;spacingTop=-20;whiteSpace=wrap;overflow=hidden;rounded=0;fontSize=10;" parent="1" vertex="1">
            <mxGeometry x="50" y="470" width="50" height="30" as="geometry" />
          </mxCell>
        </UserObject>
        <UserObject label="&lt;h1 style=&quot;&quot;&gt;&lt;span style=&quot;font-size: 10px;&quot;&gt;&lt;u&gt;Anotações&lt;/u&gt;&lt;/span&gt;&lt;/h1&gt;" link="https://datasets.d2.mpi-inf.mpg.de/andriluka14cvpr/mpii_human_pose_v1_u12_2.zip" linkTarget="_blank" id="8u5Newi8nys6xHAhAptd-2">
          <mxCell style="text;html=1;strokeColor=none;fillColor=none;spacing=5;spacingTop=-20;whiteSpace=wrap;overflow=hidden;rounded=0;fontSize=10;" parent="1" vertex="1">
            <mxGeometry x="105" y="470" width="60" height="30" as="geometry" />
          </mxCell>
        </UserObject>
        <mxCell id="8u5Newi8nys6xHAhAptd-12" style="edgeStyle=orthogonalEdgeStyle;rounded=0;orthogonalLoop=1;jettySize=auto;html=1;entryX=0;entryY=0.5;entryDx=0;entryDy=0;exitX=1;exitY=0.5;exitDx=0;exitDy=0;" parent="1" source="8u5Newi8nys6xHAhAptd-32" target="8u5Newi8nys6xHAhAptd-10" edge="1">
          <mxGeometry relative="1" as="geometry">
            <mxPoint x="880" y="270" as="targetPoint" />
          </mxGeometry>
        </mxCell>
        <mxCell id="8u5Newi8nys6xHAhAptd-33" style="edgeStyle=orthogonalEdgeStyle;rounded=0;orthogonalLoop=1;jettySize=auto;html=1;entryX=0;entryY=0.5;entryDx=0;entryDy=0;exitX=1;exitY=0.5;exitDx=0;exitDy=0;" parent="1" source="8u5Newi8nys6xHAhAptd-4" target="8u5Newi8nys6xHAhAptd-32" edge="1">
          <mxGeometry relative="1" as="geometry">
            <Array as="points">
              <mxPoint x="730" y="342" />
              <mxPoint x="730" y="382" />
              <mxPoint x="480" y="382" />
              <mxPoint x="480" y="426" />
            </Array>
          </mxGeometry>
        </mxCell>
        <UserObject label="Rodar Script &quot;Splitdataset.ipynb&quot; e &quot;Splitdataset_finetunning.ipynb&quot;" link="https://github.com/OctavioGuaschi/IA901-2023S1/blob/main/projetos/Human_physical_position_detection/notebooks/Splitdataset.ipynb" id="8u5Newi8nys6xHAhAptd-4">
          <mxCell style="shape=process;whiteSpace=wrap;html=1;backgroundOutline=1;" parent="1" vertex="1">
            <mxGeometry x="500" y="312" width="210" height="60" as="geometry" />
          </mxCell>
        </UserObject>
        <mxCell id="8u5Newi8nys6xHAhAptd-11" value="Rodar sequencialmente os paragrafos do notebook para treinar o modelo; Detecção_de_posição_física_humana_Efficient_B2.ipynb" style="text;whiteSpace=wrap;html=1;" parent="1" vertex="1">
          <mxGeometry x="830" y="198" width="420" height="40" as="geometry" />
        </mxCell>
        <mxCell id="je_BnP8xaEcZx0Ltiwll-6" style="edgeStyle=orthogonalEdgeStyle;rounded=0;orthogonalLoop=1;jettySize=auto;html=1;" edge="1" parent="1" source="8u5Newi8nys6xHAhAptd-14" target="8u5Newi8nys6xHAhAptd-19">
          <mxGeometry relative="1" as="geometry" />
        </mxCell>
        <mxCell id="8u5Newi8nys6xHAhAptd-14" value="Rodar sequencialmente o notebook &quot;data_augmentation&quot; nas Imagens de poses humanas" style="shape=process;whiteSpace=wrap;html=1;backgroundOutline=1;" parent="1" vertex="1">
          <mxGeometry x="990" y="480" width="230" height="60" as="geometry" />
        </mxCell>
        <mxCell id="8u5Newi8nys6xHAhAptd-64" style="edgeStyle=orthogonalEdgeStyle;rounded=0;orthogonalLoop=1;jettySize=auto;html=1;exitX=0.5;exitY=1;exitDx=0;exitDy=0;entryX=0.5;entryY=0;entryDx=0;entryDy=0;" parent="1" source="8u5Newi8nys6xHAhAptd-19" target="8u5Newi8nys6xHAhAptd-52" edge="1">
          <mxGeometry relative="1" as="geometry">
            <Array as="points">
              <mxPoint x="1099" y="951" />
              <mxPoint x="726" y="951" />
            </Array>
          </mxGeometry>
        </mxCell>
        <mxCell id="8u5Newi8nys6xHAhAptd-19" value="" style="rounded=0;whiteSpace=wrap;html=1;" parent="1" vertex="1">
          <mxGeometry x="812" y="650" width="588" height="203" as="geometry" />
        </mxCell>
        <mxCell id="8u5Newi8nys6xHAhAptd-38" style="edgeStyle=orthogonalEdgeStyle;rounded=0;orthogonalLoop=1;jettySize=auto;html=1;exitX=1;exitY=0.5;exitDx=0;exitDy=0;entryX=0;entryY=0.5;entryDx=0;entryDy=0;" parent="1" source="8u5Newi8nys6xHAhAptd-20" target="8u5Newi8nys6xHAhAptd-21" edge="1">
          <mxGeometry relative="1" as="geometry" />
        </mxCell>
        <mxCell id="8u5Newi8nys6xHAhAptd-20" value="Selecionar o melhor modelo no Neptune e realizar o download" style="shape=process;whiteSpace=wrap;html=1;backgroundOutline=1;fontSize=7;" parent="1" vertex="1">
          <mxGeometry x="830" y="730.5" width="151.33" height="42" as="geometry" />
        </mxCell>
        <mxCell id="8u5Newi8nys6xHAhAptd-39" style="edgeStyle=orthogonalEdgeStyle;rounded=0;orthogonalLoop=1;jettySize=auto;html=1;exitX=1;exitY=0.5;exitDx=0;exitDy=0;entryX=0;entryY=0.5;entryDx=0;entryDy=0;" parent="1" source="8u5Newi8nys6xHAhAptd-21" target="8u5Newi8nys6xHAhAptd-36" edge="1">
          <mxGeometry relative="1" as="geometry" />
        </mxCell>
        <mxCell id="8u5Newi8nys6xHAhAptd-21" value="Treinamento Fine-Tunning" style="shape=process;whiteSpace=wrap;html=1;backgroundOutline=1;fontSize=7;" parent="1" vertex="1">
          <mxGeometry x="1000" y="730.5" width="70" height="42" as="geometry" />
        </mxCell>
        <mxCell id="8u5Newi8nys6xHAhAptd-27" value="Rodar sequencialmente os paragrafos do notebook para realizar o fine-tuning do modelos;&amp;nbsp;&lt;br&gt;Detecção_de_posição_física_humana_fine_tuning.ipynb" style="text;whiteSpace=wrap;html=1;" parent="1" vertex="1">
          <mxGeometry x="823" y="666.5" width="540" height="40" as="geometry" />
        </mxCell>
        <mxCell id="8u5Newi8nys6xHAhAptd-31" value="&lt;b&gt;Treino Rede Silhuetas&lt;/b&gt;" style="text;html=1;strokeColor=none;fillColor=none;align=center;verticalAlign=middle;whiteSpace=wrap;rounded=0;" parent="1" vertex="1">
          <mxGeometry x="810" y="147" width="140" height="30" as="geometry" />
        </mxCell>
        <UserObject label="Criar uma conta no Neptune.AI e fazer as configurações de conexão como descrito no manual e no notebook" link="https://docs.neptune.ai/integrations/pytorch/" id="8u5Newi8nys6xHAhAptd-32">
          <mxCell style="shape=process;whiteSpace=wrap;html=1;backgroundOutline=1;" parent="1" vertex="1">
            <mxGeometry x="500" y="392" width="210" height="68" as="geometry" />
          </mxCell>
        </UserObject>
        <mxCell id="8u5Newi8nys6xHAhAptd-34" value="&lt;span style=&quot;background-color: rgb(255, 255, 255); color: rgb(31, 35, 40); font-family: -apple-system, &amp;quot;system-ui&amp;quot;, &amp;quot;Segoe UI&amp;quot;, &amp;quot;Noto Sans&amp;quot;, Helvetica, Arial, sans-serif, &amp;quot;Apple Color Emoji&amp;quot;, &amp;quot;Segoe UI Emoji&amp;quot;; font-weight: var(--base-text-weight-semibold, 600);&quot;&gt;Fine-Tuning&amp;nbsp;&lt;/span&gt;" style="text;html=1;strokeColor=none;fillColor=none;align=left;verticalAlign=middle;whiteSpace=wrap;rounded=0;" parent="1" vertex="1">
          <mxGeometry x="810" y="620" width="90" height="30" as="geometry" />
        </mxCell>
        <mxCell id="8u5Newi8nys6xHAhAptd-40" style="edgeStyle=orthogonalEdgeStyle;rounded=0;orthogonalLoop=1;jettySize=auto;html=1;exitX=1;exitY=0.5;exitDx=0;exitDy=0;entryX=0;entryY=0.5;entryDx=0;entryDy=0;" parent="1" source="8u5Newi8nys6xHAhAptd-36" target="8u5Newi8nys6xHAhAptd-37" edge="1">
          <mxGeometry relative="1" as="geometry" />
        </mxCell>
        <mxCell id="8u5Newi8nys6xHAhAptd-36" value="Utilizar Neptune para comparativo entre os treinamentos" style="shape=process;whiteSpace=wrap;html=1;backgroundOutline=1;fontSize=7;" parent="1" vertex="1">
          <mxGeometry x="1084" y="730.5" width="100" height="42" as="geometry" />
        </mxCell>
        <mxCell id="8u5Newi8nys6xHAhAptd-50" style="edgeStyle=orthogonalEdgeStyle;rounded=0;orthogonalLoop=1;jettySize=auto;html=1;exitX=1;exitY=0.5;exitDx=0;exitDy=0;entryX=0;entryY=0;entryDx=0;entryDy=30;entryPerimeter=0;" parent="1" source="8u5Newi8nys6xHAhAptd-37" target="8u5Newi8nys6xHAhAptd-49" edge="1">
          <mxGeometry relative="1" as="geometry" />
        </mxCell>
        <mxCell id="8u5Newi8nys6xHAhAptd-37" value="Validação" style="shape=process;whiteSpace=wrap;html=1;backgroundOutline=1;fontSize=7;" parent="1" vertex="1">
          <mxGeometry x="1200" y="730.5" width="100" height="42" as="geometry" />
        </mxCell>
        <mxCell id="8u5Newi8nys6xHAhAptd-47" style="edgeStyle=orthogonalEdgeStyle;rounded=0;orthogonalLoop=1;jettySize=auto;html=1;exitX=1;exitY=0.5;exitDx=0;exitDy=0;" parent="1" source="8u5Newi8nys6xHAhAptd-43" edge="1">
          <mxGeometry relative="1" as="geometry">
            <mxPoint x="1249.9999999999998" y="283" as="targetPoint" />
          </mxGeometry>
        </mxCell>
        <mxCell id="8u5Newi8nys6xHAhAptd-43" value="Loop de Validação das redes treinadas" style="shape=process;whiteSpace=wrap;html=1;backgroundOutline=1;fontSize=7;" parent="1" vertex="1">
          <mxGeometry x="1129.9966666666664" y="263" width="69.66666666666666" height="42" as="geometry" />
        </mxCell>
        <mxCell id="8u5Newi8nys6xHAhAptd-48" value="&lt;br&gt;Modelos Treinados" style="shape=cylinder3;whiteSpace=wrap;html=1;boundedLbl=1;backgroundOutline=1;size=15;fontSize=7;" parent="1" vertex="1">
          <mxGeometry x="1250" y="255" width="60" height="50" as="geometry" />
        </mxCell>
        <mxCell id="8u5Newi8nys6xHAhAptd-49" value="Modelo Treinado" style="shape=cylinder3;whiteSpace=wrap;html=1;boundedLbl=1;backgroundOutline=1;size=15;fontSize=7;" parent="1" vertex="1">
          <mxGeometry x="1330" y="722.5" width="60" height="50" as="geometry" />
        </mxCell>
        <mxCell id="8u5Newi8nys6xHAhAptd-82" style="edgeStyle=orthogonalEdgeStyle;rounded=0;orthogonalLoop=1;jettySize=auto;html=1;exitX=0.5;exitY=1;exitDx=0;exitDy=0;entryX=0.5;entryY=0;entryDx=0;entryDy=0;" parent="1" source="8u5Newi8nys6xHAhAptd-52" target="8u5Newi8nys6xHAhAptd-81" edge="1">
          <mxGeometry relative="1" as="geometry" />
        </mxCell>
        <mxCell id="8u5Newi8nys6xHAhAptd-52" value="&lt;meta charset=&quot;utf-8&quot;&gt;&lt;span style=&quot;color: rgb(0, 0, 0); font-family: Helvetica; font-size: 7px; font-style: normal; font-variant-ligatures: normal; font-variant-caps: normal; font-weight: 400; letter-spacing: normal; orphans: 2; text-align: center; text-indent: 0px; text-transform: none; widows: 2; word-spacing: 0px; -webkit-text-stroke-width: 0px; background-color: rgb(251, 251, 251); text-decoration-thickness: initial; text-decoration-style: initial; text-decoration-color: initial; float: none; display: inline !important;&quot;&gt;COCO&lt;/span&gt;" style="rounded=0;whiteSpace=wrap;html=1;" parent="1" vertex="1">
          <mxGeometry x="402" y="1050" width="648" height="203" as="geometry" />
        </mxCell>
        <mxCell id="8u5Newi8nys6xHAhAptd-54" value="Teste do modelo treinado com os diferentes datasets de entrada" style="shape=process;whiteSpace=wrap;html=1;backgroundOutline=1;fontSize=7;" parent="1" vertex="1">
          <mxGeometry x="677" y="1134.5" width="151.33" height="42" as="geometry" />
        </mxCell>
        <mxCell id="8u5Newi8nys6xHAhAptd-57" value="Rodar sequencialmente os paragrafos do notebook para realizar o tuning do modelos;&amp;nbsp;&lt;br&gt;Teste_de_Redes.ipynb" style="text;whiteSpace=wrap;html=1;" parent="1" vertex="1">
          <mxGeometry x="413" y="1066.5" width="540" height="40" as="geometry" />
        </mxCell>
        <mxCell id="8u5Newi8nys6xHAhAptd-58" value="&lt;font face=&quot;-apple-system, system-ui, Segoe UI, Noto Sans, Helvetica, Arial, sans-serif, Apple Color Emoji, Segoe UI Emoji&quot; color=&quot;#1f2328&quot;&gt;&lt;span style=&quot;background-color: rgb(255, 255, 255);&quot;&gt;&lt;b&gt;Fluxo Testes&lt;/b&gt;&lt;/span&gt;&lt;/font&gt;" style="text;html=1;strokeColor=none;fillColor=none;align=left;verticalAlign=middle;whiteSpace=wrap;rounded=0;" parent="1" vertex="1">
          <mxGeometry x="400" y="1020" width="160" height="30" as="geometry" />
        </mxCell>
        <mxCell id="8u5Newi8nys6xHAhAptd-60" value="Teste do modelo com fine-tuning com o dataset MPII" style="shape=process;whiteSpace=wrap;html=1;backgroundOutline=1;fontSize=7;" parent="1" vertex="1">
          <mxGeometry x="710" y="1194" width="100" height="42" as="geometry" />
        </mxCell>
        <mxCell id="8u5Newi8nys6xHAhAptd-79" style="edgeStyle=orthogonalEdgeStyle;rounded=0;orthogonalLoop=1;jettySize=auto;html=1;exitX=0.5;exitY=1;exitDx=0;exitDy=0;" parent="1" source="8u5Newi8nys6xHAhAptd-67" target="8u5Newi8nys6xHAhAptd-52" edge="1">
          <mxGeometry relative="1" as="geometry">
            <Array as="points">
              <mxPoint x="376" y="950" />
              <mxPoint x="726" y="950" />
            </Array>
          </mxGeometry>
        </mxCell>
        <mxCell id="8u5Newi8nys6xHAhAptd-67" value="" style="rounded=0;whiteSpace=wrap;html=1;" parent="1" vertex="1">
          <mxGeometry x="82" y="661" width="588" height="203" as="geometry" />
        </mxCell>
        <mxCell id="8u5Newi8nys6xHAhAptd-73" value="&lt;span style=&quot;background-color: rgb(255, 255, 255); color: rgb(31, 35, 40); font-family: -apple-system, &amp;quot;system-ui&amp;quot;, &amp;quot;Segoe UI&amp;quot;, &amp;quot;Noto Sans&amp;quot;, Helvetica, Arial, sans-serif, &amp;quot;Apple Color Emoji&amp;quot;, &amp;quot;Segoe UI Emoji&amp;quot;; font-weight: var(--base-text-weight-semibold, 600);&quot;&gt;Segunda Abordagem&lt;/span&gt;" style="text;html=1;strokeColor=none;fillColor=none;align=left;verticalAlign=middle;whiteSpace=wrap;rounded=0;" parent="1" vertex="1">
          <mxGeometry x="80" y="631" width="145" height="30" as="geometry" />
        </mxCell>
        <mxCell id="8u5Newi8nys6xHAhAptd-81" value="" style="ellipse;whiteSpace=wrap;html=1;aspect=fixed;" parent="1" vertex="1">
          <mxGeometry x="712" y="1400" width="30" height="30" as="geometry" />
        </mxCell>
        <mxCell id="je_BnP8xaEcZx0Ltiwll-3" style="edgeStyle=orthogonalEdgeStyle;rounded=0;orthogonalLoop=1;jettySize=auto;html=1;exitX=0;exitY=0.5;exitDx=0;exitDy=0;entryX=0.5;entryY=0;entryDx=0;entryDy=0;" edge="1" parent="1" source="8u5Newi8nys6xHAhAptd-14" target="8u5Newi8nys6xHAhAptd-67">
          <mxGeometry relative="1" as="geometry">
            <mxPoint x="370" y="570" as="sourcePoint" />
          </mxGeometry>
        </mxCell>
        <mxCell id="je_BnP8xaEcZx0Ltiwll-4" value="Rodar sequencialmente os paragrafos do notebook para treinar o modelo;&amp;nbsp;&lt;br&gt;Segmenta_dataset_coco.ipynb" style="text;whiteSpace=wrap;html=1;" vertex="1" parent="1">
          <mxGeometry x="140" y="740" width="490" height="40" as="geometry" />
        </mxCell>
        <mxCell id="je_BnP8xaEcZx0Ltiwll-5" value="Apenas dados de teste" style="text;html=1;strokeColor=none;fillColor=none;align=center;verticalAlign=middle;whiteSpace=wrap;rounded=0;" vertex="1" parent="1">
          <mxGeometry x="815.6700000000001" y="510" width="180" height="30" as="geometry" />
        </mxCell>
        <mxCell id="je_BnP8xaEcZx0Ltiwll-12" style="edgeStyle=orthogonalEdgeStyle;rounded=0;orthogonalLoop=1;jettySize=auto;html=1;entryX=0;entryY=0.5;entryDx=0;entryDy=0;" edge="1" parent="1" source="je_BnP8xaEcZx0Ltiwll-7" target="8u5Newi8nys6xHAhAptd-54">
          <mxGeometry relative="1" as="geometry" />
        </mxCell>
        <mxCell id="je_BnP8xaEcZx0Ltiwll-7" value="DataSets" style="shape=cylinder3;whiteSpace=wrap;html=1;boundedLbl=1;backgroundOutline=1;size=15;fontSize=7;" vertex="1" parent="1">
          <mxGeometry x="575" y="1130" width="60" height="50" as="geometry" />
        </mxCell>
        <mxCell id="je_BnP8xaEcZx0Ltiwll-10" value="&lt;span style=&quot;color: rgb(0, 0, 0); font-family: Helvetica; font-size: 7px; font-style: normal; font-variant-ligatures: normal; font-variant-caps: normal; font-weight: 400; letter-spacing: normal; orphans: 2; text-indent: 0px; text-transform: none; widows: 2; word-spacing: 0px; -webkit-text-stroke-width: 0px; background-color: rgb(251, 251, 251); text-decoration-thickness: initial; text-decoration-style: initial; text-decoration-color: initial; float: none; display: inline !important;&quot;&gt;COCO&lt;br&gt;MPII&lt;br&gt;Human Silhouettes&lt;br&gt;&lt;/span&gt;" style="text;html=1;strokeColor=none;fillColor=none;align=right;verticalAlign=middle;whiteSpace=wrap;rounded=0;" vertex="1" parent="1">
          <mxGeometry x="480" y="1133.75" width="90" height="43.5" as="geometry" />
        </mxCell>
        <mxCell id="je_BnP8xaEcZx0Ltiwll-21" style="edgeStyle=orthogonalEdgeStyle;rounded=0;orthogonalLoop=1;jettySize=auto;html=1;entryX=0;entryY=0.5;entryDx=0;entryDy=0;exitX=1;exitY=0.5;exitDx=0;exitDy=0;exitPerimeter=0;" edge="1" parent="1" source="je_BnP8xaEcZx0Ltiwll-20" target="8u5Newi8nys6xHAhAptd-60">
          <mxGeometry relative="1" as="geometry" />
        </mxCell>
        <mxCell id="je_BnP8xaEcZx0Ltiwll-20" value="DataSets" style="shape=cylinder3;whiteSpace=wrap;html=1;boundedLbl=1;backgroundOutline=1;size=15;fontSize=7;" vertex="1" parent="1">
          <mxGeometry x="575" y="1190" width="60" height="50" as="geometry" />
        </mxCell>
        <mxCell id="je_BnP8xaEcZx0Ltiwll-22" value="&lt;span style=&quot;color: rgb(0, 0, 0); font-family: Helvetica; font-size: 7px; font-style: normal; font-variant-ligatures: normal; font-variant-caps: normal; font-weight: 400; letter-spacing: normal; orphans: 2; text-indent: 0px; text-transform: none; widows: 2; word-spacing: 0px; -webkit-text-stroke-width: 0px; background-color: rgb(251, 251, 251); text-decoration-thickness: initial; text-decoration-style: initial; text-decoration-color: initial; float: none; display: inline !important;&quot;&gt;MPII&lt;br&gt;&lt;/span&gt;" style="text;html=1;strokeColor=none;fillColor=none;align=left;verticalAlign=middle;whiteSpace=wrap;rounded=0;" vertex="1" parent="1">
          <mxGeometry x="550" y="1204" width="20" height="22" as="geometry" />
        </mxCell>
      </root>
    </mxGraphModel>
  </diagram>
  <diagram name="Page-1" id="c7558073-3199-34d8-9f00-42111426c3f3">
    <mxGraphModel dx="1194" dy="561" grid="1" gridSize="10" guides="1" tooltips="1" connect="1" arrows="1" fold="1" page="1" pageScale="1" pageWidth="826" pageHeight="1169" background="none" math="0" shadow="0">
      <root>
        <mxCell id="0" />
        <mxCell id="1" parent="0" />
        <mxCell id="2" value="&lt;p style=&quot;margin: 0px; margin-top: 4px; text-align: center; text-decoration: underline;&quot;&gt;&lt;strong&gt;Process 1&lt;br /&gt;&lt;/strong&gt;&lt;/p&gt;&lt;hr /&gt;&lt;p style=&quot;margin: 0px; margin-left: 8px;&quot;&gt;System Study&lt;/p&gt;&lt;p style=&quot;margin: 0px; margin-left: 8px;&quot;&gt;Preparation&lt;/p&gt;" style="verticalAlign=middle;align=center;overflow=fill;fontSize=12;fontFamily=Helvetica;html=1;rounded=1;fontStyle=1;strokeWidth=3;fillColor=#E6FFCC" parent="1" vertex="1">
          <mxGeometry x="236" y="236" width="110" height="90" as="geometry" />
        </mxCell>
        <mxCell id="3" value="Engineering" style="whiteSpace=wrap;align=center;verticalAlign=middle;fontStyle=1;strokeWidth=3;fillColor=#FFFFCC" parent="1" vertex="1">
          <mxGeometry x="246" y="126" width="90" height="60" as="geometry" />
        </mxCell>
        <mxCell id="4" value="Investors" style="whiteSpace=wrap;align=center;verticalAlign=middle;fontStyle=1;strokeWidth=3;fillColor=#FFFFCC" parent="1" vertex="1">
          <mxGeometry x="40" y="251" width="90" height="60" as="geometry" />
        </mxCell>
        <mxCell id="5" value="ON-DEMAND SYSTEM DEVELOPMENT" style="shape=process;whiteSpace=wrap;align=center;verticalAlign=middle;size=0.0475;fontStyle=1;strokeWidth=3;fillColor=#FFCCCC" parent="1" vertex="1">
          <mxGeometry x="200.99999999999991" y="391" width="400" height="50" as="geometry" />
        </mxCell>
        <mxCell id="6" value="&lt;p style=&quot;margin: 0px; margin-top: 4px; text-align: center; text-decoration: underline;&quot;&gt;&lt;strong&gt;Process 2&lt;br /&gt;&lt;/strong&gt;&lt;/p&gt;&lt;hr /&gt;&lt;p style=&quot;margin: 0px; margin-left: 8px;&quot;&gt;System Analysis&lt;/p&gt;" style="verticalAlign=middle;align=center;overflow=fill;fontSize=12;fontFamily=Helvetica;html=1;rounded=1;fontStyle=1;strokeWidth=3;fillColor=#E6FFCC" parent="1" vertex="1">
          <mxGeometry x="390" y="146" width="110" height="90" as="geometry" />
        </mxCell>
        <mxCell id="7" value="&lt;p style=&quot;margin: 0px; margin-top: 4px; text-align: center; text-decoration: underline;&quot;&gt;&lt;strong&gt;&lt;strong&gt;Process&lt;/strong&gt; 3&lt;br /&gt;&lt;/strong&gt;&lt;/p&gt;&lt;hr /&gt;&lt;p style=&quot;margin: 0px; margin-left: 8px;&quot;&gt;List Possible&lt;/p&gt;&lt;p style=&quot;margin: 0px; margin-left: 8px;&quot;&gt;System Solutions&lt;/p&gt;" style="verticalAlign=middle;align=center;overflow=fill;fontSize=12;fontFamily=Helvetica;html=1;rounded=1;fontStyle=1;strokeWidth=3;fillColor=#E6FFCC" parent="1" vertex="1">
          <mxGeometry x="681" y="371" width="110" height="90" as="geometry" />
        </mxCell>
        <mxCell id="8" value="&lt;p style=&quot;margin: 0px; margin-top: 4px; text-align: center; text-decoration: underline;&quot;&gt;&lt;strong&gt;&lt;strong&gt;Process&lt;/strong&gt; 4&lt;br /&gt;&lt;/strong&gt;&lt;/p&gt;&lt;hr /&gt;&lt;p style=&quot;margin: 0px; margin-left: 8px;&quot;&gt;Detail Chosen&lt;/p&gt;&lt;p style=&quot;margin: 0px; margin-left: 8px;&quot;&gt;Solution&lt;/p&gt;" style="verticalAlign=middle;align=center;overflow=fill;fontSize=12;fontFamily=Helvetica;html=1;rounded=1;fontStyle=1;strokeWidth=3;fillColor=#E6FFCC" parent="1" vertex="1">
          <mxGeometry x="560" y="241" width="110" height="90" as="geometry" />
        </mxCell>
        <mxCell id="9" value="&lt;p style=&quot;margin: 0px; margin-top: 4px; text-align: center; text-decoration: underline;&quot;&gt;&lt;strong&gt;&lt;strong&gt;Process&lt;/strong&gt; 5&lt;br /&gt;&lt;/strong&gt;&lt;/p&gt;&lt;hr /&gt;&lt;p style=&quot;margin: 0px; margin-left: 8px;&quot;&gt;New System&lt;/p&gt;&lt;p style=&quot;margin: 0px; margin-left: 8px;&quot;&gt;Design&lt;/p&gt;" style="verticalAlign=middle;align=center;overflow=fill;fontSize=12;fontFamily=Helvetica;html=1;rounded=1;fontStyle=1;strokeWidth=3;fillColor=#E6FFCC" parent="1" vertex="1">
          <mxGeometry x="540" y="510" width="110" height="90" as="geometry" />
        </mxCell>
        <mxCell id="10" value="&lt;p style=&quot;margin: 0px; margin-top: 4px; text-align: center; text-decoration: underline;&quot;&gt;&lt;strong&gt;&lt;strong&gt;Process&lt;/strong&gt; 6&lt;br /&gt;&lt;/strong&gt;&lt;/p&gt;&lt;hr /&gt;&lt;p style=&quot;margin: 0px; margin-left: 8px;&quot;&gt;New&lt;/p&gt;&lt;p style=&quot;margin: 0px; margin-left: 8px;&quot;&gt;System&lt;/p&gt;&lt;p style=&quot;margin: 0px; margin-left: 8px;&quot;&gt;Construction&lt;/p&gt;" style="verticalAlign=middle;align=center;overflow=fill;fontSize=12;fontFamily=Helvetica;html=1;rounded=1;fontStyle=1;strokeWidth=3;fillColor=#E6FFCC" parent="1" vertex="1">
          <mxGeometry x="188.49999999999991" y="510" width="110" height="90" as="geometry" />
        </mxCell>
        <mxCell id="12" value="Management" style="whiteSpace=wrap;align=center;verticalAlign=middle;fontStyle=1;strokeWidth=3;fillColor=#FFFFCC" parent="1" vertex="1">
          <mxGeometry x="691" y="60.00000000000002" width="90" height="60" as="geometry" />
        </mxCell>
        <mxCell id="13" value="Management" style="whiteSpace=wrap;align=center;verticalAlign=middle;fontStyle=1;strokeWidth=3;fillColor=#FFFFCC" parent="1" vertex="1">
          <mxGeometry x="353.50000000000006" y="650" width="90" height="60" as="geometry" />
        </mxCell>
        <mxCell id="14" value="Engineering" style="whiteSpace=wrap;align=center;verticalAlign=middle;fontStyle=1;strokeWidth=3;fillColor=#FFFFCC" parent="1" vertex="1">
          <mxGeometry x="34.99999999999997" y="524.9999999999999" width="90" height="60" as="geometry" />
        </mxCell>
        <mxCell id="15" value="Vendors" style="whiteSpace=wrap;align=center;verticalAlign=middle;fontStyle=1;strokeWidth=3;fillColor=#FFFFCC" parent="1" vertex="1">
          <mxGeometry x="549.9999999999999" y="650" width="90" height="60" as="geometry" />
        </mxCell>
        <mxCell id="36" value="" style="edgeStyle=none;noEdgeStyle=1;strokeColor=#990000;strokeWidth=2" parent="1" source="3" target="2" edge="1">
          <mxGeometry width="100" height="100" relative="1" as="geometry">
            <mxPoint x="20" y="250" as="sourcePoint" />
            <mxPoint x="120" y="150" as="targetPoint" />
          </mxGeometry>
        </mxCell>
        <mxCell id="37" value="" style="edgeStyle=none;noEdgeStyle=1;strokeColor=#990000;strokeWidth=2" parent="1" source="4" target="2" edge="1">
          <mxGeometry width="100" height="100" relative="1" as="geometry">
            <mxPoint x="280" y="190" as="sourcePoint" />
            <mxPoint x="380" y="90" as="targetPoint" />
          </mxGeometry>
        </mxCell>
        <mxCell id="11" value="&lt;p style=&quot;margin: 0px; margin-top: 4px; text-align: center; text-decoration: underline;&quot;&gt;&lt;strong&gt;&lt;strong&gt;Process&lt;/strong&gt; 7&lt;br /&gt;&lt;/strong&gt;&lt;/p&gt;&lt;hr /&gt;&lt;p style=&quot;margin: 0px; margin-left: 8px;&quot;&gt;New System&lt;/p&gt;&lt;p style=&quot;margin: 0px; margin-left: 8px;&quot;&gt;Startup and&lt;/p&gt;&lt;p style=&quot;margin: 0px; margin-left: 8px;&quot;&gt;Testing&lt;/p&gt;" style="verticalAlign=middle;align=center;overflow=fill;fontSize=12;fontFamily=Helvetica;html=1;rounded=1;fontStyle=1;strokeWidth=3;fillColor=#E6FFCC" parent="1" vertex="1">
          <mxGeometry x="343.49999999999994" y="510" width="110" height="90" as="geometry" />
        </mxCell>
        <mxCell id="51" value="" style="endArrow=none;noEdgeStyle=1;strokeColor=#990000;strokeWidth=2" parent="1" source="9" target="11" edge="1">
          <mxGeometry relative="1" as="geometry">
            <mxPoint x="205.00819672131135" y="481" as="sourcePoint" />
            <mxPoint x="400.32786885245895" y="650" as="targetPoint" />
          </mxGeometry>
        </mxCell>
        <mxCell id="52" value="Desired &#xa;functionality" style="text;spacingTop=-5;align=center" parent="1" vertex="1">
          <mxGeometry x="165" y="251" width="30" height="20" as="geometry" />
        </mxCell>
        <mxCell id="53" value="Desired &#xa;functionality" style="text;spacingTop=-5;align=center" parent="1" vertex="1">
          <mxGeometry x="241" y="196" width="30" height="20" as="geometry" />
        </mxCell>
        <mxCell id="54" value="Documentation&#xa;from similar projects" style="text;spacingTop=-5;align=center" parent="1" vertex="1">
          <mxGeometry x="186" y="341" width="30" height="20" as="geometry" />
        </mxCell>
        <mxCell id="55" value="" style="edgeStyle=elbowEdgeStyle;elbow=horizontal;strokeColor=#990000;strokeWidth=2" parent="1" source="5" target="2" edge="1">
          <mxGeometry width="100" height="100" relative="1" as="geometry">
            <mxPoint x="50" y="530" as="sourcePoint" />
            <mxPoint x="150" y="430" as="targetPoint" />
            <Array as="points">
              <mxPoint x="260" y="370" />
            </Array>
          </mxGeometry>
        </mxCell>
        <mxCell id="56" value="" style="edgeStyle=elbowEdgeStyle;elbow=horizontal;strokeColor=#990000;strokeWidth=2" parent="1" source="2" target="5" edge="1">
          <mxGeometry width="100" height="100" relative="1" as="geometry">
            <mxPoint x="50" y="500" as="sourcePoint" />
            <mxPoint x="150" y="400" as="targetPoint" />
            <Array as="points">
              <mxPoint x="280" y="360" />
            </Array>
          </mxGeometry>
        </mxCell>
        <mxCell id="57" value="Elaborate&#xa;cost/benefit&#xa;ratio" style="text;spacingTop=-5;align=center" parent="1" vertex="1">
          <mxGeometry x="306" y="341" width="30" height="20" as="geometry" />
        </mxCell>
        <mxCell id="58" value="" style="edgeStyle=elbowEdgeStyle;elbow=horizontal;strokeColor=#990000;strokeWidth=2" parent="1" source="5" target="6" edge="1">
          <mxGeometry width="100" height="100" relative="1" as="geometry">
            <mxPoint x="380" y="370" as="sourcePoint" />
            <mxPoint x="480" y="270" as="targetPoint" />
            <Array as="points">
              <mxPoint x="440" y="310" />
            </Array>
          </mxGeometry>
        </mxCell>
        <mxCell id="59" value="" style="edgeStyle=elbowEdgeStyle;elbow=horizontal;strokeColor=#990000;strokeWidth=2" parent="1" source="6" target="5" edge="1">
          <mxGeometry width="100" height="100" relative="1" as="geometry">
            <mxPoint x="350" y="370" as="sourcePoint" />
            <mxPoint x="450" y="270" as="targetPoint" />
            <Array as="points">
              <mxPoint x="460" y="320" />
            </Array>
          </mxGeometry>
        </mxCell>
        <mxCell id="60" value="Existing&#xa;documentation" style="text;spacingTop=-5;align=center" parent="1" vertex="1">
          <mxGeometry x="380.0000000000001" y="280.99999999999983" width="30" height="20" as="geometry" />
        </mxCell>
        <mxCell id="61" value="Necessary&#xa;resources" style="text;spacingTop=-5;align=center" parent="1" vertex="1">
          <mxGeometry x="481.0000000000002" y="251.00000000000006" width="30" height="20" as="geometry" />
        </mxCell>
        <mxCell id="62" value="Progress&#xa;reports" style="text;spacingTop=-5;align=center" parent="1" vertex="1">
          <mxGeometry x="545.0000000000001" y="100.00000000000003" width="30" height="20" as="geometry" />
        </mxCell>
        <mxCell id="63" value="Progress&#xa;reports" style="text;spacingTop=-5;align=center" parent="1" vertex="1">
          <mxGeometry x="640" y="146.0000000000001" width="30" height="20" as="geometry" />
        </mxCell>
        <mxCell id="64" value="Progress&#xa;reports" style="text;spacingTop=-5;align=center" parent="1" vertex="1">
          <mxGeometry x="751.0000000000001" y="261.0000000000001" width="30" height="20" as="geometry" />
        </mxCell>
        <mxCell id="65" value="" style="edgeStyle=elbowEdgeStyle;elbow=horizontal;strokeColor=#990000;strokeWidth=2" parent="1" source="6" target="12" edge="1">
          <mxGeometry width="100" height="100" relative="1" as="geometry">
            <mxPoint x="260" y="180.0000000000001" as="sourcePoint" />
            <mxPoint x="360" y="80.00000000000011" as="targetPoint" />
            <Array as="points">
              <mxPoint x="445" y="140" />
            </Array>
          </mxGeometry>
        </mxCell>
        <mxCell id="66" value="" style="edgeStyle=elbowEdgeStyle;elbow=vertical;entryX=0.25;entryY=1;strokeColor=#990000;strokeWidth=2" parent="1" source="8" target="12" edge="1">
          <mxGeometry width="100" height="100" relative="1" as="geometry">
            <mxPoint x="530" y="250" as="sourcePoint" />
            <mxPoint x="630" y="150" as="targetPoint" />
          </mxGeometry>
        </mxCell>
        <mxCell id="67" value="" style="edgeStyle=elbowEdgeStyle;elbow=horizontal;strokeColor=#990000;strokeWidth=2" parent="1" source="7" target="12" edge="1">
          <mxGeometry width="100" height="100" relative="1" as="geometry">
            <mxPoint x="660.0000000000002" y="360" as="sourcePoint" />
            <mxPoint x="760.0000000000002" y="260" as="targetPoint" />
          </mxGeometry>
        </mxCell>
        <mxCell id="68" value="" style="edgeStyle=elbowEdgeStyle;elbow=horizontal;strokeColor=#990000;strokeWidth=2" parent="1" source="8" target="5" edge="1">
          <mxGeometry width="100" height="100" relative="1" as="geometry">
            <mxPoint x="570" y="380" as="sourcePoint" />
            <mxPoint x="510" y="250" as="targetPoint" />
            <Array as="points">
              <mxPoint x="570" y="360" />
            </Array>
          </mxGeometry>
        </mxCell>
        <mxCell id="69" value="" style="edgeStyle=segmentEdgeStyle;strokeColor=#990000;strokeWidth=2" parent="1" source="5" target="8" edge="1">
          <mxGeometry width="100" height="100" relative="1" as="geometry">
            <mxPoint x="340" y="360" as="sourcePoint" />
            <mxPoint x="440" y="260" as="targetPoint" />
            <Array as="points">
              <mxPoint x="520" y="286" />
            </Array>
          </mxGeometry>
        </mxCell>
        <mxCell id="70" value="Existing&#xa;Models" style="text;spacingTop=-5;align=center" parent="1" vertex="1">
          <mxGeometry x="530.0000000000002" y="340.9999999999999" width="30" height="20" as="geometry" />
        </mxCell>
        <mxCell id="71" value="Equipment&#xa;specification" style="text;spacingTop=-5;align=center" parent="1" vertex="1">
          <mxGeometry x="615" y="341" width="30" height="20" as="geometry" />
        </mxCell>
        <mxCell id="72" value="" style="edgeStyle=elbowEdgeStyle;elbow=vertical;strokeColor=#990000;strokeWidth=2" parent="1" source="5" target="7" edge="1">
          <mxGeometry width="100" height="100" relative="1" as="geometry">
            <mxPoint x="500" y="500" as="sourcePoint" />
            <mxPoint x="600" y="400" as="targetPoint" />
            <Array as="points">
              <mxPoint x="650" y="410" />
            </Array>
          </mxGeometry>
        </mxCell>
        <mxCell id="73" value="" style="edgeStyle=elbowEdgeStyle;elbow=vertical;strokeColor=#990000;strokeWidth=2" parent="1" source="7" target="5" edge="1">
          <mxGeometry width="100" height="100" relative="1" as="geometry">
            <mxPoint x="460" y="500" as="sourcePoint" />
            <mxPoint x="560" y="400" as="targetPoint" />
            <Array as="points">
              <mxPoint x="650" y="430" />
            </Array>
          </mxGeometry>
        </mxCell>
        <mxCell id="74" value="Resources" style="text;spacingTop=-5;align=center" parent="1" vertex="1">
          <mxGeometry x="621" y="390.99999999999994" width="30" height="20" as="geometry" />
        </mxCell>
        <mxCell id="75" value="System &#xa;Advantages &#xa;and Limitations" style="text;spacingTop=-5;align=center" parent="1" vertex="1">
          <mxGeometry x="630" y="431.0000000000001" width="30" height="20" as="geometry" />
        </mxCell>
        <mxCell id="76" value="" style="edgeStyle=elbowEdgeStyle;elbow=horizontal;strokeColor=#990000;strokeWidth=2" parent="1" source="9" target="5" edge="1">
          <mxGeometry width="100" height="100" relative="1" as="geometry">
            <mxPoint x="420" y="580" as="sourcePoint" />
            <mxPoint x="520" y="480" as="targetPoint" />
            <Array as="points">
              <mxPoint x="570" y="470" />
            </Array>
          </mxGeometry>
        </mxCell>
        <mxCell id="77" value="" style="edgeStyle=elbowEdgeStyle;elbow=horizontal;strokeColor=#990000;strokeWidth=2" parent="1" source="5" target="9" edge="1">
          <mxGeometry width="100" height="100" relative="1" as="geometry">
            <mxPoint x="400" y="590" as="sourcePoint" />
            <mxPoint x="500" y="490" as="targetPoint" />
            <Array as="points">
              <mxPoint x="560" y="480" />
            </Array>
          </mxGeometry>
        </mxCell>
        <mxCell id="78" value="" style="edgeStyle=elbowEdgeStyle;elbow=horizontal;strokeColor=#990000;strokeWidth=2" parent="1" source="15" target="9" edge="1">
          <mxGeometry width="100" height="100" relative="1" as="geometry">
            <mxPoint x="430" y="700" as="sourcePoint" />
            <mxPoint x="530" y="600" as="targetPoint" />
          </mxGeometry>
        </mxCell>
        <mxCell id="79" value="Hardware and&#xa;Software specs" style="text;spacingTop=-5;align=center" parent="1" vertex="1">
          <mxGeometry x="625" y="610" width="30" height="20" as="geometry" />
        </mxCell>
        <mxCell id="81" value="" style="edgeStyle=elbowEdgeStyle;elbow=horizontal;exitX=0;exitY=0.75;strokeColor=#990000;strokeWidth=2" parent="1" source="9" target="13" edge="1">
          <mxGeometry width="100" height="100" relative="1" as="geometry">
            <mxPoint x="420" y="730" as="sourcePoint" />
            <mxPoint x="520" y="630" as="targetPoint" />
            <Array as="points">
              <mxPoint x="470" y="630" />
            </Array>
          </mxGeometry>
        </mxCell>
        <mxCell id="82" value="Progress&#xa;Reports" style="text;spacingTop=-5;align=center" parent="1" vertex="1">
          <mxGeometry x="481.0000000000004" y="610.0000000000001" width="30" height="20" as="geometry" />
        </mxCell>
        <mxCell id="83" value="" style="edgeStyle=elbowEdgeStyle;elbow=horizontal;strokeColor=#990000;strokeWidth=2" parent="1" source="11" target="13" edge="1">
          <mxGeometry width="100" height="100" relative="1" as="geometry">
            <mxPoint x="200" y="660.0000000000002" as="sourcePoint" />
            <mxPoint x="230.0000000000001" y="650" as="targetPoint" />
          </mxGeometry>
        </mxCell>
        <mxCell id="84" value="Progress&#xa;Reports" style="text;spacingTop=-5;align=center" parent="1" vertex="1">
          <mxGeometry x="410.00000000000017" y="610.0000000000002" width="30" height="20" as="geometry" />
        </mxCell>
        <mxCell id="85" value="" style="edgeStyle=elbowEdgeStyle;elbow=horizontal;strokeColor=#990000;strokeWidth=2" parent="1" source="10" target="13" edge="1">
          <mxGeometry width="100" height="100" relative="1" as="geometry">
            <mxPoint x="130.0000000000001" y="740" as="sourcePoint" />
            <mxPoint x="230.0000000000001" y="640" as="targetPoint" />
            <Array as="points">
              <mxPoint x="244" y="630" />
            </Array>
          </mxGeometry>
        </mxCell>
        <mxCell id="86" value="Progress&#xa;Reports" style="text;spacingTop=-5;align=center" parent="1" vertex="1">
          <mxGeometry x="255.99999999999994" y="650.0000000000001" width="30" height="20" as="geometry" />
        </mxCell>
        <mxCell id="87" value="" style="edgeStyle=elbowEdgeStyle;elbow=vertical;strokeColor=#990000;strokeWidth=2" parent="1" source="10" target="14" edge="1">
          <mxGeometry width="100" height="100" relative="1" as="geometry">
            <mxPoint x="70" y="740" as="sourcePoint" />
            <mxPoint x="170" y="640" as="targetPoint" />
          </mxGeometry>
        </mxCell>
        <mxCell id="88" value="" style="edgeStyle=elbowEdgeStyle;elbow=horizontal;strokeColor=#990000;strokeWidth=2" parent="1" source="5" target="11" edge="1">
          <mxGeometry width="100" height="100" relative="1" as="geometry">
            <mxPoint x="50" y="500" as="sourcePoint" />
            <mxPoint x="150" y="400" as="targetPoint" />
            <Array as="points">
              <mxPoint x="390" y="470" />
            </Array>
          </mxGeometry>
        </mxCell>
        <mxCell id="89" value="" style="edgeStyle=elbowEdgeStyle;elbow=horizontal;strokeColor=#990000;strokeWidth=2" parent="1" source="11" target="5" edge="1">
          <mxGeometry width="100" height="100" relative="1" as="geometry">
            <mxPoint x="59.999999999999886" y="510" as="sourcePoint" />
            <mxPoint x="159.9999999999999" y="410" as="targetPoint" />
            <Array as="points">
              <mxPoint x="410" y="470" />
            </Array>
          </mxGeometry>
        </mxCell>
        <mxCell id="90" value="Version&#xa;specs" style="text;spacingTop=-5;align=center" parent="1" vertex="1">
          <mxGeometry x="261" y="461" width="30" height="20" as="geometry" />
        </mxCell>
        <mxCell id="91" value="Certificates,&#xa;system&#xa;libraries" style="text;spacingTop=-5;align=center" parent="1" vertex="1">
          <mxGeometry x="180" y="461.0000000000002" width="30" height="20" as="geometry" />
        </mxCell>
        <mxCell id="92" value="" style="edgeStyle=elbowEdgeStyle;elbow=horizontal;strokeColor=#990000;strokeWidth=2" parent="1" source="5" target="10" edge="1">
          <mxGeometry width="100" height="100" relative="1" as="geometry">
            <mxPoint x="30.000000000000114" y="500" as="sourcePoint" />
            <mxPoint x="130.0000000000001" y="400" as="targetPoint" />
            <Array as="points">
              <mxPoint x="250" y="470" />
            </Array>
          </mxGeometry>
        </mxCell>
        <mxCell id="93" value="" style="edgeStyle=elbowEdgeStyle;elbow=horizontal;strokeColor=#990000;strokeWidth=2" parent="1" source="10" target="5" edge="1">
          <mxGeometry width="100" height="100" relative="1" as="geometry">
            <mxPoint x="40" y="510" as="sourcePoint" />
            <mxPoint x="140" y="410" as="targetPoint" />
            <Array as="points">
              <mxPoint x="230" y="470" />
            </Array>
          </mxGeometry>
        </mxCell>
        <mxCell id="94" value="System&#xa;specs" style="text;spacingTop=-5;align=center" parent="1" vertex="1">
          <mxGeometry x="139.99999999999994" y="565.0000000000001" width="30" height="20" as="geometry" />
        </mxCell>
        <mxCell id="95" value="Design&#xa;specs" style="text;spacingTop=-5;align=center" parent="1" vertex="1">
          <mxGeometry x="423.49999999999994" y="461.0000000000002" width="30" height="20" as="geometry" />
        </mxCell>
        <mxCell id="96" value="System&#xa;version" style="text;spacingTop=-5;align=center" parent="1" vertex="1">
          <mxGeometry x="350.9999999999998" y="461" width="30" height="20" as="geometry" />
        </mxCell>
      </root>
    </mxGraphModel>
  </diagram>
  <diagram id="pKggCqswvETBUDjUmYk_" name="Page-3">
    <mxGraphModel dx="2044" dy="561" grid="1" gridSize="10" guides="1" tooltips="1" connect="1" arrows="1" fold="1" page="1" pageScale="1" pageWidth="850" pageHeight="1100" math="0" shadow="0">
      <root>
        <mxCell id="0" />
        <mxCell id="1" parent="0" />
        <mxCell id="nYYT95ApVnNXHSg36jaL-1" value="" style="shape=image;verticalLabelPosition=bottom;labelBackgroundColor=default;verticalAlign=top;aspect=fixed;imageAspect=0;image=data:image/jpeg,/9j/4AAQSkZJRgABAQEAZABkAAD/2wBDAAgGBgcGBQgHBwcJCQgKDBQNDAsLDBkSEw8UHRofHh0aHBwgJC4nICIsIxwcKDcpLDAxNDQ0Hyc5PTgyPC4zNDL/2wBDAQkJCQwLDBgNDRgyIRwhMjIyMjIyMjIyMjIyMjIyMjIyMjIyMjIyMjIyMjIyMjIyMjIyMjIyMjIyMjIyMjIyMjL/wAARCAHgAoADASIAAhEBAxEB/8QAHwAAAQUBAQEBAQEAAAAAAAAAAAECAwQFBgcICQoL/8QAtRAAAgEDAwIEAwUFBAQAAAF9AQIDAAQRBRIhMUEGE1FhByJxFDKBkaEII0KxwRVS0fAkM2JyggkKFhcYGRolJicoKSo0NTY3ODk6Q0RFRkdISUpTVFVWV1hZWmNkZWZnaGlqc3R1dnd4eXqDhIWGh4iJipKTlJWWl5iZmqKjpKWmp6ipqrKztLW2t7i5usLDxMXGx8jJytLT1NXW19jZ2uHi4+Tl5ufo6erx8vP09fb3+Pn6/8QAHwEAAwEBAQEBAQEBAQAAAAAAAAECAwQFBgcICQoL/8QAtREAAgECBAQDBAcFBAQAAQJ3AAECAxEEBSExBhJBUQdhcRMiMoEIFEKRobHBCSMzUvAVYnLRChYkNOEl8RcYGRomJygpKjU2Nzg5OkNERUZHSElKU1RVVldYWVpjZGVmZ2hpanN0dXZ3eHl6goOEhYaHiImKkpOUlZaXmJmaoqOkpaanqKmqsrO0tba3uLm6wsPExcbHyMnK0tPU1dbX2Nna4uPk5ebn6Onq8vP09fb3+Pn6/9oADAMBAAIRAxEAPwD3+iiigAooooAKKKKACiiigAooooAKKKKACiiigAooooAKKKKACiiigAooooAKKKKACiiigAooooAKKKKACiiigAooooAKKKKACiiigAooooAKKKKACiiigAooooAKKKKACiiigAooooAKKKKACiiigAooooAKKKKACiiigAooooAKKKKACiiigAooooAKKKKACiiigAooooAKKKKACiiigAooooAKKKKACiiigAooooAKKKKACiiigAooooAKKKKACiiigAooooAKKKKACiiigAooooAKKKKACiiigAooooAKKKKACiiigAooooAKKKKACiiigAooooAKKKKACiiigAooooAKKKKACiiigAooooAKKKKACiiigAooooAKKKKACiiigAooooAKKKKACiiigAooooAKKKKACiiigAooooAKKKKACiiigAooooAKKKKACiiigAooooAKKKKACiiigAooooAKKKKACiiigAooooAKKKKACiiigAooooAKKKKACiiigAooooAKKKKACiiigAooooAKKKKACiiigAooooAKKKKACiiigAooooAKKKKACiiigAooooAKKKKACiiigAooooAKKKKACiiigAooooAKKKKACiiigAooooAKKKKACiiigAooooAKKKKACiiigAooooAKKKKACiiigAooooAKKKKACiiigAooooAKKKKACiiigAooooAKKKKACiiigAooooAKKKKACiiigAooooAKKKKACiiigAooooAKKKKACiiigAooooAKKKKACiiigAooooAKKKKACiiigAooooAKKKKACiiigAooooAKKKKACiiigAooooAKKKKACiiigAooooAKKKKACiiigAooooAKKKKACiiigAooooAKKKKACiiigAooooAKKKKACiiigAooooAKKKKACiiigAooooAKKKKACiiigAooooAKKKKACiiigAooooAKKKKACiiigAooooAKKKKACiiigAooooAKKKKACiiigAooooAKKKKACiiigAooooAKKKKACiiigAooooAKKKKACiiigAooooAKKKKACiiigAooooAKKKKACiiigAooooAKKKKACiiigAooooAKKKKACiiigAooooAKKKKACiiigAooooAKKKKACiiigAooooAKKKKACiiigAooooAKKKKACiiigAooooAKKKKACiiigAooooAKKKKACiiigAooooAKKKKACiiigAooooAKKKKACiiigAooooAKKKKACiiigAooooAKKKKACiiigAooooAKKKKACiiigAooooAKKKKACiiigAooooAKKKKACiiigAooooAKKKKACiiigAooooAKKKKACiiigAooooAKKKKACiiigAooooAKKKKACiiigAooooAKKKKACiiigAooooAKKKKACiiigAooooAKKKKACiiigAooooAKKKKACiiigAooooAKKKKACiiigAooooAKKKKACiiigAooooAKKKKACiiigAooooAKKKKACiiigAooooAKKKKACiiigAooooAKKKKACiiigAooooAKKKKACiiigAooooAKKKKACiiigAooooAKKKKACiiigAooooAKKKKACiiigAooooAKKKKACiiigAooooAKKKKACiiigAooooAKKKKACiiigAooooAKKKKACiiigAooooAKKKKACiiigAooooAKKKKACiiigAooooAKKKKACiiigAooooAKKKKACiiigAooooAKKKKACiiigAooooAKKKKACiiigAooooAKKKKACiiigAooooAKKKKACiiigAooooAKKKKACiiigAooooAKKKKACiiigAooooAKKKKACiiigAooooAKKKKACiiigAooooAKKKKACiiigAooooAKKKKACiiigAooooAKKKKACiiigAooooAKKKKACiiigAooooAKKKKACiiigAooooAKKKKACiiigAooooAKKKKACiiigAooooAKKKKACiiigAooooAKKKKACiiigAooooAKKKKACiiigAooooAKKKKACiiuR8WfEfw74Lmgh1a5bz5huWGFN7hf7xHYemev4UAddRXid3+0hoyQSGz0K+lmH3FlkSNW57kbiOPasz/hpn/qU/8Ayof/AGugD3+ivAP+Gmf+pT/8qP8A9ro/4aZ/6lP/AMqP/wBroA9+JwMmmvIkaM7sFVRkk9hXzlqX7SGsTZGnaFZ2yFMfvpWlYNzyCNo9OMVwviX4q+LPFViLK/vkjterxW0YjD/72OSPbOKAOv8AiH8cdT1PUJ7DwvcyWWmodv2lBtlmI6kHqo9Mc8decVwH/CwvGX/Q06x/4GSf41zXU0UAe3/B34pa3P4mg8P6zcz6lFfORDNPIWkhfGep5KnHTtX0gOlfGnwk/wCSqeH/APr4P/oDV9l0AFFFFABRRRQAUUUUAFFFFABRRRQAUUUUAFFFFABRRRQAUUUUAFFFFABRRRQAUUUUAFFFFABRRRQAUUUUAFFFFABRRRQAUUUUAFFFFABRRRQAUUUUAFFFFABRRRQAUUUUAFFFFABRRRQAUUUUAFFFFABRRRQAUUUUAFFFFABRRRQAUUUUAFFFFABXxx8YJPM+KuukPuVZUUYOcYjXj86+xz0r4o+I1tNa/EXxFHOmxzqE0gGRyrMWU8eoINAHL5PrRRRQAUUUUAFFFFABRShSeldd4F+H2r+N9USK1ieKxVsT3rKdkY4yB6tzwP6UAdX8BfCsmq+MG1qUMlrpQ3BsH5pWGAv4DJP4etfUo6Vi+GvDWmeF9Fh0zSoRFBGPmb+KRu7Me5P/ANbpW1QAUUUUAFFFFABRRRQAUUUUAFFFFABRRRQAUUUUAFFFFABRRRQAUUUUAFFFFABRRRQAUUUUAFFFFABRRRQAUUUUAFFFFABRRRQAUUUUAFFFFABRRRQAUUUUAFFFFABRRRQAUUUUAFFFFABRRRQAUUUUAFFFFABRRRQAUUUUAFFFJuAoAWiq13qFnYRCW8uobeNm2hppAgJ9Mn6VixeP/CM90LaLxHprTElQv2heo60AdHRWZ/wkeh/9BnT/APwKT/GszUPiF4Q0sut34hsEdE3lFlDsR7Bckn2FAHTHpXyf8eNJ/s34jS3KgBb+BJ/vZORlD9Pu16zrPx+8H2Mb/wBnvdalNtyojhMaZz0JfBHrwDXz5438Z33jjXm1S+VY8L5cMKciKMEkLnuckkn37UAc1RRSjqKAErR0rQ9T1ubydM0+5vJP7sERftnt9K9p8Ffs/wAd9pcN/wCJ7m5gllAdbO3KqVXgjexB5PoOnrmvbdA8N6X4Y01dP0iyS2twdxC8l2/vMTyTxQB8o2vwe8eXlus0Xh2ZVYkATSxxNx6qzAj8q1dK+A/ja9ufLvbS306IYzJNcI+foELfrivrGigDyfw58BvC2kKr6mZtXn5yZf3cePZAf5k8/lXqFrY2ljbJbWltFbwIMJFEgRVHsBwKsU0uo6mgBQAOlLXMzfETwdbzPDN4l0xJEOGU3C8Gki+I3gyaVIo/E2mM7sFUC4XkmgDp6Kht7q3u4Fnt5o5om+7JGwZT24IqYHIyKACiiigAooooAKKKKACiiigAooooAKKKKACiiigAooooAKKKKACiiigAooooAKKKKACiiigAooooAKKKKACiiigAooooAKKKKACiiigAooooAKKKKACiiigAooooAKKKKACiiigAooooAKKKKACiiigAooooAKKKxPEnifTPCmkPqerXPk26naoAyztgkKo7k4NAGyzbRnt6189fFb4yzSXEmieFLtookJW4v4jguehWM9h/tdcjjjrzXjj41614qhksLBf7L01wQ6xuTLKDkYZvTHYD8TXlpJyeeKAJ7m+uryV5bq4lnkdizvK5YsfUk9TUO802igBQSDmlLk02igAPJooooAK0dAFufEWmi6x9nN1H5mQCNu4ZznjFZ1A60AffcQUDC/dxx9Kju7yCxtpbm5lSGCJS8kkjYVVHUk180aP+0Dr+l6BFp8un2l3cwxiOK6kdgSAAAXH8R9TkZ/WuP8WfEjxL4xYrqV9stj/y62+Ui4ORkZ559SaAPrXT/Fmg6qIzYaxYXBlJVFSdSzEdgM5rX8zjPH518CBiDkEg07zpf+ejfnQB90P4k0OJmSTWdOR1JDK10gII7EZr5v8Ai18VZfEd8+laFdzR6PGCkjqdv2psg59doxx615ISSck0pJPU0ABOTmgHBpKKANnQPFet+GLwXWj6hNbPkblVso+OzKeCOT19TX0d8NfjNbeL7qLR9TthaaqyfIyHMc5Ay2P7pwCcfXmvliprW6nsruG6tpWinhcSRupwVYHIIoA++aKwvB2vDxN4S0vWARm6gDSAAjDjhh0HRgR+FbtABRRRQAUUUUAFFFFABRRRQAUUUUAFFFFABRRRQAUUUUAFFFFABRRRQAUUUUAFFFFABRRRQAUUUUAFFFFABRRRQAUUUUAFFFFABRRRQAUUUUAFFFFABRRRQAUUUUAFFFFABRRRQAUUUUAFFFFABRRRQAV8zftCeJY9Q8R2mhW8gdNPQtMRjAlfHGfUKBn6+1fRGuatFoeiX2p3GPKtYGlIzjOBnH4nj8a+Gr+/udTv7i+vJTLcXEhkkdupYnJoArUUUUAFFFFABRRRQAUUUUAFFFFABRRRQAUUUUAFFFFABRRRQAUUUUAfRf7O/iaKTTr/AMOTyATQv9pt1P8AEh4YD6HB/H2r3MHNfLnwJ8L6nqHi+LX4WEWnaeWWVi3+sZkICAd+oY9uBX1EnQ0AOooooAKKKKACiiigAooooAKKKKACiiigAooooAKKKKACiiigAooooAKKKKACiiigAooooAKKKKACiiigAooooAKKKKACiiigAooooAKKKKACiiigAooooAKKKKACiiigAooooAgvb2206ynvLuVYbaCNpJZG6KoGST+FUtD8R6P4ktZLnR7+K8hjfy3ePOFbAOOfYiuZ+McjxfCnXXRmU+XGMqccGVAR+VfP3wk8c/8ACG+KAt02NLvysVyf7h52v17E8+xNAH13VLVdWsND06XUNTuktrSLG+V84XJAHT3IFWklWRA6kMpGQQcgivD/ANojxMkWmaf4dhk/fTv9pnUf3FyFzz3OeP8AZoA9d0PxPoniWGWbRtSgvEibbJ5Z5U9RkHmtXcPWvhvw54q1fwnqg1DR7owTgbWBAZXX0ZTwR/kV6K/7RHid9MeAWGnpeEEC5VWwvPUISRnHqaAPUvjl4gg0r4fXVktwou9QZIUjBUsUzlzg87cKRkdyK+Tqv6rrWoa5qEl/qd1Lc3MhyzyNn3wB0A5PA4qhQAUUUUAFFFFABRRRQAUUUUAFFFFABRRRQAUUUUAFFFFABRRRQAVPZWc1/ewWluheaeRY0UAkkk4HA5qOOJ5pAkas7scBVGSa+h/gv8LrnSJ4vE+uxtBchSLS0dcMmQQXcHkHGcDtnn0oA9a8J+Hbfwr4asNGtlG23iAdx/G55ZvxOa26KKACiiigAooooAKKKKACiiigAooooAKKKKACiiigAooooAKKKKACiiigAooooAKKKKACiiigAooooAKKKKACiiigAooooAKKKKACiiigAooooAKKKKACiijNABRRmkLAUALTWJA4OKXcMZrzX4yePU8J+F2s7KdRq18DFEqt80SEENJwcjHQH1+lAFi7+M/g2y1mfTJ9RcSQyiJpkiLR574Ydh3NaMHxS8FXKytH4ksQIkLtvYpwPTcBuPsMmvjR2LsWJJJ5JPUmm0Ae0fFT4yQ+J9Pn8P6HERp0jL591IPmmAIYBVx8oyOvU47d/GckHANNooA9K8PfGnxT4e0VdKRrW6iiRY7ZriPLQqMALwRuGBjn8+MVw2t61f6/q0+p6lcGe7nILvtAzgYGAOAMVnUUAFFFFABRRRQAUUUUAFFFFABRRRQAUUUUAFFFFABRRRQAUUUUAFFFFABXfeCfhL4g8awreRLHY6cTxd3GcOM4OxRyxHPoOMZqj8MvDVt4s8dWGl3jEW2WmlUD/WKg3FOvGcYzX2Rb20VrBHBBEkUMahURAAFA6AD0oA4zwH8LtC8Do0turXeoOAHu5wMjrwg/hHP1PrXc7RS0UAFFFFABRRRQAUUUUAFFFFABRRRQAUUUUAFFFFABRRRQAUUUUAFFFFABRRRQAUUUUAFFFFABRRRQAUUUUAFFFFABRRRQAUUUUAFFFFABRSZHrVV9U0+N2R762V1OGUzKCD6daALdFU/7W03/AKCFp/3+X/GnzX1pFZtdvdQrbqNxlLgIB656UAPuLiO1heaeRI4Y1LPI5wFA6knsK8w1v4++E9MYpYi51OTBwYE2JnHHzNjjPGQDXC/GP4r2muWZ8OaBcGW1L/6ZcrjbLtPCoe4yM5HX3FeIEnPWgD3O+/aT1NpgbHw9aRRbcFZ52kbPrkBeOnGKxLr9obxjNcM9vDptvEcYj8ktjj1JrybNFAHqf/DQPjf+9p3/AIDf/ZUjfH/xswwW078Lb/69eW0UAd5/wub4gf8AQwv/AOAsP/xFcbqOpXmrXst5f3MlxcysWeSRskknNVaKACiiigAooooAKKKKACiiigAoqzY6feandJa2FpPdXD/dihjLsfwFbX/Cv/GP/Qq6z/4Ayf4UAc5RXTw/DvxlNKkQ8LauGdgoL2jqBn1JGAPc1vWfwS8d3crRvpCWwC7t81wgB9uCeaAPOqK9R/4UB44/55WH/gSP8KP+FAeOP+eVh/4Ej/CgDy6nKpc4HXsK9Utv2ffGclwiTHT4YyfmkM+7b+AGa9T8E/BDRfC90uoajL/at/GQ0RePZHEw5yFycn3P5CgD5iu9KvrARm8s7m3Eih086IruUjIIyOQRVOvvO/0uw1azNrqNlb3cDcmKeMOp/A15L4r/AGf9E1CGW48Pyvp13yywsS8LHHA55X65PXpQB8zUVo67ot94e1q50rUYRFdW7bXVTkHuCD3BFZ1ABRRRQAUUUUAFFFFAHffBi9ey+Kmj7FVvPLwnPYFDz+lfYNfFvwxu4rL4leH5pSQpu1jyBk5fKj9WFfaQ6UAFFFFABRRRQAUUUUAFFFFABRRRQAUUUUAFFFFABRRRQAUUUUAFFFFABRRRQAUUUUAFFFFABRRRQAUUUUAFFFFABRRRQAUUUUAFFFFABRRWT4l1uPw54c1DV5tuy0gaQBjjcQOF+pOB+NAHzp8afiBqWoeKbnQLO58nTtPk2H7PIf3smBksR6ElcdsH8PJJJGlcuxLMxySTkk1Le3s+oX1xeXDl5riRpZGJJJZjknJ+tV6ADNWDe3Bg8gzymH/nnvO38ulV6KAFY5OaSiigAooooAKKKKACiiigAoor0PwR8Ide8ZIl4R/Z+mNgi5nQkyA90X+L68D3oA88or6Osv2btGSNhfa9fzSZ+VoI0iAHoQd2fzroU+AXgbYu63vSccn7UeaAPlClIIr6w/4UH4F/59r3/wACmrSg+DXgKGBIm0FJioxvkmkLH64YUAfH2013fgb4Wa74s1SJZ7S4sdL+9NdyxFRtBwQmfvN/LvX0/pHgDwnoTB9O0CxikDFhI0e91yMHDNkgY7Zx19a6HYvpQBheGvCGieFLBbbR7KKEYw8uAZJOc/M3U1v0AY6UUAFFFFABRRRQAUUUUAFIw3DGaWigDwP9o7R7WO30fWQpF2ztbOR0ZMbhn3Bz+Z9q+fK+k/2kv+RY0b/r8b/0A182UAFFFFABRRRQAUUDrXpXhP4K+JfE0UF3OiabYSHPm3H+sK+oTr+ePy5oA5/4caXear8QdDjs4WkMN7FPIQDhURwzE+nA/lX2qOlcR8PvhnpHgK2la2d7q/nAWW7lUAlePlUD7q5GcZPbk4FdvQAUUUUAFFFFABRRRQAUUUUAFFFFABRRRQAUUUUAFFFFABRRRQAUUUUAFFFFABRRRQAUUUUAFFFFABRRRQAUUUUAFFFFABRRRQAUUUUAFeXfH4kfDCXBIzdwg/ma9Rrhviz4av8AxX4DutO00K10kiTpGxxv25+UH1PbNAHxzRUs9vJbTSQzI0csbFXRhgqR1BHrUYGTQAlAGav6doupavN5WnWNzdyZC7YYi+CegOOleheG/gV4r1hhLqEaaTbkAg3BBkPPZAcj8cUAeX7Se1G0+lfWfh34H+D9GjDXVtJqlxwTJdn5QRjoowMZHQ569TXT3Xw/8IXlu0EvhrSgjYz5dqkZ491ANAHxKFJ7UbT6V9hv8HPAr3MU39hRr5YI8sSPsbPqM81fs/hl4LsJTLB4csCxXafNj80Y+jZHagD4wigmnmWKGJ5JGOFRFyT9AK3LPwN4rv4TLa+HdTljB2lltmxn8q+0rPSNP0+JIbKytraJM7EhhVFXJycADirgXFAHxzafB/x7dwJPH4dmVGPAlmijbrjlWYEfiK3rf4AeNZYo3ddPhLAFke4yyexwCM/Q19T7ec06gDw3wv8As821jqCXfiHUUvY4mDJbQIVR8f3yeSPYfn2r3CONIYkjjRUjQBVVRgADoAKdRQAUUUUAFFFFABRRRQAUUUUAFFFFABRRRQAUUUUAFFFFAHIfEvwofGPgy702EgXi4mtsnAMi9AfYjI9s57V8ZzQyQTyRSoUkjYq6t1BBwQa++iua+ef2gPBMdtLF4rsYSFlYQ3oXGN38D49+QT9PxAPB6KKKAJbeGS5uYoIY2kllYIiKMlmPAAr6t8IfBvw3o2jWY1XS7a/1RBvmlmy67z2CngqPcV80+DtRs9I8ZaRqGoIHtLe5R5QVzhQeuPbr+FfaWk6xp+s6dHf6ZdR3VrKAVkjOe2cHuDz0PNAFKLwV4WhlSWLw1o8ciMGV1sYwVI5BB28Gt6gHIooAKKKKACiiigAooooAKKKKACiiigAooooAKKKKACiiigAooooAKKKKACiiigAooooAKKKKACiiigAooooAKKKKACiiigAooooAKKKKACiiigApCAeopaKAPM/H/wAHtM8a38eow3H9nX2QJpEiDLMuR94ZHzAdD+ftb8M/Bvwf4eG46f8A2jP182/xJ2I4XAXHPp6eleg0UAQwWltaxJFbwRQxooVUjQKFA4AAHQVLtHpS0UAAGOlFFFABRRRQAUUUUAFFFFABRRRQAUUUUAFFFFABRRRQAUUUUAFFFFABRRRQAUUUUAFFFFABWJ4u0KHxJ4T1PSZYzILiBgiggHeOU5PH3gK26DyKAPgWeGS3meGVGSWNiroRgqRwQair6w8T/BDw/wCJvEZ1dri4sRLk3MNqFAlf++CQdpz14OfY807TPgR4K04q0ttdXzq+4G6nP5YUKCPqKAPk4ZHNT219d2UyTWl1PBKh3I8UhVlPqCOld58WPh3/AMINq8UlnI0mlXpZoC3LRsOqE98ZGD6da87oA9A0H4yeNNDMY/tU30KgDyr0eYCB/tfe/HNfRfw/+I+l+PbKRrf/AEe+hGZ7R2BZR/eB7r79u/v8aVf0XWb/AMP6rDqWmXL291Cco6/yI7g+lAH3hmivn7w9+0YiwRReItJdpRw9xZEYI9djHr074+nSvQtE+M3gnW5YII9Se1uJjtWK7iMZBzgAtyvP+93oA7+ikDA9KWgAooooAKKKKACiiigAooooAKKKKACiiigAooooAKKKKACiiigAooooAKKKKACiiigAooooAKKKKACiiigAooooAKKKKACiiigAooooAKKKKACiiigAooooAKKKKACiiigAooooAKKKKACiiigAooooAKKKKACiiigAooooAKKKKACiiigAooooAKKKKACiiigDl/H3hCDxp4SutJkbZKcS28n9yVfun6ckH2Jr421fSL7QtUn07Ubd4LqBtrxt29/cHrmvvGsDxV4O0Txhp5tNYslmA/1cq/LJGfVW6j6dPUGgD4forrvHvgPUPAmstaXa+bayZNtdKMLIv9GGeR/Q1yOKACnByOlNoHWgD64+B+rX2r/DiCS/uHnkgneBGfkhFxgE98Z716PXlf7P3Hw0/wC32X+S16pQAUUUUAFFFFABRRRQAUUUUAFFFFABRRRQAUUUUAFFFFABRRRQAUUUUAFFFFABRRRQAUUUUAFFFFABRRRQAUUUUAFFFFABRRRQAUUUUAFFFFABRRRQAUUUUAFFFFABRRRQAUUUUAFFFFABRRRQAUUUUAFFFFABRRRQAUUUUAFFFFABRRRQAUUUUAFFFFABRRRQAUUUUAYXijwjo/i/TDYaxbebGDujdTteJsfeU9v5HuDXy14/+F+s+CZjMwN5pRI2XiJgAnPyuOx/Q/pX2FVa+s7a/spbS7gSa3mUpJG4yGU9QaAPgojBxUttbTXV1DbwI0k0rhI0UZLMTgAD1r6Z/wCGefCZvZ5WutS8hyDHCsijy/UZIJP+etdhoXwu8G+HbmO60/Ro/tMZVlmmdpWVh0YbiQD9MUAaPgvQR4Y8IaZo/G+2gAkwSQZD8znqerE1v0gAFLQAUUUUAFFFFABRRRQAUUUUAFFFFABRRRQAUUUUAFFFFABRRRQAUUUUAFFFFABRRRQAUUUUAFFFFABRRRQAUUUUAFFFFABRRRQAUUUUAFFFFABRRRQAUUUUAFFFFABRRRQAUUUUAFFFFABRRRQAUUUUAFFFFABRRRQAUUUUAFFFFABRRRQAUUUUAFFFFABRRRQAUUUUAFFFFABRRRQAUUUUAFFFFABRRRQAUUUUAFFFFABRRRQAUUUUAFFFFABRRRQAUUUUAFFFFABRRRQAUUUUAFFFFABRRRQAUUUUAFFFFABRRRQAUUUUAFFFFABRRRQAUUUUAFFFFABRRRQAUUUUAFFFFABRRRQAUUUUAFFFFABRRRQAUUUUAFFFFABRRRQAUUUUAFFFFABRRRQAUUUUAFFFFABRRRQAUUUUAFFFFABRRRQAUUUUAFFFFABRRRQAUUUUAFFFFABRRRQAUUUUAFFFFABRRRQAUUUUAFFFFABRRRQAUUUUAFFFFABRRRQAUUUUAFFFFABRRRQAUUUUAFFFFABRRRQAUUUUAFFFFABRRRQAUUUUAFFFFABRRRQAUUUUAFFFFABRRRQAUUUUAFFFFABRRRQAUUUUAFFFFABRRRQAUUUUAFFFFABRRRQAUUUUAFFFFABRRRQAUUUUAFFFFABRRRQAUUUUAFFFFABRRRQAUUUUAFFFFABRRRQAUUUUAFFFFABRRRQAUUUUAFFFFABRRRQAUUUUAFFFFABRRRQAUUUUAFFFFABRRRQAUUUUAFFFFABRRRQAUUUUAFFFFABRRRQAUUUUAFFFFABRRRQAUUUUAFFFFABRRRQAUUUUAFFFFABRRRQAUUUUAFFFFABRRRQAUUUUAFFFFABRRRQAUUUUAFFFFABRRRQAUUUUAFFFFABRRRQAUUUUAFFFFABRRRQAUUUUAFFFFABRRRQAUUUUAFFFFABRRRQAUUUUAFFFFABRRRQAUUUUAFFFFABRRRQAUUUUAFFFFABRRRQAUUUUAFFFFABRRRQAUUUUAFFFFABRRRQAUUUUAFFFFABRRRQAUUUUAFFFFABRRRQAUUUUAFFFFABRRRQAUUUUAFFFFABRRRQAUUUUAFFFFABRRRQAUUUUAFFFFABRRRQAUUUUAFFFFABRRRQAUUUUAFFFFABRRRQAUUUUAFFFFABRRRQAUUUUAFFFFABRRRQAUUUUAFFFFABRRRQAUUUUAFFFFABRRRQAUUUUAFFFFABRRRQAUUUUAFFFFABRRRQAUUUUAFFFFABRRRQAUUUUAFFFFABRRRQAUUUUAFFFFABRRRQAUUUUAFFFFABRRRQAUUUUAFFFFABRRRQAUUUUAFFFFABRRRQAUUUUAFFFFABRRRQAUUUUAFFFFABRRRQAUUUUAFFFFABRRRQAUUUUAFFFFABRRRQAUUUUAFFFFABRRRQAUUUUAFFFFABRRRQAUUUUAFFFFABRRRQAUUUUAFFFFABRRRQAUUUUAFFFFABRRRQAUUUUAFFFFABRRRQAUUUUAFFFFABRRRQAUUUUAFFFFABRRRQAUUUUAFFFFABRRRQAUUUUAFFFFABRRRQAUUUUAFFFFABRRRQAUUUUAFFFFABRRRQAUUUUAFFFFABRRRQAUUUUAFFFFABRRRQAUUUUAFFFFABRRRQAUUUUAFFFFABRRRQAUUUUAFFFFABRRRQAUUUUAFFFFABRRRQAUUUUAFFFFABRRRQAUUUUAFFFFABRRRQAUUUUAFFFFAH/2Q==;" parent="1" vertex="1">
          <mxGeometry x="760" y="500" width="640" height="480" as="geometry" />
        </mxCell>
        <mxCell id="nYYT95ApVnNXHSg36jaL-2" value="" style="shape=image;verticalLabelPosition=bottom;labelBackgroundColor=default;verticalAlign=top;aspect=fixed;imageAspect=0;image=data:image/jpeg,/9j/4AAQSkZJRgABAQEAZABkAAD/2wBDAAgGBgcGBQgHBwcJCQgKDBQNDAsLDBkSEw8UHRofHh0aHBwgJC4nICIsIxwcKDcpLDAxNDQ0Hyc5PTgyPC4zNDL/2wBDAQkJCQwLDBgNDRgyIRwhMjIyMjIyMjIyMjIyMjIyMjIyMjIyMjIyMjIyMjIyMjIyMjIyMjIyMjIyMjIyMjIyMjL/wAARCAHgAoADASIAAhEBAxEB/8QAHwAAAQUBAQEBAQEAAAAAAAAAAAECAwQFBgcICQoL/8QAtRAAAgEDAwIEAwUFBAQAAAF9AQIDAAQRBRIhMUEGE1FhByJxFDKBkaEII0KxwRVS0fAkM2JyggkKFhcYGRolJicoKSo0NTY3ODk6Q0RFRkdISUpTVFVWV1hZWmNkZWZnaGlqc3R1dnd4eXqDhIWGh4iJipKTlJWWl5iZmqKjpKWmp6ipqrKztLW2t7i5usLDxMXGx8jJytLT1NXW19jZ2uHi4+Tl5ufo6erx8vP09fb3+Pn6/8QAHwEAAwEBAQEBAQEBAQAAAAAAAAECAwQFBgcICQoL/8QAtREAAgECBAQDBAcFBAQAAQJ3AAECAxEEBSExBhJBUQdhcRMiMoEIFEKRobHBCSMzUvAVYnLRChYkNOEl8RcYGRomJygpKjU2Nzg5OkNERUZHSElKU1RVVldYWVpjZGVmZ2hpanN0dXZ3eHl6goOEhYaHiImKkpOUlZaXmJmaoqOkpaanqKmqsrO0tba3uLm6wsPExcbHyMnK0tPU1dbX2Nna4uPk5ebn6Onq8vP09fb3+Pn6/9oADAMBAAIRAxEAPwD3+iiigAooooAKKKKACiiigAooooAKKKKACiiigAooooAKKKKACiiigAooooAKKKKACiiigAooooAKKKKACiiigAooooAKKKKACiiigAooooAKKKKACiiigAooooAKKKKACiiigAooooAKKKKACiiigAooooAKKKKACiiigAooooAKKKKACiiigAooooAKKKKACiiigAooooAKKKKACiiigAooooAKKKKACiiigAooooAKKKKACiiigAooooAKKKKACiiigAooooAKKKKACiiigAooooAKKKKACiiigAooooAKKKKACiiigAooooAKKKKACiiigAooooAKKKKACiiigAooooAKKKKACiiigAooooAKKKKACiiigAooooAKKKKACiiigAooooAKKKKACiiigAooooAKKKKACiiigAooooAKKKKACiiigAooooAKKKKACiiigAooooAKKKKACiiigAooooAKKKKACiiigAooooAKKKKACiiigAooooAKKKKACiiigAooooAKKKKACiiigAooooAKKKKACiiigAooooAKKKKACiiigAooooAKKKKACiiigAooooAKKKKACiiigAooooAKKKKACiiigAooooAKKKKACiiigAooooAKKKKACiiigAooooAKKKKACiiigAooooAKKKKACiiigAooooAKKKKACiiigAooooAKKKKACiiigAooooAKKKKACiiigAooooAKKKKACiiigAooooAKKKKACiiigAooooAKKKKACiiigAooooAKKKKACiiigAooooAKKKKACiiigAooooAKKKKACiiigAooooAKKKKACiiigAooooAKKKKACiiigAooooAKKKKACiiigAooooAKKKKACiiigAooooAKKKKACiiigAooooAKKKKACiiigAooooAKKKKACiiigAooooAKKKKACiiigAooooAKKKKACiiigAooooAKKKKACiiigAooooAKKKKACiiigAooooAKKKKACiiigAooooAKKKKACiiigAooooAKKKKACiiigAooooAKKKKACiiigAooooAKKKKACiiigAooooAKKKKACiiigAooooAKKKKACiiigAooooAKKKKACiiigAooooAKKKKACiiigAooooAKKKKACiiigAooooAKKKKACiiigAooooAKKKKACiiigAooooAKKKKACiiigAooooAKKKKACiiigAooooAKKKKACiiigAooooAKKKKACiiigAooooAKKKKACiiigAooooAKKKKACiiigAooooAKKKKACiiigAooooAKKKKACiiigAooooAKKKKACiiigAooooAKKKKACiiigAooooAKKKKACiiigAooooAKKKKACiiigAooooAKKKKACiiigAooooAKKKKACiiigAooooAKKKKACiiigAooooAKKKKACiiigAooooAKKKKACiiigAooooAKKKKACiiigAooooAKKKKACiiigAooooAKKKKACiiigAooooAKKKKACiiigAooooAKKKKACiiigAooooAKKKKACiiigAooooAKKKKACiiigAooooAKKKKACiiigAooooAKKKKACiiigAooooAKKKKACiiigAooooAKKKKACiiigAooooAKKKKACiiigAooooAKKKKACiiigAooooAKKKKACiiigAooooAKKKKACiiigAooooAKKKKACiiigAooooAKKKKACiiigAooooAKKKKACiiigAooooAKKKKACiiigAooooAKKKKACiiigAooooAKKKKACiiigAooooAKKKKACiiigAooooAKKKKACiiigAooooAKKKKACiiigAooooAKKKKACiiigAooooAKKKKACiiigAooooAKKKKACiiigAooooAKKKKACiiigAooooAKKKKACiiigAooooAKKKKACiiigAooooAKKKKACiiigAooooAKKKKACiiigAooooAKKKKACiiigAooooAKKKKACiiigAooooAKKKKACiiigAooooAKKKKACiiigAooooAKKKKACiiigAooooAKKKKACiiigAooooAKKKKACiiigAooooAKKKKACiiigAooooAKKKKACiiigAooooAKKKKACiiigAooooAKKKKACiiigAooooAKKKKACiiigAooooAKKKKACiiigAooooAKKKKACiiigAooooAKKKKACiiigAooooAKKKKACiiigAooooAKKKKACiiigAooooAKKKKACiiigAooooAKKKKACiiigAooooAKKKKACiiigAooooAKKKKACiiigAooooAKKKKACiiigAooooAKKKKACiiigAooooAKKKKACiiigAooooAKKKKACiiigAooooAKKKKACiiigAooooAKKKKACiiigAooooAKKKKACiiigAooooAKKKKACiiigAooJAqOWeKCJpZpEjjQEs7tgKB3JNAElFYY8Z+GTqSacNe083b/AHYhcKSeM+tbgOaACiiigAooooAKKKKACikJA61yGsfFLwXoN81lf67Ctwv3kijeXb7EoCAfagDsKK8W1P8AaK0CC5jTTdMvbtC4DySYjAXPJA5JOORnH4V6voet6d4g0mDVNMuFntZ1yrjqPUEdiPSgDSooooAKKKKACiiigAooooAKKKKACiiigAooooAKKKKACiiigAooooAKKKKACiiigAooooAKKKKACiiigAooooAKKKKACiiigAooooAKKKKACiiigAooooAKKKKACiiigAooooAKKKKACiiigAooooAKKKKACiiigAooooAKKxfEvibTfCejzarq0/lW8fACjLSN2VR3JxXnp/aJ8HHpa6x/34j/APjlAHrlB4FeE6h+0lZIJBpugzykPhGuJggZfUgA4NcPqvx58aajuWC4tLCNlK7baDJ577myc+4xQB7V8TvidZ+B9O+z2+yfWp0Jgg6iMf339vQd/wA6+WtZ8Ta14guTPq2pXN2+TgSyEqucZCr0HQdPSs+5uZ7u5kuLiZ5ZpWLvI7ZZmPJJNQ9aAHbzX0l8FvimNXtU8N67d51OM4tJpP8AlugH3Se7jn6j3FfNdOjkkhkWSJ2R1IZWU4II6EGgD79HIor5p+G3xtv9NvYdM8U3b3OnOAiXTjMkB7Fj1ZfXPIr6TRtwzngjIoAfRRRketABRTHbaN2eAMmvnT4g/He+ubmXTfCcv2e1jbDX+MvNj+6D91c9+p9qAO1+NvxCPhrQhounSldUv15dCQYYeQWBHRj0H4nsK+WyxNSXd3cX93LdXczz3ErF5JJGyzE9STUNACjrX0f+z7ouv6fpl7f3Z8nR7wBraFx80j/89B6Ljj3/AAql8GfhRZTafB4n8QWomebD2VtIAUC8ESEdyewPb1zXvYUAYAGKABRhRS0UUAFFFFABRRRQAUUUUAFFFFABRRRQAUUUUAFFFFABRRRQAUUUUAFFFFABRRRQAUUUUAFFFFABRRRQAUUUUAFFFFABRRRQAUUUUAFFFFABRRRQAUUUUAFFFFABRRRQAUUUUAFFFFABRRRQAUUUUAFFFFABRRRQAUUUUAfPP7R+ts97pOhI42Ro11KoP8R+Vcj2G78zXg1e4/HvwTq51uTxXCz3enuiRSIoybXaMDj+6Tk57En2rxHypP7jflQAyin+VJ/cb8qPKk/uN+VADKKs2thd3twtva2s88z/AHY4oyzNxngAZNLeadd6dOYL61uLaYDPlzxlGx2OCKAKtFFFAAODXqvgn44av4X0+HS7+1XU7GLiNmcrLGv90NyCB2yOPXGK8qooA+oNL/aI8K3QiS+stRs5HYhj5ayIg7HIOT+C1Hqv7Q/hi0ZksLDUL5lfG4qsSMPUEkn8CBXzIDignNAHqXjP44a14o0yXS7S1j020lyJWjctJIv90txgEdcDn1xXlh5NFFABXR+CPC9z4v8AFFnpMCN5buGuJACRHED8zH8OB7kVzlfR37OEmnNoOrxxRKupLOvnybss8ZB2cdgDvoA9ps7KCws4LS2jWKCBBHGijhVAwBVigdKKACiiigAooooAKKKKACiiigAooooAKKKKACiiigAooooAKKKKACiiigAooooAKKKKACiiigAooooAKKKKACiiigAooooAKKKKACiiigAooooAKKKKACiiigAooooAKKKKACiiigAooooAKKKKACiiigAooooAKKKKACiiigAxRiiigAxRiiuK8Z/FHw74HmjttReae8cbvs1qoZ1X1OSAPxOaAO1wPSue8WeD9H8Y6Y9jqtssmAfJmAw8JP8AEp7dB7HvXlc/7S1isziHw1cPEGOxnu1ViOxI2nB9smuQ8VfH3X9bgltdJto9Jt5AVZ1bzJSCMY3EADvyBnp0oA848R6O2geIdQ0lpo5zaTtF5sZBDgHg8Hg+o7dO1ZdOZixJPJJyTTaACiiigAooooAKKKKACvQfgz4kj8OfEK1a4mSG1vUa1mdyAq5wVJJ6Dco9K8+pQ2BQB9+hge9LXzD8Pfjne+HYIdL1+GS/06NQkU0ZHnRD0OeHH5EevavorQvEGm+JNJh1PSrlZ7WXow4KkdQw6g+xoA1KKBRQAUUUUAFFFFABRRRQAUUUUAFFFFABRRRQAUUUUAFFFFABRRRQAUUUUAFFFFABRRRQAUUUUAFFFFABRRRQAUUUUAFFFFABRRRQAUUUUAFFFFABRRRQAUUUUAFFFFABRRRQAUUUUAFFFFABRRRQAUUUUAFFISBUVxd29pbSXFzNHDDGpZ5JGCqoHck9KAJqK8F8b/tAJbXDWfhOKOfafnvZ0JRun3FyD68nH0rxvU/HHifWZvNv9dv5W3FgBMVVSeuFXAH4CgD7aknhiIEksaE9AzAUz7ba/wDPzD/38FfB9zfXN6ytdXM07KMKZXLEfnVegD7O8b/EbRPBWmtNcXCT3joTb2kTAtIenP8AdGe598Zr5A1rWL3X9Zu9Vv5TLdXMhd2P6D6AYA+lUKKACiiigAoo6133w0+Gt7461MSSb7fSIG/0i5xyx/uJ6t/LOfQEA4GivqzVfgF4Nv4/9DjutOfaADDMXGc8nD55I4615N4++CmreEbB9Usbkanp0ZzJtjKyxLk8svOQBjJH5AUAeWUUu0ikoAKKKKACiiigArsPh98QNR8Cax58BM1jMQLm0JwJB6j0YdjXH0UAfYVp8Y/AlzaRzNrscBYZMc0bhl9jgV0Np4w8OX80cNp4g0ueaT7kcd3GzHjPTOelfDlKDg0AffinIzmnV8XaB8TPFnhtlFjrNw0CnmCc+bGR1xhs4z7YNfQ/w6+Lel+MoUtL5orHWQT/AKOW+WUdcoT7duvB7UAelUUm4etLQAUUUUAFFFFABRRRQAUUUUAFFFFABRRRQAUUUUAFFFFABRRRQAUUUUAFFFFABRRRQAUUUUAFFFFABRRRQAUUUUAFFFFABRRRQAUUUUAFFFFABRRRQAUUUUAFFFFABRRQSB1NABXkXiv4/aHoWoGz0qybWGQkSSpN5UYOSMBtp3dOwx6E1o/Gnxn/AMIv4Pks7SfZqWojyYtr4aNP43GOenAPqfavkwkk5JzQB7te/tKX7lDYeHLaEDO8T3DSZ9MYC4/Wqf8Aw0l4g/6AmmfnJ/jXitFAHsd3+0b4mnt2S30zTbeQ4xIA7Y/AmvO/EHjbxJ4p2DWdWnukQYWPhEHvtUAZ98ZrApVRnYKilmY4AAySaAAknrSV0MfgTxdLGrx+GNYZGAZWFlIQQe/Snf8ACv8Axj/0Kus/+AMn+FAHOUV1Vt8OPGd1OkKeF9VDvwDLbNGv4s2APxNdDp3wL8b3zDzrCCyXeFJuLheB/eAXPFAHmyRtIwVQWYnAAGST7V614V+AWua9YJe6neppEUqB4o3hMkhB6blyu388+1emfDn4M2ng67GqapNFqGpr/qdqERwe655Le5xjt616tgUAeFWP7NVgnmf2h4kuZs42fZ7ZY8eucls9vSrn/DNvh/8A6Dep/wDfMf8AhXtVFAHj1h+zp4XtrpZbrUNRu4x/yyZlQH8VGa9U0zSLHRtOh0/TrZLa0hXbHEg4A/qfc8mrtFAAOBTXjWRCjqGUjBBGQRTqKAPIfHXwM0rX55L/AEKZNKvmyzx7SYZSSSTjqh57ce1fOfiDw5qnhfVH03V7Vre5UBgCQQ6nOGUjgg4P5V904FcL8SPhxaePtKjQPHa6lbnMF0Y93GD8jf7JJz7Y/AgHx3RXQ+KfBWv+D7lYtY0+SBHOI51+aKT6MOM+3X2rnqACiiigAooooAKKKKACnK7IwZSQwOQQeRTaKAPRfCvxm8WeHGhimuv7SsYht+z3XJ2+gf7w/HI46V9DeBviXonji0/0Vxbago/eWMzjzBwMlf7y89R+IFfGlX9H1a70PVbXU7CXy7u2kDxsRkA+47igD7worzr4YfE+08cWItbtkt9ahXMsGcCUD+NPb1Hb6V6LQAUUUUAFFFFABRRRQAUUUUAFFFFABRRRQAUUUUAFFFFABRRRQAUUUUAFFFFABRRRQAUUUUAFFFFABRRRQAUUUUAFFFFABRRRQAUUUUAFFFFABRRRQAUUUUAFRylghKAFsHAJwM/WpKQjNAHxf8RX8QT+M9Qn8R28kN20jKilWEYRTgeWT1XHQ98571yNfdGv+GNG8T2Bs9YsIbqIfdLj5kPqrdVP0rxfXP2cUkumk0HWhHCzZ8i8QkoPQMvX8QPqaAPn+ivpLS/2cdDg2tqesXt44fO2JFhQr6EfMfXkEVvD4B+Bcf8AHte/+BTUAfKAGa+mPgl8NV0fSV8Q6xaL/aVyM28cyfNbx+uD0ZuvqB9TXUaJ8G/Beg6ml/b6c880Y+QXUnmqp/vbTxkdj2rvgMUANC4p1FFABRRRQAUUUUAFFFFABRRRQAUUUUAFFFFAFLVNKstasJbHULaK4tpVKvHIuRz6eh96+MfHPhG58GeKbvSZt7xI263mZcebGeQR29jjuDX23XLeM/Aui+N9P+zanDtmT/VXUQAli9gcdPY8UAfFNFdT478Dah4E1oWN44nhkXfBcopCyL+Pcdx9K5agAooooAKKKKACiiigAooooA0dE1u+8P6vb6pps7Q3cDbkcfkQR3BGQR719ieB/HWleNtHS8sZAlwBie0dvnibv9R6Efz4r4qBwasWd/eaddJc2V1NbTp92WFyjD6EUAfe45FFfN3g/wDaC1OyMdp4mtxfQEgfa4gFlUepXo36H619DabqVpq1hDfWNxHcWs6745UOQwoAt0UUUAFFFFABRRRQAUUUUAFFFFABRRRQAUUUUAFFFFABRRRQAUUUUAFFFFABRRRQAUUUUAFFFFABRRRQAUUUUAFFFFABRRRQAUUUUAFFFFABRRRQAUUUUAFFFFABRRRQAUUUUAFFFFABRRRQAUUUUAFFFFABRRRQAUUUUAFFFFABSHpS0UAct438D6d450M6ffLsmTLW1yoy0L+o9QeMjv8Aka+UfGXgHXvBN2kerWwEEpIhuYm3RyYHOD2PscH8K+16ztd0Sy8Q6NdaXfxiS3uIyjDuPQj3B5oA+EaK3vF3hS/8H+IbnSr5GzGxMUpXAmjzw49j+nSsGgAooooAKKKKACiiigAooooAB1r2H4NfFGPw1KPD+tSsNLnkzBOzEi2cnkEdkJOT6Hnua8eoBwaAPvqGaKaFZY5FkjcZV0OQR6gipa+TfhT8Trnwlq0Vjql1LJoUvyMjZf7Oc8Mo7DJ5A65PGa+rLa5hu7eKe3kSWGVQ6SIcqynoQaAJqKKKACiiigAooooAKKKKACiiigAooooAKKKKACiiigAooooAKKKKACiiigAooooAKKKKACiiigAooooAKKKKACiiigAooooAKKKKACiiigAooooAKKKKACiiigAooooAKKKKACiiigAooooAKKKKACiiigAooooAKKKKACiiigAooooAw/E/hLRfFummz1iySdR9yQDEkZyOVbqOgz618sfE74b3HgDVYjFI9xpV0W+zTN94EYyj4789eh/AgfYdZmvaDYeJNIn0vU7dZrWYYYHqp7Mp7EdjQB8J0V7hrH7OGrxTM2j6xZzxFvlW6DRsFx3IBBNed698NfF3huFp9R0eZbdRuaaIiVAOeSVJx070AcnRSkYOKSgAooooAKKKKACiiigAya7Dwd8SfEXgp9mnXSyWhO5rS4BaNjxyOcg8diK4+lBwc0AfbvgzxbZeM/DsGr2Z2b/llhLAtE46qcfmPUEV0NfHnw0+JFx4B1KbdAbrTboDz4A2CGGcMvoeefUfQV9U+G/FWjeKtNW90i9S4j/jXo8Z54ZTyOh+vagDaooooAKKKKACiiigAooooAKKKKACiiigAooooAKKKKACiiigAooooAKKKKACiiigAooooAKKKKACiiigAooooAKKKKACiiigAooooAKKKKACiiigAooooAKKKKACiiigAooooAKKKKACiiigAooooAKKKKACiiigAooooAKKKKACiiigAppQHrTqKAPAfiv8F5JrmXXfCtuDv3PdWKYGD13Rj3/u/lXgc0ElvK8U0bxyoSrI64ZSOCCD0NffVYfiDwjoXieAw6vpdvdZGA7Lh1HPRhyOp796APhyivdPH/wGGmWF1q/hmd5IYQZHsZjllTqdjd8DPB5x3J6+GEHPSgBKKKKACiivpL4cfBbw+2g2esa2g1K5u4lmSIv+6iBBOPlOG4IznuKAPm2ivsnX/hV4R8Q2C202kRWrRriOazUROn5DB/EGvAPiD8H9W8FWzajBMuoaWG2mVFIeLPTevofUHr6cZAPNa6XwP4sufB3imz1aFnMSttuYlOPNiP3l+vcZ7gVzVFAH3ZoWu2HiPSYNT0y4We1nXKsOoPcEdiO4rTr4f8NeMtd8JXXn6PqMsAJy8X3o3+qng/XrX1F8NPiTbeP9Nn3Qi11K1x58AbIIOcMp6kcc+h+ooA76igdKKACiiigAooooAKKKKACiiigAooooAKKKKACiiigAooooAKKKKACiiigAooooAKKKKACiiigAooooAKKKKACiiigAooooAKKKKACiiigAooooAKKKKACiiigAooooAKKKKACiiigAooooAKKKKACiiigAooooAKKKKACiiigAooooAKKKKAGsu7vivCviX8D3vbqfWfCixrK/zTaeflDHPLRnoP8Ad+uPSvd6QgUAfBF1Z3FjO9vdwyQTxnDxSoVZT7g8ioK+rfiv8K/+E3ii1HS3hh1eBdp8z5VnXsCQM5HYnjt7j5j1jQ9T0G9a01SwuLSdedsyEZ9wehHB5HpQBnd6+kPgB42W70x/Cl7KTc2u6W03fxRE5Kg9yCSceh9Bx8313/wa0m61f4k6f5E80KWga5meI4OxeMH2JIU/WgD6/BzVPVNMtdY0y606+jEtrcxtFKnqpGOPQ+h7VcXpS0AfLPi34D+ItJuWl0QDVbNmO0IQsyDPAYHg/UenQV5jf6XfaVdNbahaT2k4GTHPGUbHrg9q+89o9K5Lxx4A0fx1YLBfo0dzCD9nuovvxkjofVe+P5UAfF1dH4K8X33grxDFqtkA+BsmhY/LLGeo9j3B7EV02v8AwP8AGOkXvlWdkNUgbOya2YDj/aViCD+f1NZX/Cp/Hg/5lu7/ADT/ABoA+vtH1GLWNEsNThR0ivLaO4RX+8FdQwB98GrtY3hC0uLDwVoNndxmK5t9Ot4pY26q6xqCD9CDWzQAUUUUAFFFFABRRRQAUUUUAFFFFABRRRQAUUUUAFFFFABRRRQAUUUUAFFFFABRRRQAUUUUAFFFFABRRRQAUUUUAFFFFABRRRQAUUUUAFFFFABRRRQAUUUUAFFFFABRRRQAUUUUAFFFFABRRRQAUUUUAFFFFABRRRQAUUUUAFFFFABRRRQAUUUUAFUdX0ew1zT5LHUrSK6tpAQ0cgz1GMg9jz1HNXqKAPi74heC5/BPiq404rI1k37y0nYf6xD2zjkjofpXqH7N+iSrc6xrUtsyoY0toJjkA5O5wOx6JXuGr6Dpev2v2XVbGC8gyGCSpnBBB4/IVbtrWCzgjgt4kihjUIkaLhVUdABQBNRRRQAUUUUAFFFFABRRRQAUUUUAFFFFABRRRQAUUUUAFFFFABRRRQAUUUUAFFFFABRRRQAUUUUAFFFFABRRRQAUUUUAFFFFABRRRQAUUUUAFFFFABRRRQAUUUUAFFFFABRRRQAUUUUAFFFFABRRRQAUUUUAFFFFABRRRQAUUUUAFFFFABRRRQAUUUUAFFFFABRRRQAUUUUAFFFFABRRRQAUUUUAFFFFABRRRQAUUUUAFFFFABRRRQAUUUUAFFFFABRRRQAUUUUAFFFFABRRRQAUUUUAFFFFABRRRQAUUUUAFFFFABRRRQAUUUUAFFFFABRRRQAUUUUAFFFFABRRRQAUUUUAFFFFABRRRQAUUUUAFFFFABRRRQAUUUUAFFFFABRRRQAUUUUAFFFFABRRRQAUUUUAFFFFABRRRQAUUUUAFFFFABRRRQAUUUUAFFFFABRRRQAUUUUAFFFFABRRRQAUUUUAFFFFABRRRQAUUUUAFFFFABRRRQAUUUUAFFFFABRRRQAUUUUAFFFFABRRRQAUUUUAFFFFABRRRQAUUUUAFFFFABRRRQAUUUUAFFFFABRRRQAUUUUAFFFFABRRRQAUUUUAFFFFABRRRQAUUUUAFFFFABRRRQAUUUUAFFFFABRRRQAUUUUAFFFFABRRRQAUUUUAFFFFABRRRQAUUUUAFFFFABRRRQAUUUUAFFFFABRRRQAUUUUAFFFFABRRRQAUUUUAFFFFABRRRQAUUUUAFFFFABRRRQAUUUUAFFFFABRRRQAUUUUAFFFFABRRRQAUUUUAFFFFABRRRQAUUUUAFFFFABRRRQAUUUUAFFFFABRRRQAUUUUAFFFFABRRRQAUUUUAFFFFABRRRQAUUUUAFFFFABRRRQAUUUUAFFFFABRRRQAUUUUAFFFFABRRRQAUUUUAFFFFABRRRQAUUUUAFFFFABRRRQAUUUUAFFFFABRRRQAUUUUAFFFFABRRRQAUUUUAFFFFABRRRQAUUUUAFFFFABRRRQAUUUUAFFFFABRRRQAUUUUAFFFFABRRRQAUUUUAFFFFABRRRQAUUUUAFFFFABRRRQAUUUUAFFFFABRRRQAUUUUAFFFFABRRRQAUUUUAFFFFABRRRQAUUUUAFFFFABRRRQAUUUUAFFFFABRRRQAUUUUAFFFFABRRRQAUUUUAFFFFABRRRQAUUUUAFFFFABRRRQAUUUUAFFFFABRRRQAUUUUAFFFFABRRRQAUUUUAFFFFABRRRQAUUUUAFFFFABRRRQAUUUUAFFFFABRRRQAUUUUAFFFFABRRRQAUUUUAFFFFABRRRQAUUUUAFFFFABRRRQAUUUUAFFFFABRRRQAUUUUAFFFFABRRRQAUUUUAFFFFABRRRQAUUUUAFFFFABRRRQAUUUUAFFFFABRRRQAUUUUAFFFFABRRRQAUUUUAFFFFABRRRQAUUUUAFFFFABRRRQAUUUUAFFFFABRRRQAUUUUAFFFFABRRRQAUUUUAFFFFABRRRQAUUUUAFFFFABRRRQAUUUUAFFFFABRRRQAUUUUAFFFFAH//2Q==;" parent="1" vertex="1">
          <mxGeometry x="760" y="20" width="640" height="480" as="geometry" />
        </mxCell>
        <mxCell id="nYYT95ApVnNXHSg36jaL-3" value="" style="shape=image;verticalLabelPosition=bottom;labelBackgroundColor=default;verticalAlign=top;aspect=fixed;imageAspect=0;image=data:image/jpeg,/9j/4AAQSkZJRgABAQEAZABkAAD/2wBDAAgGBgcGBQgHBwcJCQgKDBQNDAsLDBkSEw8UHRofHh0aHBwgJC4nICIsIxwcKDcpLDAxNDQ0Hyc5PTgyPC4zNDL/2wBDAQkJCQwLDBgNDRgyIRwhMjIyMjIyMjIyMjIyMjIyMjIyMjIyMjIyMjIyMjIyMjIyMjIyMjIyMjIyMjIyMjIyMjL/wAARCAHgAoADASIAAhEBAxEB/8QAHwAAAQUBAQEBAQEAAAAAAAAAAAECAwQFBgcICQoL/8QAtRAAAgEDAwIEAwUFBAQAAAF9AQIDAAQRBRIhMUEGE1FhByJxFDKBkaEII0KxwRVS0fAkM2JyggkKFhcYGRolJicoKSo0NTY3ODk6Q0RFRkdISUpTVFVWV1hZWmNkZWZnaGlqc3R1dnd4eXqDhIWGh4iJipKTlJWWl5iZmqKjpKWmp6ipqrKztLW2t7i5usLDxMXGx8jJytLT1NXW19jZ2uHi4+Tl5ufo6erx8vP09fb3+Pn6/8QAHwEAAwEBAQEBAQEBAQAAAAAAAAECAwQFBgcICQoL/8QAtREAAgECBAQDBAcFBAQAAQJ3AAECAxEEBSExBhJBUQdhcRMiMoEIFEKRobHBCSMzUvAVYnLRChYkNOEl8RcYGRomJygpKjU2Nzg5OkNERUZHSElKU1RVVldYWVpjZGVmZ2hpanN0dXZ3eHl6goOEhYaHiImKkpOUlZaXmJmaoqOkpaanqKmqsrO0tba3uLm6wsPExcbHyMnK0tPU1dbX2Nna4uPk5ebn6Onq8vP09fb3+Pn6/9oADAMBAAIRAxEAPwD3+iiigAooooAKKKKACiiigAooooAKKKKACiiigAooooAKKKKACiiigAooooAKKKKACiiigAooooAKKKKACiiigAooooAKKKKACiiigAooooAKKKKACiiigAooooAKKKKACiiigAooooAKKKKACiiigAooooAKKKKACiiigAooooAKKKKACiiigAooooAKKKKACiiigAooooAKKKKACiiigAooooAKKKKACiiigAooooAKKKKACiiigAooooAKKKKACiiigAooooAKKKKACiiigAooooAKKKKACiiigAooooAKKKKACiiigAooooAKKKKACiiigAooooAKKKKACiiigAooooAKKKKACiiigAooooAKKKKACiiigAooooAKKKKACiiigAooooAKKKKACiiigAooooAKKKKACiiigAooooAKKKKACiiigAooooAKKKKACiiigAooooAKKKKACiiigAooooAKKKKACiiigAooooAKKKKACiiigAooooAKKKKACiiigAooooAKKKKACiiigAooooAKKKKACiiigAooooAKKKKACiiigAooooAKKKKACiiigAooooAKKKKACiiigAooooAKKKKACiiigAooooAKKKKACiiigAooooAKKKKACiiigAooooAKKKKACiiigAooooAKKKKACiiigAooooAKKKKACiiigAooooAKKKKACiiigAooooAKKKKACiiigAooooAKKKKACiiigAooooAKKKKACiiigAooooAKKKKACiiigAooooAKKKKACiiigAooooAKKKKACiiigAooooAKKKKACiiigAooooAKKKKACiiigAooooAKKKKACiiigAooooAKKKKACiiigAooooAKKKKACiiigAooooAKKKKACiiigAooooAKKKKACiiigAooooAKKKKACiiigAooooAKKKKACiiigAooooAKKKKACiiigAooooAKKKKACiiigAooooAKKKKACiiigAooooAKKKKACiiigAooooAKKKKACiiigAooooAKKKKACiiigAooooAKKKKACiiigAooooAKKKKACiiigAooooAKKKKACiiigAooooAKKKKACiiigAooooAKKKKACiiigAooooAKKKKACiiigAooooAKKKKACiiigAooooAKKKKACiiigAooooAKKKKACiiigAooooAKKKKACiiigAooooAKKKKACiiigAooooAKKKKACiiigAooooAKKKKACiiigAooooAKKKKACiiigAooooAKKKKACiiigAooooAKKKKACiiigAooooAKKKKACiiigAooooAKKKKACiiigAooooAKKKKACiiigAooooAKKKKACiiigAooooAKKKKACiiigAooooAKKKKACiiigAooooAKKKKACiiigAooooAKKKKACiiigAooooAKKKKACiiigAooooAKKKKACiiigAooooAKKKKACiiigAooooAKKKKACiiigAooooAKKKKACiiigAooooAKKKKACiiigAooooAKKKKACiiigAooooAKKKKACiiigAooooAKKKKACiiigAooooAKKKKACiiigAooooAKKKKACiiigAooooAKKKKACiiigAooooAKKKKACiiigAooooAKKKKACiiigAooooAKKKKACiiigAooooAKKKKACiiigAooooAKKKKACiiigAooooAKKKKACiiigAooooAKKKKACiiigAooooAKKKKACiiigAooooAKKKKACiiigAooooAKKKKACiiigAooooAKKKKACiiigAooooAKKKKACiiigAooooAKKKKACiiigAooooAKKKKACiiigAooooAKKKKACiiigAooooAKKKKACiiigAooooAKKKKACiiigAooooAKKKKACiiigAooooAKKKKACiiigAooooAKKKKACiiigAooooAKKKKACiiigAooooAKKKKACiiigAooooAKKKKACiiigAooooAKKKKACiiigAooooAKKKKACiiigAooooAKKKKACiiigAoqK6uYbO1lubiVIoIUMkkjnAVQMkk+gArxbWf2jtMtL5odJ0Sa/t148+Wfydx9l2scfXFAHt1JuFfOl9+0nqjupsPD1nCmPmE8zSkn2IC4/KsK9/aC8Y3EzNbx6faoVxsWEtg+uSaAPqfeKUEGvkiy+Ofjq0jZH1CC5JbO6e2XI9vlxxXV6V+0hqa3sY1XRLSS1wA5tmZXHuNxIP04+ooA+jaKwfC/i7SfF+lDUNIuBLGG2ujcPG3ow7evvW8ORQAUUUUAFFFFABRRRQAUUUUAFFFFABRRRQAUUUUAFFFFABRRRQAUUUUAFFFFABRRRQAUUUUAFFFFABRRRQAUUUUAFFFFABRRRQAUUUUAFFFFABRRRQAUUUUAFFFFABRRRQAUUUUAFFFFABRRRQAUUUUAFFFFABRRRQAUUUUAFFFFABRRRQAUUUUAFFFFABRRTSw5FAHlXx/1v+zfACWMcpWbULlYsLJtbYoLNx3HCg/7wr5YJ5r1P47+KYtd8ZJp9pMZLXTEMRxnHmk/PjtxgDPt3ryugAooooAKKKKAOs8AeOb3wJrwv7dRNbSgJc25OPMTPY9iOoNfXnh3xDp3ifR4NU0u4E1tKPxRu6sOxHpXwvXrHwD8R3en+O4tEQ7rPUlfzEJ+66IzKw49ARj39qAPqeiiigAooooAKKKKACiiigAooooAKKKKACiiigAooooAKKKKACiiigAooooAKKKKACiiigAooooAKKKKACiiigAooooAKKKKACiiigAooooAKKKKACiiigAooooAKKKKACiiigAooooAKKKKACiiigAooooAKKKKACiiigAooooAKKKKACiiigAooooAK8M+OXxIutJmXwzol09vdbRJeTxHDoDyqKwOQSOT7Eete518hfG//krms/SD/wBEpQB58zFiSTkk5NJRRQAUUUUAFFFFABXoHwVZY/izobMwUEzDJOOTC4H6mvP67/4LxJN8WNDWRFdQZWAYZwRE5B+oIB/CgD7AooooAKKKKACiiigAooooAKKKKACiiigAooooAKKKKACiiigAooooAKKKKACiiigAooooAKKKKACiiigAooooAKKKKACiiigAooooAKKKKACiiigAooooAKKKKACiiigAooooAKKKKACiiigAooooAKKKKACiiigAooooAKKKKACiiigAooooAKKKKACvj34zXMN38VtckgfcqvHGeCMMkaqw59wa+wGOK+JPHt4moePteuog4jkvZcBxzwxH9KAOdooooAKKKKACiiigAr1n9n/SXvfiB/aBgZobC2dvMBwFdxtGfXIL/wCRXlMcZkdURSzsQAoGSTX178J/Ax8E+FlS5H/EyvSs11g5CHHyoD6AH8yaAO/ooooAKKKKACiiigAooooAKKKKACiiigAooooAKKKKACiiigAooooAKKKKACiiigAooooAKKKKACiiigAooooAKKKKACiiigAooooAKKKKACiiigAooooAKKKKACiiigAooooAKKKKACiiigAooooAKKKKACiiigAooooAKKKKACiiigAooooAKKKKAEIzXzF8evBjaR4kHiG1jIstRIEpGMJOAcj/AIEBn65r6erP1nRrDXtKuNO1K3W4tZ12ujfzB7EetAHwgRiiuq+IPg648EeKJ9Mk3PbN+8tZjzviJOM+46H3rlaACiiigAoAz0opR1oA9Y+AvhNda8XyavcjNtpIWRV45lbOzP0wx+oFfUw6V5X8AI7YfDZWiCCZruXztvXPGM/hj9K9UoAKKKKACiiigAooooAKKKKACiiigAooooAKKKKACiiigAooooAKKKKACiiigAooooAKKKKACiiigAooooAKKKKACiiigAooooAKKKKACiiigAooooAKKKKACiiigAooooAKKKKACiiigAooooAKKKKACiiigAooooAKKKKACiiigAooooAKKKKACiiigAoPSiigDyH4/wDhn+1PB8OsxqfP0yTLYAO6N8A578Hafz45r5fPWvurxHpMOveHdQ0qcApdwPFnGdpI4P1Bwfwr4au7aWzvJraZdssTlHHoQcGgCGiiigAooooA+kP2br1H8NazYqH82G8WZjj5SHQAAe/7s/pXtw6CvlD4F+Jf7D8eR2MrAW2qL5DEkgK45Q/ifl/4FX1eOlAC0UUUAFFFFABRRRQAUUUUAFFFFABRRRQAUUUUAFFFFABRRRQAUUUUAFFFFABRRRQAUUUUAFFFFABRRRQAUUUUAFFFFABRRRQAUUUUAFFFFABRRRQAUUUUAFFFFABRRRQAUUUUAFFFFABRRRQAUUUUAFFFFABRRRQAUUUUAFFFFABRRRQAUUUUAFFFFABRRRQBW1C9g03T7i+unEdvbxtLI5/hVRkn8hXxD4q1v/hI/FOo6wLeO3F3MZBGgwAPf3PU+5NfR/7QOtNp3gCKyikVX1C6WJl3YYxqCzEDuMhQfqK+WScmgBKKKKACiiigCSGV4ZUlicpIjBlZTggjoRX1x8LfiTB450w29wvk6taIPtEY+7IOm9fY9x2NfIddN4C8Ty+EvGOnaojYiR/LnUkgNE3DA/z+oFAH2zRUcLrKiujbkZQVI6EVJQAUUUUAFFFFABRRRQAUUUUAFFFFABRRRQAUUUUAFFFFABRRRQAUUUUAFFFFABRRRQAUUUUAFFFFABRRRQAUUUUAFFFFABRRRQAUUUUAFFFFABRRRQAUUUUAFFFFABRRRQAUUUUAFFFFABRRRQAUUUUAFFFFABRRRQAUUUUAFFFGRQAUUmR61Wk1KwhkaOS9tkdeCrSqCPwzQBaoqCG9tbkkQXMMpXqI5A2PyqfNABSHoaWuX8a+OdI8DaWLzUpGeSQ7YbaMgySnvgHsO56UAeL/ALSGqCXXNH0tXUi3geZlwcgucDn0wteIVueLfE154v8AEV1rF8x3zNhI92REg+6g9h+vJ71h0AFFFFABRRRQAUDrRRQB9H/Bf4pQ3dpaeE9YcJdxKI7KcniVQOIz6MB07EcdRz7eDkV8LeGXZPFWkMrEEXsPIP8AtivuoUAFFFFABRRRQAUUUUAFFFFABRRRQAUUUUAFFFFABRRRQAUUUUAFFFFABRRRQAUUUUAFFFFABRRRQAUUUUAFFFFABRRRQAUUUUAFFFFABRRRQAUUUUAFFFFABRRRQAUUUUAFFFFABRRRQAUUUUAFFFFABRRRQAUUUUAFFFFABVLVdQh0rTLrULlgsFtC0rkkDhRnqau15J+0Drbaf4Gj02NsPqM4Ruf4E+Y/qFoA8e8W/GTxT4lleOG6bTLHJCwWjFSV6YZ+p469B7VwEsrzSGSR2dz1Zjkmoz1ooAmgup7bJgmkiJ6lGK5/Kvb/AIL/ABUvRqtv4X1y4e4gnO20uZXLPG+OEJ7qeg9OnTp4VUlvNLb3Ec8EjRyxsHR1OCrDkEH1oA+87q5itbaW4ndY4YUMkjscBVAyST24r4p8Z+K7zxh4lutWuywDnbDFk4jjHCqBnj1PuSa7/wAWfG258SeAk0VLP7PqFx8l9Mp+QoP7g/2u+enPrmvHz1oAKKKKACiiigAooooAKKKKANnwlbS3njDRoIE3ytew7VzjPzg19yg5Ga+K/hp/yUvw7/1/R/zr7UHSgBaKKKACiiigAooooAKKKKACiiigAooooAKKKKACiiigAooooAKKKKACiiigAooooAKKKKACiiigAooooAKKKKACiiigAooooAKKKKACiiigAooooAKKKKACiiigAooooAKKKKACiiigAooooAKKKKACiiigAooooAKKKKACvIv2hdHkvvA9vqMfI0+5VpBgfcf5c5z6lRgZ6167XPeOJLCLwVrTakVFp9jkD784OVIHT3xQB8QnqcdKKD1ooAKKKKACiiigAooooAKKKKACiiigAoHWilHUUAezfAHweNU1+bxHcxBrXTvkg3LkNMR1/wCAg5+pU19LqMCuM+FOkLo3w30aHaA80AuXIOcmT5v5EV2lABRRRQAUUUUAFFFFABRRRQAUUUUAFFFFABRRRQAUUUUAFFFFABRRRQAUUUUAFFFFABRRRQAUUUUAFFFFABRRRQAUUUUAFFFFABRRRQAUUUUAFFFFABRRRQAUUUUAFFFFABRRRQAUUUUAFFFFABRRRQAUUUUAFFFFABRRWfrWsWmhaLe6peuEt7WJpHJ74HQe5OB+NAHAfEP4x6f4KvF020tv7Q1NSDNDvKLEpGRlsHJPoPxxxXgvjj4m6746cR3rx29hG5eO0gyFHoWPVj7/AFwBXMaxqtxrer3mpXcjST3UzSuzHuTnH0HTFUKACiiigAooooAKKKKACiiigAooooAKKKKACpIInnnjhiQvJIwVVHUknAFR1peHv+Rl0r/r8h/9DFAH3HptrHZaba2kMYjighSNEH8KgYA/KrVIKWgAooooAKKKKACiiigAooooAKKKKACiiigAooooAKKKKACiiigAooooAKKKKACiiigAooooAKKKKACiiigAooooAKKKKACiiigAooooAKKKKACiiigAooooAKKKKACiiigAooooAKKKKACiiigAooJxVTUL+202xmvry4SC2gQvJI5wFAoAt0V87eLv2hrqYva+FLX7OgOPtl0gZz/up0H4547Dtxv/AAvH4gf9BmP/AMA4f/iaAPruivju9+MPjq/EfmeIJoimceRGkWc467QM9KpH4n+NmBVvE2oFSMH95QB9ns23uPxr57+PHxBtNQgi8M6ReLMgfzL54myhx91Mjr6n0wO/Txa813V9Qg8i81W+uYc58ua4d1z64JrPoAKKKKACiiigAooooAKKKKACiiigAooooAKKKKACuk8BaaNV8e6FZsJGSS8jLeWOQoOSenbFc3XqHwF043nxMtrn5wtlbyzEhcgkrsAJ7ffJ/CgD6vooooAKKKKACiiigAooooAKKKKACiiigAooooAKKKKACiiigAooooAKKKKACiiigAooooAKKKKACiiigAooooAKKKKACiiigAooooAKKKKACiiigAooooAKKKKACiiigAooooAKKKKACiiigAooooArahfW2m6fPe3kyQ20CF5JHOAoFfIXxE+JWpeONUb5pLbSUOILQNwR/efHVjj8O3qfdvjzfrafDG4iaRke6uYoU25+Y53EH2wpr5RJJoASiiigAooooAKKKKACiiigAooooAKKKKACiiigAooooAKKKKACiiigAr6O/Zz8Pm30bUdemQh7qQW8JOfuJyx685Y46fw+9eB6Do1z4h1yz0mzUtcXUojXAzgdz9AMk+wr7d0TRrXQdEstLs1xBaRLEmepwOSfcnJPuaANCiiigAooooAKKKKACiiigAooooAKKKKACiiigAooooAKKKKACiiigAooooAKKKKACiiigAooooAKKKKACiiigAooooAKKKKACiiigAooooAKKKKACiiigAooooAKKKKACiiigAooooAKKKKACiiigDx79o0/8W/sP+wnH/6Klr5hr67+Nunte/C3UyiqzQNHNlv4QHGSPfFfIpGKAEooooAKKKKACiiigAooooAKKKKACiiigAooooAKKKKACiiigAooooA9i/Z40Rb3xde6tJHuWwg2oxAwryZH1B2hv1r6cHQV4b+zbY+XoGuX/mA+ddRw7MdNi5zn38z9K9yHQUALRRRQAUUUUAFFFFABRRRQAUUUUAFFFFABRRRQAUUUUAFFFFABRRRQAUUUUAFFFFABRRRQAUUUUAFFFFABRRRQAUUUUAFFFFABRRRQAUUUUAFFFFABRRRQAUUUUAFFFFABRRRQAUUUUAFFFFABRRRQBm6/o1v4g0C+0i73CC7iMTFeq56EfQ4P4V8deLvAet+Edck067tZZkHzQ3EUZKSp6j09x2r7XprLu9KAPgLFGK+57zwroOoRLFeaLp1xGrbgslsjDOMZ6V5/4l+AnhjVYnk0kyaTdHoYyZIs+6E/yIoA+WKKv6zpF5oesXWl38RiurZ9jqRj6EexBBHsaoUAFFFFABRRRQAUUUUAFFFFABRRRQAUUUUAFFFFABSjrSUq9elAH1h8BtMFj8M4JjB5b3lxJOWzneM7QfbhcfhXp1cx8OrSKy+HPh6GLdtNhFKdxz8zqHP6sa6egAooooAKKKKACiiigAooooAKKKKACiiigAooooAKKKKACiiigAooooAKKKKACiiigAooooAKKKKACiiigAooooAKKKKACiiigAooooAKKKKACiiigAooooAKKKKACiiigAooooAKKKKACiiigAooooAKKKKACkIzS0UAcn4p+HfhnxazS6ppqG6K7RdREpKOncdenfOK8T8R/s861ZSSy6Dew6hByUilPly45OP7pPQZyPoK+mKKAPjC/wDhX4404x+b4avn35x9nUTdPXYTjr3qn/wr7xl/0K2s/wDgFJ/hX23RQB8HS6PqMKu0thdoqAli0LDGPXiqJr78kRZIyjKrKeCCMgivPPEHwV8Ha6zyJYNp07HJksW2Dt/Acr27DvQB8jUV9D3H7NVq8zm28TTRwk/KslmHYD3IcA/kKi/4ZnT/AKGtv/Bf/wDbKAPn2ivpO0/Zs0JLdVvNd1GWfnc8KJGp9MKQxH51He/s26VIifYNfvIGGdxuIUlB9MY24/WgD5wor2C9/Z38VwOgtbvTroEfMfMZNp9ORXM3vwd8e2aTSN4flkjjJyYZY3LDPUKG3H8qAOFoq1faZf6Xcm3v7Oe1mBIKTRlDx7Gq20+lACUUuD6Vbh0rUbiJZYbC6ljbo6QswP0IFAFOgHBzXZ6F8LfGXiCCOez0WVbd32+dcMsQHvhiCR7gHvXe+EPgJr1p4psLrX/sX9mwSebKkUxZnK8hcY6E4z7ZoA+g9Khjt9IsoYUWOKOBFRFGAoCgAAelXKRRgY7dqWgAooooAKKKKACiiigAooooAKKKKACiiigAooooAKKKKACiiigAooooAKKKKACiiigAooooAKKKKACiiigAooooAKKKKACiiigAooooAKKKKACiiigAooooAKKKKACiiigAooooAKKKKACiiigAooooAKKKKACiiigAooooAKKKKACiiigAooooAKKKKACmlcmnUUAZGv8AhvSPEmmvZavZRXMLAgFl+ZDjqrdVPuK8g0b9nuyj8SX02rXbyaQkn+hwRSfO6nn94ccY6cdfX192xmk2j0oAxdI8I+H9CtzDpekWdsjD5isQLNySNzHlup6mtiOJIkCIqqo6KowBT6KAE285paKKACiiigAooooAKKKKACiiigAooooAKKKKACiiigAooooAKKKKACiiigAooooAKKKKACiiigAooooAKKKKACiiigAooooAKKKKACiiigAooooAKKKKACiiigAooooAKKKKACiiigAooooAKKKKACiiigAooooAKKKKACiiigAooooAKKKKACiiigAooooAKKKKACiiigAooooAKKKKACiiigAooooAKKKKACiiigAooooAKKKKACiiigAooooAKKKKACiiigAooooAKKKKACiiigAooooAKKKKACiiigAooooAKKKKACiiigAooooAKKKKACiiigAooooAKKKKACiiigAooooAKKKKACiiigAooooAKKKKACiiigAooooAKKKKACiiigAooooAKKKKACiiigAooooAKKKKACiiigAooooAKKKKACiiigAooooAKKKKACiiigAooooAKKKKACiiigAooooAKKKKACiiigAooooAKKKKACiiigAooooAKKKKACiiigAooooAKKKKACiiigAooooAKKKKACiiigAooooAKKKKACiiigAooooAKKKKACiiigAooooAKKKKACiiigAooooAKKKKACiiigAooooAKKKKACiiigAooooAKKKKACiiigAooooAKKKKACiiigAooooAKKKKACiiigAooooAKKKKACiiigAooooAKKKKACiiigAooooAKKKKACiiigAooooAKKKKACiiigAooooAKKKKACiiigAooooAKKKKACiiigAooooAKKKKACiiigAooooAKKKKACiiigAooooAKKKKACiiigAooooAKKKKACiiigAooooAKKKKACiiigAooooAKKKKACiiigAooooAKKKKACiiigAooooAKKKKACiiigAooooAKKKKACiiigAooooAKKKKACiiigD/2Q==;" parent="1" vertex="1">
          <mxGeometry x="-520" y="20" width="640" height="480" as="geometry" />
        </mxCell>
        <mxCell id="nYYT95ApVnNXHSg36jaL-4" value="" style="shape=image;verticalLabelPosition=bottom;labelBackgroundColor=default;verticalAlign=top;aspect=fixed;imageAspect=0;image=data:image/jpeg,/9j/4AAQSkZJRgABAQEAZABkAAD/2wBDAAgGBgcGBQgHBwcJCQgKDBQNDAsLDBkSEw8UHRofHh0aHBwgJC4nICIsIxwcKDcpLDAxNDQ0Hyc5PTgyPC4zNDL/2wBDAQkJCQwLDBgNDRgyIRwhMjIyMjIyMjIyMjIyMjIyMjIyMjIyMjIyMjIyMjIyMjIyMjIyMjIyMjIyMjIyMjIyMjL/wAARCAHgAoADASIAAhEBAxEB/8QAHwAAAQUBAQEBAQEAAAAAAAAAAAECAwQFBgcICQoL/8QAtRAAAgEDAwIEAwUFBAQAAAF9AQIDAAQRBRIhMUEGE1FhByJxFDKBkaEII0KxwRVS0fAkM2JyggkKFhcYGRolJicoKSo0NTY3ODk6Q0RFRkdISUpTVFVWV1hZWmNkZWZnaGlqc3R1dnd4eXqDhIWGh4iJipKTlJWWl5iZmqKjpKWmp6ipqrKztLW2t7i5usLDxMXGx8jJytLT1NXW19jZ2uHi4+Tl5ufo6erx8vP09fb3+Pn6/8QAHwEAAwEBAQEBAQEBAQAAAAAAAAECAwQFBgcICQoL/8QAtREAAgECBAQDBAcFBAQAAQJ3AAECAxEEBSExBhJBUQdhcRMiMoEIFEKRobHBCSMzUvAVYnLRChYkNOEl8RcYGRomJygpKjU2Nzg5OkNERUZHSElKU1RVVldYWVpjZGVmZ2hpanN0dXZ3eHl6goOEhYaHiImKkpOUlZaXmJmaoqOkpaanqKmqsrO0tba3uLm6wsPExcbHyMnK0tPU1dbX2Nna4uPk5ebn6Onq8vP09fb3+Pn6/9oADAMBAAIRAxEAPwD3+iiigAooooAKKKKACiiigAooooAKKKKACiiigAooooAKKKKACiiigAooooAKKKKACiiigAooooAKKKKACiiigAooooAKKKKACiiigAooooAKKKKACiiigAooooAKKKKACiiigAooooAKKKKACiiigAooooAKKKKACiiigAooooAKKKKACiiigAooooAKKKKACiiigAooooAKKKKACiiigAooooAKKKKACiiigAooooAKKKKACiiigAooooAKKKKACiiigAooooAKKKKACiiigAooooAKKKKACiiigAooooAKKKKACiiigAooooAKKKKACiiigAooooAKKKKACiiigAooooAKKKKACiiigAooooAKKKKACiiigAooooAKKKKACiiigAooooAKKKKACiiigAooooAKKKKACiiigAooooAKKKKACiiigAooooAKKKKACiiigAooooAKKKKACiiigAooooAKKKKACiiigAooooAKKKKACiiigAooooAKKKKACiiigAooooAKKKKACiiigAooooAKKKKACiiigAooooAKKKKACiiigAooooAKKKKACiiigAooooAKKKKACiiigAooooAKKKKACiiigAooooAKKKKACiiigAooooAKKKKACiiigAooooAKKKKACiiigAooooAKKKKACiiigAooooAKKKKACiiigAooooAKKKKACiiigAooooAKKKKACiiigAooooAKKTI9aXI9aACiiigAooooAKKKKACiiigAooooAKKKKACiiigAooooAKKKKACiiigAooooAKKKKACiiigAooooAKKKKACiiigAooooAKKKKACiiigAooooAKKKKACiiigAooooAKKKKACiiigAooooAKKKKACiiigAooooAKKKKACiiigAooooAKKKKACiiigAooooAKKKKACiiigAoopGJA4oAWs7Wdd03QNOlv8AVbuO1toxlnc9fYAck+w5rgfiD8ZNL8IGbTtPCX+splTFz5cBxxvPf/dBz64r5o8R+KdY8V6m9/q9488pJ2KeFjGSdqjsOaAPV/Gvx/vbqWWz8Kwi2tsY+2TJmVuP4VPC9+uT06Vn/Dn4zavp2ux2viXUHutLupWMs82WeBm6MD/dz26AE46Yrx/OaUEigD74trqC7gSa3lSWJxlXjYMrD2Iqavirwr8RPE3g87NK1FxbE5NtN88XXsp6fhivoT4efGXT/GEkWm6hEthrDD5UzmKbAH3CeQevyn8zQB6jRQOlFABRRRQAUUUUAFFFFABRRRQAUUUUAFFFFABRRRQAUUUUAFFFFABRRRQAUUUUAFFFFABRRRQAUUUUAFFFFABRRRQAUUUUAFFFFABRRRQAUUUUAFFFFABRRRQAUUUUAFFFFABRRRQAUUUUAFFFFABRRRQAUUUUAFFFFABRRRQAUUUUAFFFFABRRRQAUUUUAFYvi7Wk8O+EtU1d/wDl1t2dBzy+MKOAcZYgZ7Zrary74/NKvwzk8tUMZu4hIWOCBk4wO/OKAPlWeaS4nkmlYtJIxZ2PUknJNR0p60lABRRRQAVJDK0MiyRuySIQyupwVI6EVHRQB9cfB/x23jPwyYr2XdqlgRHOSeZV/hk6d+Qfce9ej18m/AbUri0+KFnaxN+6vIJYpVJPIVC4PXrlB17E19ZUAFFFFABRRRQAUUUUAFFFFABRRRQAUUUUAFFFFABRRRQAUUUUAFFFFABRRRQAUUUUAFFFFABRRRQAUUUUAFFFFABRRRQAUUUUAFFFFABRRRQAUUUUAFFFFABRRRQAUUUUAFFFFABRRRQAUUUUAFFFFABRRRQAUUUUAFFFFABRRRQAUUUUAFFFFABRRRQAV5j8e/8Akl1z/wBfMP8A6FXp1ebfHa3ln+Ft6YkLeXNE747KG6/qKAPkmilIwcUlABRRRQAUUUUAehfBD/krejf7s/8A6Jevr2vlH4B2S3XxOt5i5U2lrNMAB94kBMf+Pk/hX1dQAUUUUAFFFFABRRRQAUUUUAFFFFABRRRQAUUUUAFFFFABRRRQAUUUUAFFFFABRRRQAUUUUAFFFFABRRRQAUUUUAFFFFABRRRQAUUUUAFFFFABRRRQAUUUUAFFFFABRRRQAUUUUAFFFFABRRRQAUUUUAFFFFABRRRQAUUUUAFFFFABRRRQAUUUUAFFFFABXNfEHRbjxD4D1jS7Uj7RPAfLB/iZSGC/jjH410tIwyKAPgSWN4pWjkUq6khlYYIPoRTK+jPjl8OrKTS7nxdYIsF3CVN4gHyzKSFDezAkfWvnOgAooooAKKKKAPZ/2c7mBPGWpW7xlppbLdG+B8oVhkZ6jOR+VfTFfGPwu12Lw78RNIvp5kit/MMMzu21QjgqSfYZz9QK+zVZXUMpBBGQR3oAWiijIoAKKKKACiiigAooooAKKKKACiiigAooooAKKKKACiiigAooooAKKKKACiiigAooooAKKKKACiiigAooooAKKKKACiiigAooooAKKKKACiiigAooooAKKKKACiiigAooooAKKKKACiiigAooooAKKKKACiiigAooooAKKKKACiiigAooooAKKKKACkJwKR2VEZmYKoGST0Arzjxz8YNA8LW1xbWdzFqOrAFUt4W3IjdPnYcDHp14xxQBxv7QXjSH7PD4UspiZi6z3u1hhVxlUPfJyG7cY65r57q7q2qXes6rdalfSmW6uZDJK+MZY+3Ye1UqACiiigAooooAK7vw38XvF3hixFlaXkdxaqAI4rtPMEY9FOQQOOmcVwlFAHs1r+0d4iit1S50jTp5RnMg3pn8Mmtm1/aVCwxrceGN0oHztHebVJ9gUJ/WvAKKAPqnTv2gfB17N5dwmoWIJADzwgqcn/ZY4Ar0XSNe0vX7NbvSr6C8gPG+JwcH0I6g+x5r4Sya0NG17VPD9+l7pV9NaTqQd0bYBx2I6EexoA+7qK8n8E/HLQ9egS21ySLStQAwWlfEMhwOQx4XnPB/M16lbXMN3As0E0c0bch42DA/iKAJqKKKACiiigAooooAKKKKACiiigAooooAKKKKACiiigAooooAKKKKACiiigAooooAKKKKACiiigAooooAKKKKACiiigAooooAKKKKACiiigAooooAKKKKACiiigAooooAKKKKACiiigAooooAKKKKACiiigAooooAKKKKACms6oCWOABkk0rMFUk9BXzf8U/jVNqTXOg+GZBHYkeXNfISHmH8QT0U+vU/SgDE+K3xVu/FWo3GlaVcSQ6JC+35Dg3DDILEjqvoPx9MeWUUUAFFFFABRRRQAUUUUAFFFFABRRRQAUUUUAFdB4Y8Z674RuhNpF/LCu4F4ScxyY7Mp4/Hrzwa5+igD7P8AePdN8daOLq2YRXsQAurQtlo29R6qexrrwQelfCGlaxqGi6jDfaZdyWtzEwKSRnB+h7Eex4r6W+GHxit/FTR6PrCpbawEASTd8l0R1wP4W9u/b0oA9aopAcjNLQAUUUUAFFFFABRRRQAUUUUAFFFFABRRRQAUUUUAFFFFABRRRQAUUUUAFFFFABRRRQAUUUUAFFFFABRRRQAUUUUAFFFFABRRRQAUUUUAFFFFABRRRQAUUUUAFFFFABRRRQAUUUUAFFFFABRRRQAUUUUAFFFFAGL4xYr4I19lJDDTrggjqD5bV8NmvtH4n3Etr8M/EEsDlH+yMuR6NgH9Ca+LmOTQAlFFFABRRRQAUUUUAFFFFABRRRQAUUUUAFFFFABRRRQAVPaXU9ldw3dtM0NxC6yRyIcMjA5BHuDUFFAH0V4V/aGsJLSC28S2c0Nyo2vdW4DpJ/tFeCp+mR/KvVtD8Z+HPEbKuk61aXUjKWESyYkA90OGH4ivh+poJ5beZJYZHikQ5V0YhgfUEdKAPvnOaK4D4ReMpfF/gqOa9cvqFpIbe4c4y5ABVvxBH4g139ABRRRQAUUUUAFFFFABRRRQAUUUUAFFFFABRRRQAUUUUAFFFFABRRRQAUUUUAFFFFABRRRQAUUUUAFFFFABRRRQAUUUUAFFFFABRRRQAUUUUAFFFFABRRRQAUUUUAFFFFABRRRQAUUUUAFFFFABRRRQBxvxX/5Jb4g/wCvb/2YV8ZV9mfFl1T4W6/uYLm3wMnGTuHFfGhGKAEooooAKKKKACiiigAooooAKKKKACiiigAooooAKKKKACiiigAooooA9E+EHjePwf4rxfzNHpd8vlXBycIRyjkex4+jH6V9cQyxzwpLE6vG6hldTkMDyCD6V8E2sElzcxW8K7pZXCIucZJOAK+7dJso9N0axsIlKx21vHCik5wFUADPfpQBcooooAKKKKACiiigAooooAKKKKACiiigAooooAKKKKACiiigAooooAKKKKACiiigAooooAKKKKACiiigAooooAKKKKACiiigAooooAKKKKACiiigAooooAKKKKACiiigAooooAKKKKACiiigAooooA8v+Pd7Db/DC4ikbD3FzDHEME7mDbiPbhSa+UK9u/aJ8SLdazYeHoZMrZr59wozjzHHyg89QvPT+L3rxGgAooooAKKKKACiiigAooooAKKKKACiiigAooooAKKKKACiiigAooooA6r4caSNc+IWh2DAFGuRI4LEZVAXbkd8Ka+1R0r5n/Zz0sz+K9S1IpJttbURhh93Lt0PvhT+VfTA6UAFFFFABRRRQAUUUUAFFFFABRRRQAUUUUAFFFFABRRRQAUUUUAFFFFABRRRQAUUUUAFFFFABRRRQAUUUUAFFFFABRRRQAUUUUAFFFFABRRRQAUUUUAFFFFABRRRQAUUUUAFFFFABRRRQAUUUUAFQ3d1DZWs1zO4SGFGkkc9FUDJJ/Cpq89+NdzNafCvV3hfaZDFE3AOVZ1BH5UAfLPifXZvEviTUNYnBV7qYuFznavZefQYFZFFFABRRRQAUUUUAFFFFABRRRQAUUUUAFFFFABRRRQAUUUUAFFFFABSr1pKltoZLm5igiGZJXCKM4yScCgD6d/Z+8PnTfBM+qSKRLqc+4ZzzGmVX9S5z7+1eujpWdoGmRaLoFhpkCbY7SBIQDjPAAJOOMk8k9zWjQAUUUUAFFFFABRRRQAUUUUAFFFFABRRRQAUUUUAFFFFABRRRQAUUUUAFFFFABRRRQAUUUUAFFFFABRRRQAUUUUAFFFFABRRRQAUUUUAFFFFABRRRQAUUUUAFFFFABRRRQAUUUUAFFFFABRRRQAV5R+0HeS23w4EKbdt1fRRPuHOAGfj3yg/WvV68z+O9vFP8Lr53jV3hnhdCR9xt4GR74Yj6GgD5MooooAKKKKACiiigAooooAKKKKACiiigAooooAKKKKACiiigAooooAK6b4e6RJrXj7RbRbaS4j+1RvMqZ4jVgWJI6ADvXM19R/ArwXDo/hdNfuI/wDT9TUMhZeYogTtAyMjd19xtoA9aTpTqQDApaACiiigAooooAKKKKACiiigAooooAKKKKACiiigAooooAKKKKACiiigAooooAKKKKACiiigAooooAKKKKACiiigAooooAKKKKACiiigAooooAKKKKACiiigAooooAKKKKACiiigAooooAKKKgvbqKwsLi8nJEUETSuQMnaoyf0FADb2/tNOt2uLy6htoVGWkmkCKB7k8V8//Fn4xWWsaXL4f8OOJrecbbu7ZMBl/uID645P5V5j458c6l451o3t6xjt48rbWqnKwr/Unuf6YFcvQAUUUUAFFFFABRRRQAUUUUAFFFFABRRRQAUUUUAFFFFABRRRQAUUUoBNAE1lbG8vre1U4M0ixg4zjJx0r7t02zj07TrWyiVVjt4liUKMABQAMDt0r5L+Dmgzaz8SNLYQu1vYyfa5nXomwZTJ9228d+a+v6ACiiigAooooAKKKKACiiigAooooAKKKKACiiigAooooAKKKKACiiigAooooAKKKKACiiigAooooAKKKKACiiigAooooAKKKKACiiigAooooAKKKKACiiigAooooAKKKKACiiigAooooAKKKKACue8d3v8AZ3gLXbry/M2WUo25xnKkf1roa5L4n/8AJMfEX/Xm9AHxcRikoooAKKKKACiiigAooooAKKKKACiiigAooooAKKKKACiiigAooooAK6DwZ4Xu/GHia10i1yokbdNLgERRj7zYPXA7d6wB1r6B/Zr0/CeINQeBcEwwRzEDPG5nUd8cofy9KAPYPC/hHR/CGlrY6RbCFDgyuTl5WAxuYnv7dB2rdoooAKKKKACiiigAooooAKKKKACiiigAooooAKKKKACiiigAooooAKKKKACiiigAooooAKKKKACiiigAooooAKKKKACiiigAooooAKKKKACiiigAooooAKKKKACiiigAooooAKKKKACiiigAooooAK5L4of8kx8Rf9eT11tcl8UP+SY+Iv8AryegD4tooooAKKKKACijvWimharJt2aZetu+7iBjnP4UAZ1FaereH9W0J401bTbuxaUEoLiIpuA9M9azKACiiigAooooAKKKKACiiigAooooAKKKKAFHUV9U/ADSnsPh6144YG/unlUEgjaMICMe6nrXzp4P8KXvjDxFbaTYgBn+aWQnAjQdWP8AnrX2npOnW+kaXa6daJst7aJYo1/2QMCgC7RRRQAUUUUAFFFFABRRRQAUUUUAFFFFABRRRQAUUUUAFFFFABRRRQAUUUUAFFFFABRRRQAUUUUAFFFFABRRRQAUUUUAFFFFABRRRQAUUUUAFFFFABRRRQAUUUUAFFFFABRRRQAUUUUAFFFFABRRRQAVyXxQ/wCSY+Iv+vJ662uS+KH/ACTHxF/15PQB8W0UUUAFFFFAHoHwb0JNd+JGnLNHvgtM3bjbkfJ93Pp8xWvr4AAAAAAdq+fv2bdMHma3qzohIEdtG2fmHVmH0PyflX0FQBx3xG8CW/jvw61mzJFfQkyWlwVzsbuD32nAz+B7V8g6zouoaBq1xpmp2zQXcDbXRv0IPcHsRX3fXLeMPh9oHjaGNdVt2E8fEdzCQsqjOSM45HsfU4oA+KcGlwcZr6z/AOFD+BD1sbo/9vT/AONZ2p/s8+E7pWNjc6hYvsIULIJE3epDDJ+gIoA+XKlt7ae6uI7e3ieWaVgqRoMsxPQAd69yk/ZsuVvlEXiOFrTI3M1sQ/vgA4/WvVfBfw00DwVAr2cHnagU2y3soy7dM4HRRkdB+ZoA8j8F/s/Xt/HBfeJ7lrKBgG+xw/60jGQGY8L7jk/Tt6fqHwd8H3fhyXSLbS4rNmwyXka7pkcDAO48kccr0P616AOBRQB8YeOfhxrnge+dbuBptPZiIb2MfI446jnaeRwfwzXIYOM1973dnb39vJb3cEVxbyDDxSoGVh6EHg18X/EPTtK0rx1q1joocWME21VZgdpx8wHsGyB7UAcvRRRQAUUUUAfRX7OGjeXp2r61InzTSJbRsyfwqCzYb0JYZH+yPw91rzz4KWSWfwu0lljZHuDJM+7PJLsAfptVa9DoAKKKKACiiigAooooAKKKKACiiigAooooAKKKKACiiigAooooAKKKKACiiigAooooAKKKKACiiigAooooAKKKKACiiigAooooAKKKKACiiigAooooAKKKKACiiigAooooAKKKKACiiigAooooAKKKKACuS+KH/JMfEX/Xk9dbXJfFD/kmPiL/AK8noA+LaKKKACiiigD6s+AenGz+GsNyUjBvbmWUMo+YqDsG78VavU68++Cf/JJNE/7b/wDo+SvQaACiiigAooooATApaKKACiiigDm/HniJvCvgzU9XQgSwxYhyMjzGO1ex7kV8TyzSTyvLNI0kjsWd2OSxPJJPrX0F+0dr4WDSvD0bcuxvJVGM4GVT+b/lXz1QAUUUUAFFFanhzS21rxHpumICTd3UcOducAsASQOwHJoA+zfBlk2neC9Ds3cO0NjChYDg4QVvUyGJIIY4olCxooVVHQADAFPoAKKKKACiiigAooooAKKKKACiiigAooooAKKKKACiiigAooooAKKKKACiiigAooooAKKKKACiiigAooooAKKKKACiiigAooooAKKKKACiiigAooooAKKKKACiiigAooooAKKKKACiiigAooooAKKKKACuS+KH/JMfEX/Xk9dbXC/F6+Fj8LtdcoX8yJYcA4xvcLn8M0AfHVFFFABRRRQB9ffBP/kkmif9t/8A0fJXoNeffBP/AJJJon/bf/0fJXoNABRRRQAUUUUAFFFFABSMcUtV766isbKa7nbbDBG0khxnCqMnj6CgD5K+NerHVPihqQDOY7VUtkDj7u1ckD23Fj+Nee1a1O9fUtVu76UKJLmZ5mCjABYknHtzVWgAooooAUDJ64r2f4EeBru816PxReQNHp9oG+zM3Hmy8qceqgE5Prx64808HeHpPFPizTtHQlVuJQJHwTsQcsePYH8a+2NNsLbTNOt7GziWK2t4xHEi9FUDAFAFodKKKKACiiigAooooAKKKKACiiigAooooAKKKKACiiigAooooAKKKKACiiigAooooAKKKKACiiigAooooAKKKKACiiigAooooAKKKKACiiigAooooAKKKKACiiigAooooAKKKKACiiigAooooAKKKKACiiigArjvilCknwx8Qb1VgLRmAYZwRgg12Ncl8UP+SY+Iv+vJ6APi2iiigAooooA+vvgn/wAkk0T/ALb/APo+SvQa4L4NwS2vwo0KOZCjMkkgB/utK7KfxBB/Gu9oAKKKKACiiigAooooACcDNeMfH3xuul6Gnhi1J+16goedgfuQg9PqxGPoDXszEBSTjHvXw/4z1+XxP4t1LVpS2J5m8sN1WMcIOp6KB3oAwTyaKKKACgdRRXb/AAy8ByeOvEYt5C8enWwEl3KmMgdlHucfhQB6b+zx4TeNL3xRcxsokU21ruXqMguw/EAZH+1XvQGBVXTrC20yxgsbOJYba3jEcUa9FUDAFW6ACiiigAooooAKKKKACiiigAooooAKKKKACiiigAooooAKKKKACiiigAooooAKKKKACiiigAooooAKKKKACiiigAooooAKKKKACiiigAooooAKKKKACiiigAooooAKKKKACiiigAooooAKKKKACiiigAooooAK5L4of8kx8Rf9eT11tcl8UP8AkmPiL/ryegD4tooooAKKKKAPtf4b/wDJNfDn/YPi/wDQRXUVy/w3/wCSa+HP+wfF/wCgiuooAKKKKACiiigAooooA5T4kawuh/DvXL3IDC2MS5XI3OQg/Vq+LCa+kP2jNbW38PadoqE+Zdzmd8Z+4gx/Nv0r5uoAKKKKAFAJr6/+D3hxfD/w608FWFxej7XNvTaQWxgY64Cgfqe9fMPgjwvdeL/FNnpVsjFHcPcSAf6uIEbmP54+pHrX2zBFHBBHDCipFGoVFUYCgDAAoAkooooAKKKKACiiigAooooAKKKKACiiigAooooAKKKKACiiigAooooAKKKKACiiigAooooAKKKKACiiigAooooAKKKKACiiigAooooAKKKKACiiigAooooAKKKKACiiigAooooAKKKKACiiigAooooAKKKKACiiigArz/4zamNN+F2rndHvuAtsqucbt7AHHqQMn8K78tg188/tD+LILmWz8MWsm57d/tN1jorFcIvTrhieD3/IA8HooooAKfEhkkVQMliAKZXQeBoLO68daHb6gCbWS9iV12ht2WGFIPUE4B9iaAPs3w/pq6P4d03TVQILW2ji2hsgEKAee/NaVIvKg0tABRRRQAUUUUAFYvinxLYeE9BudW1GUJFEuEUnBkc/dQe5/wAT2rZJwM182/tCeL4tR1m18OWjq8ViPNuGVs/vTwF/Af8AoXtyAeY+LfFeo+Mtdl1bU5AZGGyONfuxICSFHsM/iSTWDRRQAU6NS8ioqlmY4CjqTTa7n4RaCNe+JWlQyIzQ2zG6kwpIAQZGcdBu2jPqRQB9FfC34f23gnw5GZoYzrFyga7mxyM8iMew6e5BNd5SAYpaACiiigAooooAKKKKACiiigAooooAKKKKACiiigAooooAKKKKACiiigAooooAKKKKACiiigAooooAKKKKACiiigAooooAKKKKACiiigAooooAKKKKACiiigAooooAKKKKACiiigAooooAKKKKACiiigAoopCQOtAC0VXu721sYGnu7iKCFeryuFUfia858R/HHwhoiyJZ3T6pcqOEtV+TPHVzxjnqM9DQAvxk8ft4P0FbGwcjVdQVlidWwYU7v9ew9+e1fKEssk0jSSuzuxyzMckn61seK/FOpeMNdl1bU5d0rjaiD7sSAnCKOwGT+ZNYlABRRRQAVYsbh7S9guY5HjkhkWRXQ4ZSDkEH1qvRQB982lzHeWUF1Fny5o1kTPXBGR/OpqzfD3/ItaV/15xf+gCtKgAooooAKKQkDrXnnxU+Idr4O0Ge3t5lfWLlCkESSANFuBHmMOoAwcepFAHE/FH42XNhe3egeGtivETHNqAYNg4IKoBwCP72eoPFfPkkjyyNJIxd2JLMxyST3NDuXYszEknJJ7mm0AFFFFABX1F8CvA9x4d0ObWdRjaK81JRshdcNHEM4z7t1+mK+cfDtkmpeI9MspEZ47i6iidV6lSwB/SvuoDAoAWiiigAooooAKKKKACiiigAooooAKKKKACiiigAooooAKKKKACiiigAooooAKKKKACiiigAooooAKKKKACiiigAooooAKKKKACiiigAooooAKKKKACiiigAooooAKKKKACiiigAooooAKKKKACiiigAooooAKoa1frpejXt+7Iq20Dy5kPyjapPPtV+uQ+KV0LP4ZeIJTE8u60aLag5G8hM/Qbsn2BoA+R9f8T6v4m1GW91a9muJHOQrOdiDsqr0AGelZBOaCOaSgAooooAKKKvaVpV5rWowafp1s9xdzttjiTqT/Qe5oAo0oGa1tf8M6x4Zu/susadPZyn7vmDKt/usOD+BqppVpLf6rZ2cMYklnnSJEJA3MzAAc/WgD7h8Pf8i1pf/XnF/wCgCtKmRRpFEkcaKiIoVVUYAA6ACn0AFFFFAGT4mvbvTfDOp3thEJby3tZJYUKk7nVSQMDryK+I9U1W91nUp9Q1Cd57qdy8kjnJJ/oPQdq+67yBbq0mt3JCSxsjEdcEY4r4PvrY2l/cWxVwYpWTDjBGDjn3oAr0UUUAFFFWLGyn1G+gs7WIy3E7iONB/ExOAKAPRfgl4WvNc8b2+ppmOy0txPLKRkFv4UHueT9BX1lXN+BvCVt4M8KWmkQ7HlQF55lXHmyHqf6D2ArpKACiiigAooooAKKKKACiiigAooooAKKKKACiiigAooooAKKKKACiiigAooooAKKKKACiiigAooooAKKKKACiiigAooooAKKKKACiiigAooooAKKKKACiiigAooooAKKKKACiiigAooooAKKKKACiiigAooooAKjmiWaNo5EV42BVlYZBB6gipKKAPIdY/Z68NX811cWN9fWEsz7kjUq8UeTyApAOOv8AFxWBN+zXiSLyPEuU3fvTJa4IX2w3J+te+0UAeEp+zXZh1MniWdkB+YLagEjuAd3FWb79m3RpCn2DXr+BRnf58aSk+mMbcfrXttFAHhdv+zVp6XCNceI7mSEH50jtlRiPQEscfka9S8MeCNB8IQPHo1gkDSf6yVmLyN16secc9K6KigCjqek2OsWb2eo2cF1buMNHMgYH/D61zWj/AAt8JaDrf9r6fpax3Yzs3yM6xk91UnAPvXZ0UAIOlLRRQAUUUUAIRmud1/wL4b8TK39q6RbTSsMeeqbJemPvjmujooA8b1T9nTw3db207Ur+xdmBCttmRR3ABAb8SxrL/wCGaLX/AKGib/wCH/xde8UUAeL6f+zh4fhUfb9X1C6cPn90EiUrxwRhj68gj+td14b+GvhbwpdC60rTFW6XO2eVzI65GCAT0/8Arn1rrqKAEGQOaWiigAooooAKKKKACiiigAooooAKKKKACiiigAooooAKKKKACiiigAooooAKKKKACiiigAooooAKKKKACiiigAooooAKKKKACiiigAooooAKKKKACiiigAooooAKKKKACiiigAooooAKKKKACiiigAooooAKKKKACiiigAooooAKKKKACiiigAooooAKKKKACiiigAooooAKKKKACiiigAooooAKKKKACiiigAooooAKKKKACiiigAooooAKKKKACiiigAooooAKKKKACiiigAooooAKKKKACiiigAooooAKKKKACiiigAooooAKKKKACiiigAooooAKKKKACiiigAooooAKKKKACiiigAooooAKKKKACiiigAooooAKKKKACiiigAooooAKKKKACiiigAooooAKKKKACiiigAooooAKKKKACiiigAooooAKKKKACiiigAooooAKKKKACiiigAooooAKKKKACiiigAooooAKKKKACiiigAooooAKKKKACiiigAooooAKKKKACiiigAooooAKKKKACiiigAooooAKKKKACiiigAooooAKKKKACiiigAooooAKKKKACiiigAooooAKKKKACiiigAooooAKKKKACiiigAooooAKKKKACiiigAooooAKKKKACiiigAooooAKKKKACiiigAooooAKKKKACiiigAooooAKKKKACiiigAooooAKKKKACiiigAooooAKKKKACiiigAooooA//9k=;" parent="1" vertex="1">
          <mxGeometry x="120" y="20" width="640" height="480" as="geometry" />
        </mxCell>
        <mxCell id="nYYT95ApVnNXHSg36jaL-5" value="" style="shape=image;verticalLabelPosition=bottom;labelBackgroundColor=default;verticalAlign=top;aspect=fixed;imageAspect=0;image=data:image/jpeg,/9j/4AAQSkZJRgABAQEAZABkAAD/2wBDAAgGBgcGBQgHBwcJCQgKDBQNDAsLDBkSEw8UHRofHh0aHBwgJC4nICIsIxwcKDcpLDAxNDQ0Hyc5PTgyPC4zNDL/2wBDAQkJCQwLDBgNDRgyIRwhMjIyMjIyMjIyMjIyMjIyMjIyMjIyMjIyMjIyMjIyMjIyMjIyMjIyMjIyMjIyMjIyMjL/wAARCAHgAoADASIAAhEBAxEB/8QAHwAAAQUBAQEBAQEAAAAAAAAAAAECAwQFBgcICQoL/8QAtRAAAgEDAwIEAwUFBAQAAAF9AQIDAAQRBRIhMUEGE1FhByJxFDKBkaEII0KxwRVS0fAkM2JyggkKFhcYGRolJicoKSo0NTY3ODk6Q0RFRkdISUpTVFVWV1hZWmNkZWZnaGlqc3R1dnd4eXqDhIWGh4iJipKTlJWWl5iZmqKjpKWmp6ipqrKztLW2t7i5usLDxMXGx8jJytLT1NXW19jZ2uHi4+Tl5ufo6erx8vP09fb3+Pn6/8QAHwEAAwEBAQEBAQEBAQAAAAAAAAECAwQFBgcICQoL/8QAtREAAgECBAQDBAcFBAQAAQJ3AAECAxEEBSExBhJBUQdhcRMiMoEIFEKRobHBCSMzUvAVYnLRChYkNOEl8RcYGRomJygpKjU2Nzg5OkNERUZHSElKU1RVVldYWVpjZGVmZ2hpanN0dXZ3eHl6goOEhYaHiImKkpOUlZaXmJmaoqOkpaanqKmqsrO0tba3uLm6wsPExcbHyMnK0tPU1dbX2Nna4uPk5ebn6Onq8vP09fb3+Pn6/9oADAMBAAIRAxEAPwD3+iiigAooooAKKKKACiiigAooooAKKKKACiiigAooooAKKKKACiiigAooooAKKKKACiiigAooooAKKKKACiiigAooooAKKKKACiiigAooooAKKKKACiiigAooooAKKKKACiiigAooooAKKKKACiiigAooooAKKKKACiiigAooooAKKKKACiiigAooooAKKKKACiiigAooooAKKKKACiiigAooooAKKKKACiiigAooooAKKKKACiiigAooooAKKKKACiiigAooooAKKKKACiiigAooooAKKKKACiiigAooooAKKKKACiiigAooooAKKKKACiiigAooooAKKKKACiiigAooooAKKKKACiiigAooooAKKKKACiiigAooooAKKKKACiiigAooooAKKKKACiiigAooooAKKKKACiiigAooooAKKKKACiiigAooooAKKKKACiiigAooooAKKKKACiiigAooooAKKKKACiiigAooooAKKKKACiiigAooooAKKKKACiiigAooooAKKKKACiiigAooooAKKKKACiiigAooooAKKKKACiiigAooooAKKKKACiiigAooooAKKKKACiiigAooooAKKKKACiiigAooooAKKKKACiiigAooooAKKKKACiiigAooooAKKKKACiiigAooooAKKKKACiiigAooooAKKKKACiiigAooooAKKKKACiiigAooooAKKKKACiiigAooooAKKKKACiiigAooooAKKKKACiiigAooooAKKKKACiiigAooooAKKKKACiiigAooooAKKKKACiiigAooooAKKKKACiiigAooooAKKKKACiiigAooooAKKKKACiiigAooooAKKKKACiiigAooooAKKKKACiiigAooooAKKKKACiiigAooooAKKKKACiiigAooooAKKKKACiiigAooooAKKKKACiiigAooooAKKKKACiiigAooooAKKKKACiiigAooooAKKKKACiiigAooooAKKKKACiiigAooooAKKKKACiiigAooooAKKKKACiiigAooooAKKKKACiiigAooooAKKKKACiiigAooooAKKKKACiiigAooooAKKKKACiiigAooooAKKKKACiiigAooooAKKKKACiiigAooooAKKKKACiiigAooooAKKKKACiiigAooooAKKKKACiiigAooooAKKKKACiiigAooooAKKKKACiiigAooooAKKKKACiiigAooooAKKKKACiiigAooooAKKKKACiiigAooooAKKKKACiiigAooooAKKKKACiiigAooooAKKKKACiiigAooooAKKKKACiiigAooooAKKKKACiiigAooooAKKKKACiiigAooooAKKKKACiiigAooooAKKKKACiiigAooooAKKKKACiiigAooooAKKKKACiiigAooooAKKKKACiiigAooooAKKKKACiiigAooooAKKKKACiiigAooooAKKKKACiiigAooooAKKKKACiiigAooooAKKKKACiiigAooooAKKKKACiiigAooooAKKKKACiiigAooooAKKKKACiiigAooooAKKKKACiiigAooooAKKKKACiiigAooooAKKKKACiiigAooooAKKKKACiiigAooooAKKKKACiiigAooooAKKKKACiiigAooooAKKKKACiiigAooooAKKKKACiiigAooooAKKKKACiiigAooooAKKKKACiiigAooooAKKKKACiiigAooooAKKKKACiiigAooooAKKKKACiiigAooooAKKKKACiiigAooooAKKKKACiiigAooooAKKKKACiiigAooooAKKKKACiiigAooooAKKKKACiiigAooooAKKKKACiiigAooooAKKKKACiiigAooooAKKKKACiiigAooooAKKKKACiiigAooooAKKKKACiiigAooooAKKKKACiiigAooooAKKKKACiiigAooooAKKKKACiiigAooooAKKKKACiiigAooooAKKKKACiiigAooooAKKKKACiiigAooooAKKKKACiqt/qNrplpLd31xFb20SlnlkbAAHJryHXv2itFsLhotH0qfU1VsGV5PIQj1GQSfxAoA9oor53vf2lb+SJfsHhu2gcH5jPctKCPYBVx+tLZftKXqQkX3hu3mlJ+VoLpogBxxgq2T15zQB9D0V5Z4e+PHhnXNVisJobnTnmIVJbnb5e70JBOPqa9SByM0ALRRRQAUUUUAFFFFABRRRQAUUUUAFFFFABRRRQAUUUUAFFFFABRRRQAUUUUAFFFFABRRRQAUUUUAFFFFABRRRQAUUUUAFFFFABRRRQAUUUUAFFFFABRRRQAUUUUAFFFFABRRRQAUUUUAFFFFABRRRQAUUUUAFFFFABRRRQAUUUUAFFFFABRRRQAUUUUAFFFFABVPVdRtdI0y51G9l8q1to2llf0UDJ+v0q5Xi37Rmv3Wn+HNM0eDKxajK7TMGxlY9pC47glgf+A0AeS/Ej4kX3jvVCoZ7fSYGP2e2z1/239WP6dB3zwdKTk5pKACjNFFACg4zzX0R8Ifi5ay2MHhzxDcrBNAuy1u5ZPllXsjE9GHY9D069fnalBxQB9+I6OiujBlYZDA5BFOzmvjrwL8Udc8HX0CfaJrvSgcSWUj5UL3KZ+6e/HB719X6B4h0vxJpUWo6VdLPbyru4PzIfRh2PX8qANaiiigAooooAKKKKACiiigAooooAKKKKACiiigAooooAKKKKACiiigAooooAKKKKACiiigAooooAKKKKACiiigAooooAKKKKACiiigAooooAKKKKACiiigAooooAKKKKACiiigAooooAKKKKACiiigAooooAKKKKACiiigAooooAKKKKACiiigAooooAK8A/aZ+74Y+t1/7Sr349K+cP2kb9pde0TT8xlILZ5uPvAuwBB9sIMfU0AeIUUUUAFFFFABRRRQAA4Oa7D4deN7rwR4mjvVzJZzYiu4SThkJHzAf3h1H4jvXH0oOKAPvq3mjuLeKeGRZIpFDo6nIZSMgipK434XaodY+G2h3TM7sIPJZnGCShKH8PlrsqACiiigAooooAKKKKACiiigAooooAKKKKACiiigAooooAKKKKACiiigAooooAKKKKACiiigAooooAKKKKACiiigAooooAKKKKACiiigAooooAKKKKACiiigAooooAKKKKACiiigAooooAKKKKACiiigAooooAKKKKACiiigAooooAKKKKACiiigBG6V8jfHF7p/inqIuVIRY4lgyMZj2A/j8xavrk9K+XP2hrJoPH1tdFwRc2SEKB93azCgDySiiigAooooAKKKKACiiigD3f4B+OrDTopfC2oSCF7iczWkjcB3IAKE9jwMfj3xX0MrZOK+A1YqRgke4r6j+CPxCm8UaZLouqTGXVLFN6yt1mhyACTnlgTgn3HfNAHrdFGaKACiiigAooooAKKKKACiiigAooooAKKKKACiiigAooooAKKKKACiiigAooooAKKKKACiiigAooooAKKKKACiiigAooooAKKKKACiiigAooooAKKKKACiiigAooooAKKKKACiiigAooooAKKKKACiiigAooooAKKKKACiiigAooooAKKRmCjJOB71kzeKvD9vM8NxrulxTRsVeOS8jVlI6ggnigDXPSuG+Jfw9i8e6NBALhba+tXL28zLleRhlbvg4HTuBXW2eqWOoQ+dZXttcw52+ZDKrrn0yDVgyxn+NfzoA+TJvgV49jmkVNMt5UViBIl3GFYeoyQcfUCk1f4IeMNG0GTVpo7OZIkEktvbys8qDvxtwcd8E/jX1Te6vp2mRq99f2lrGx2q88yoCfQEkVxmtfGXwXo9k80eqLfyjhYLQFmY/U4AHuT+dAHyGRikra8V6vZ694ku9SsdMj02Cd9wt423AHufYnqQOKxaACiiigAooooAKv6NrN/oGqwanptw8F1A25HX9QR3B7iqFFAH1Z8O/jJp3jGdNN1CEWGqtgIm7Mc55ztPY47H869T7V8CQTy208c0MjRyxsHR1OCpHIIPY19mfDfxdF4x8HWV95oe7jQQ3ikYIlAGTjJ4PUH3oA6+iiigAooooAKKKKACiiigAooooAKKKKACiiigAooooAKKKKACiiigAooooAKKKKACiiigAooooAKKKKACiiigAooooAKKKKACiiigAooooAKKKKACiiigAooooAKKKKACiiigAooooAKKKKACiiigAooooAKKKKACiio55Y7e3kmmkWOKNS7uxwFUckknoMUAUta1nT9B0ubUtSuVt7WBcu7foAO5PYCvAPFf7Qup3FxLB4ZtorW3BKrc3Cb5G54YKeF+hB61wfxG8eXnjXxHPP5si6ZG221ttx2qo43Y/vHk88846CuMPWgDd1jxl4j18MNT1q9uUbIMbSkJjOcbRxjNYVFFABmiiigAozRRQAUUUUAFFFFABRRRQAUUUUAFdB4U8X6v4O1P7do915TsAssbDckqg52sP69R2Irn6B1oA+5fCniG38VeGrHWrUMsV1HnawwVYEqw/Ag1tV49+zrfNP4JvrQoALe9OCDydyg/0r2GgAooooAKKKKACiiigAooooAKKKKACiiigAooooAKKKKACiiigAooooAKKKKACiiigAooooAKKKKACiiigAooooAKKKKACiiigAooooAKKKKACiiigAooooAKKKKACiiigAooooAKKKKACiiigAooooAKKKKACsTxfpUuueD9W0y3dkmubZ44ypwd2OBn3PH41t0hGRQB8CzRSQzPFKjJKjFXRhgqRwQR61HXuvxw+GsOnef4v01gkUsg+2W5PR2OA6+xPUevT28KPWgAooooAKKKKACiiigAooooAKKKKACiiigAooooAKKKKAPff2ZzmbxN/u23/tWvoKvmz9m67lTxNrVku3yZbNZm453I4A/SRv0r6SHSgBaKKKACiiigAooooAKKKKACiiigAooooAKKKKACiiigAooooAKKKKACiiigAooooAKKKKACiiigAooooAKKKKACiiigAooooAKKKKACiiigAooooAKKKKACiiigAooooAKKKKACiiigAooooAKKKKACiiigAooooA4b4wWkV38LdbEuf3USyrg/xKwIr45r7j8Y6adY8Haxp4h8557OVUjzjc+0lecj+LFfDh60AFFFFABRRRQAUUUUAFFFFABRRRQAUUUUAFFFFABRRRQB63+zxepbfEC5gZWLXNg6KR0GGVufwFfUYORXyt+z9aSz/Edp0AKW9nI7884OFGPxIr6pX7ooAWiiigAooooAKKKKACiiigAooooAKKKKACiiigAooooAKKKKACiiigAooooAKKKKACiiigAooooAKKKKACiiigAooooAKKKKACiiigAooooAKKKKACiiigAooooAKKKKACiiigAooooAKKKKACiiigAooooAKKKKAGSLvjZR3BFfBd/aNYajc2bsGe3leJmXoSpIyPyr71Y4r4b8W201n4w1mCdNkqXsu5cg4y5PagDGooooAKKKKACiiigAooooAKKKKACiiigAooooAKKKKAPZf2cP+R21T/sHH/0YlfTQ6V88/s0QxteeJJiimVI7dVfHIBMhIB9DtH5CvoYDAoAKKKKACiiigAooooAKKKKACiiigAooooAKKKKACiiigAooooAKKKKACiiigAooooAKKKKACiiigAooooAKKKKACiiigAooooAKKKKACiiigAooooAKKKKACiiigAooooAKKKKACiiigAooooAKKKKACiiigAooooAawzXw94zvZNQ8ba3dSqqvJey5C9OGI/pX25d3UVlay3M7qkMKNJI7HAVQMkn8BXwlqt2t/q97eIpVbid5Qp6gMxOP1oAqUUUUAFFFFABRRRQAUUUUAFFFFABRRRQAUUUUAFA60UDrQB9Hfs26eI9G1zUD5geaeOHn7pCKTke+XP6V7jXm/wAC7IWnwtsZhIW+1zTTEYxt+cpj3+5n8a9IoAKKKKACiiigAooooAKKKKACiiigAooooAKKKKACiiigAooooAKKKKACiiigAooooAKKKKACiiigAooooAKKKKACiiigAooooAKKKKACiiigAooooAKKKKACiiigAooooAKKKKACiiigAooooAKKKKACiik3CgBaQnjg1x+v/FHwf4clkgvtYja5TIMFuplfIHQ7eAe3JFeLeO/jxea1btYeGop9OtmPz3TMBM454GMhR06EmgC78Z/ioupCfwrosmbZH23lyMjeynlF9gep749Ovhx6mhm3HJ60lABRRRQB2Hgj4d6v47a+OmmKOO0j3NJMSAzkHag9zjr279q5e/sp9Ovp7K6iaK5t5GiljbqrKcEfnX01+z5p4tvh/Ld4kDXd45+boQoCgjj61yPx/wDAssGoL4tsYy0E4WO9ABOxwMK546EAD649aAPC6KKKACiiigAooooAKKKKACiiigAoor0n4PeA/wDhMvEpuLsMum6cUlmIAxK2crH+ODn2HbIoA+jPhtpw0r4daDZ+U8TLaK7o5yQ7/O36sa6qmqu30/CnUAFFFFABRRRQAUUUUAFFFFABRRRQAUUUUAFFFFABRRRQAUUUUAFFFFABRRRQAUUUUAFFFFABRRRQAUUUUAFFFFABRRRQAUUUUAFFFFABRRRQAUUUUAFFFFABRRRQAUUUUAFFFFABRRRQAUUUUAFFcn468daf4E0eO/vYZ52mcxwxQgfM2M8k9B7/AKV4Fr/x88V6qrRaf9n0uEjGYV3ydP7zdPwAoA+lta13TfD2nSX+q3kVraocF5D1PYAdSfYV80fEv4v6h4mvJLDQ7iaz0ZQUyhKPc88s3cA9l/Prgec6rrOo63eNd6nfT3dwwwXmcsceg9BzVDNAC7iaSiigAooooAKKKciNI6oilmYgADuaAPsj4T2RsPhh4fhZw5e287IGMeYzPj8N2K7C5toby3kt7iJJYZVKSRuMqynggj0qjoNkNP0DTbMQ+SILaOPyx/DhQMVp0AfHfxX8GReDPGk1raKVsLlBcWyls7VOQV/Ag4z2x161wlfTn7Q+iLe+ELPVlUmXT7jaSAThJMA5xwOVXk/1r5joAKKKKACiiigAooooAKKKVetACqhYgDkk4AFfY3wq8Lnwp4FsLSaFY72cG4uuOd7cgH6LgfhXkPwg+Es2rzWnibW4wmmoRLawfxTsG4LDsuR0/i+nX6VoAKKKKACiiigAooooAKKKKACiiigAooooAKKKKACiiigAooooAKKKKACiiigAooooAKKKKACiiigAooooAKKKKACiiigAooooAKKKKACiiigAooooAKKKKACiiigAooooAKKKKACiiigAooooAKKKKAPPvjPox1b4Y6mUDNLabbpAGA+6fmz/AMBLH64r5CbrX3xdQx3NrLBMu6KVCjrnGQRgivkL4g/DLVvBF68zRm50mSQrBdIM4HUBx/Ccfng0AcHRR3ooAKKciPIcIrMfQDNOaCZVJaJwB1JU0AR0UVbttNvbyZIbWzuJ5pOEjiiZmb6ADmgCpW74N0s614x0bTtrstxeRq4jOGCbgWI+ign8KB4K8U9/DOs/+AMv/wATXr/wb+Feqaf4gXxBr9rJZ/ZP+Pa3kGGdmXG488AA9PU9sUAfQdFFFAHM/EDSxrXgPXLDy/MeS0cxqW2/Oo3Jz/vAH8K+JyMV9+OiupVgCpGCD0NfHPxM8DXng3xLcp5Ur6ZPIZLW42HZtYkhC2MbhyCPbNAHEUUUUAFFFFABRRRQAV0/gTwfc+NPFNvpcJZIR+8uZQM+XGCMnr15A/GuZVSzBQCSTgAdTX158H/CH/CK+Cbf7VaiHUrzM9zuHzjJ+VTwCMLjj1JoA7qxtILCxgs7WIRW8CCONB0VQMAVYoAxRQAUUUUAFFFFABRRRQAUUUUAFFFFABRRRQAUUUUAFFFFABRRRQAUUUUAFFFFABRRRQAUUUUAFFFFABRRRQAUUUUAFFFFABRRRQAUUUUAFFFFABRRRQAUUUUAFFFFABRRRQAUUUUAFFFFABRRRQAUUUUAFQ3NtDeW8lvcRJLDKpR0dcqynqCKmooA821H4GeB9QYsmnz2Tly7G1uGAOe2GyAPYAVy1v8As36cmqiS41y5l08D/UrEFkJ/38kY69q9yooAxNC8J6J4Zt1g0fTLe0UDG5Fy56ZyxyT0HU9q154IrmBoZokljcYZHUEEe4NSUUAZf/CO6Nj/AJBFh/4DJ/hWlGixxqiKFVRgKowAPQU6igAooooAKKKKACoLu0t72Dybq3injznZKgYZ9cGp6KAPONf+Cfg7WwzxWLabcEH95ZttGe2UOV/ICvEfHnwd1zwiXurRX1PS+vnxRnfGOfvqM4wB97p9K+taaVBoA+A9ppK+1tX+HHhDXCWv9As3ckEyRqYnOBj7yEHHtWT/AMKV+H3/AEL4/wDAuf8A+LoA+P6UAnpX2B/wpX4ff9C+P/Auf/4ur2lfC3wTotz9osvD9sJcghpmabbj03k4/CgDxf4KfDa71DXIfEOsWLx6dafPbLMpUzS8FWAPVR1z0yB15r6YpoUCnUAFFFFABRRRQAUUUUAFFFFABRRRQAUUUUAFFFFABRRRQAUUUUAFFFFABRRRQAUUUUAFFFFABRRRQAUUUUAFFFFABRRRQAUUUUAFFFFABRRRQAUUUUAFFFFABRRRQAUUUUAFFFFABRRRQAUUUUAFFFFABRRRQAUUUUAFFFFABRRRQAUUUUAFFFFABRRRQAUUUUAFFFFABRRRQAUUUUAFFFFABRRRQAUUUUAFFFFABRRRQAUUUUAFFFFABRRRQAUUUUAFFFFABRRRQAUUUUAFFFFABRRRQAUUUUAFFFFABRRRQAUUUUAFFFFABRRRQAUUUUAFFFFABRRRQAUUUUAFFFFABRRRQAUUUUAFFFFABRRRQAUUUUAFFFFABRRRQAUUUUAFFFFABRRRQAUUUUAFFFFABRRRQAUUUUAFFFFABRRRQAUUUUAFFFFABRRRQAUUUUAFFFFABRRRQAUUUUAFFFFABRRRQAUUUUAFFFFABRRRQAUUUUAFFFFABRRRQAUUUUAFFFFABRRRQAUUUUAFFFFABRRRQAUUUUAFFFFABRRRQAUUUUAFFFFABRRRQAUUUUAFFFFABRRRQAUUUUAFFFFABRRRQAUUUUAFFFFABRRRQAUUUUAFFFFABRRRQAUUUUAFFFFABRRRQAUUUUAFFFFABRRRQAUUUUAFFFFABRRRQAUUUUAFFFFABRRRQAUUUUAFFFFABRRRQAUUUUAFFFFABRRRQAUUUUAFFFFABRRRQAUUUUAFFFFABRRRQAUUUUAFFFFABRRRQAUUUUAFFFFABRRRQAUUUUAFFFFABRRRQAUUUUAFFFFABRRRQAUUUUAFFFFABRRRQAUUUUAFFFFABRRRQAUUUUAFFFFABRRRQAUUUUAFFFFABRRRQAUUUUAFFFFABRRRQAUUUUAFFFFABRRRQAUUUUAFFFFABRRRQAUUUUAFFFFABRRRQAUUUUAFFFFABRRRQAUUUUAFFFFABRRRQAUUUUAFFFFABRRRQAUUUUAFFFFABRRRQAUUUUAFFFFABRRRQAUUUUAFFFFABRRRQAUUUUAFFFFABRRRQAUUUUAFFFFABRRRQAUUUUAFFFFABRRRQAUUUUAFFFFABRRRQAUUUUAFFFFABRRRQAUUUUAFFFFABRRRQAUUUUAFFFFABRRRQAUUUUAFFFFABRRRQAUUUUAFFFFABRRRQAUUUUAFFFFABRRRQAUUUUAFFFFABRRRQAUUUUAFFFFABRRRQAUUUUAFFFFABRRRQAUUUUAFFFFABRRRQAUUUUAFFFFABRRRQAUUUUAFFFFABRRRQAUUUUAFFFFABRRRQAUUUUAFFFFABRRRQAUUUUAFFFFABRRRQAUUUUAFFFFABRRRQAUUUUAFFFFABRRRQAUUUUAFFFFABRRRQAUUUUAFFFFABRRRQAUUUUAFFFFABRRRQAUUUUAFFFFABRRRQAUUUUAFFFFABRRRQAUUUUAFFFFABRRRQAUUUUAFFFFABRRRQAUUUUAFFFFABRRRQAUUUUAFFFFABRRRQAUUUUAFFFFABRRRQAUUUUAf/9k=;" parent="1" vertex="1">
          <mxGeometry x="-520" y="500" width="640" height="480" as="geometry" />
        </mxCell>
        <mxCell id="nYYT95ApVnNXHSg36jaL-6" value="" style="shape=image;verticalLabelPosition=bottom;labelBackgroundColor=default;verticalAlign=top;aspect=fixed;imageAspect=0;image=data:image/jpeg,/9j/4AAQSkZJRgABAQEAZABkAAD/2wBDAAgGBgcGBQgHBwcJCQgKDBQNDAsLDBkSEw8UHRofHh0aHBwgJC4nICIsIxwcKDcpLDAxNDQ0Hyc5PTgyPC4zNDL/2wBDAQkJCQwLDBgNDRgyIRwhMjIyMjIyMjIyMjIyMjIyMjIyMjIyMjIyMjIyMjIyMjIyMjIyMjIyMjIyMjIyMjIyMjL/wAARCAHgAoADASIAAhEBAxEB/8QAHwAAAQUBAQEBAQEAAAAAAAAAAAECAwQFBgcICQoL/8QAtRAAAgEDAwIEAwUFBAQAAAF9AQIDAAQRBRIhMUEGE1FhByJxFDKBkaEII0KxwRVS0fAkM2JyggkKFhcYGRolJicoKSo0NTY3ODk6Q0RFRkdISUpTVFVWV1hZWmNkZWZnaGlqc3R1dnd4eXqDhIWGh4iJipKTlJWWl5iZmqKjpKWmp6ipqrKztLW2t7i5usLDxMXGx8jJytLT1NXW19jZ2uHi4+Tl5ufo6erx8vP09fb3+Pn6/8QAHwEAAwEBAQEBAQEBAQAAAAAAAAECAwQFBgcICQoL/8QAtREAAgECBAQDBAcFBAQAAQJ3AAECAxEEBSExBhJBUQdhcRMiMoEIFEKRobHBCSMzUvAVYnLRChYkNOEl8RcYGRomJygpKjU2Nzg5OkNERUZHSElKU1RVVldYWVpjZGVmZ2hpanN0dXZ3eHl6goOEhYaHiImKkpOUlZaXmJmaoqOkpaanqKmqsrO0tba3uLm6wsPExcbHyMnK0tPU1dbX2Nna4uPk5ebn6Onq8vP09fb3+Pn6/9oADAMBAAIRAxEAPwD3+iiigAooooAKKKKACiiigAooooAKKKKACiiigAooooAKKKKACiiigAooooAKKKKACiiigAooooAKKKKACiiigAooooAKKKKACiiigAooooAKKKKACiiigAooooAKKKKACiiigAooooAKKKKACiiigAooooAKKKKACiiigAooooAKKKKACiiigAooooAKKKKACiiigAooooAKKKKACiiigAooooAKKKKACiiigAooooAKKKKACiiigAooooAKKKKACiiigAooooAKKKKACiiigAooooAKKKKACiiigAooooAKKKKACiiigAooooAKKKKACiiigAooooAKKKKACiiigAooooAKKKKACiiigAooooAKKKKACiiigAooooAKKKKACiiigAooooAKKKKACiiigAooooAKKKKACiiigAooooAKKKKACiiigAooooAKKKKACiiigAooooAKKKKACiiigAooooAKKKKACiiigAooooAKKKKACiiigAooooAKKKKACiiigAooooAKKKKACiiigAooooAKKKKACiiigAooooAKKKKACiiigAooooAKKKKACiiigAooooAKKKKACiiigAooooAKKKKACiiigAooooAKKKKACiiigAooooAKKKKACiiigAooooAKKKKACiiigAooooAKKKKACiiigAooooAKKKKACiiigAooooAKKKKACiiigAooooAKKKKACiiigAooooAKKKKACiiigAooooAKKKKACiiigAooooAKKKKACiiigAooooAKKKKACiiigAooooAKKKKACiiigAooooAKKKKACiiigAooooAKKKKACiiigAooooAKKKKACiiigAooooAKKKKACiiigAooooAKKKKACiiigAooooAKKKKACiiigAooooAKKKKACiiigAooooAKKKKACiiigAooooAKKKKACiiigAooooAKKKKACivMfiX8XrXwRM2l2MK3msFA5R8+XCDjG/GCSRzgH0rzD/ho/wAWf9AzRf8Av1L/APHKAPp2ivnrw1+0XezatFD4j06zjspGCtNZq4aL/aILNuHTpg9etfQME0dxBHNE4eORQ6Op4YEZBFAElFFFABRRRQAUUUUAFFFFABRRRQAUUUUAFFFFABRRRQAUUUUAFFFFABRRRQAUUUUAFFFFABRRRQAUUUUAFFFFABRRRQAUUUUAFFFFABRRRQAUUUUAFFFFABRRRQAUUUUAFFFFABRRRQAUUUUAFFFFABRRRQAUUUUAFFFFABRRRQAUUUUAFFFFABRRRQAUUUUAFFFFABXnHxC+Lui+DVnsLdvtutKny26DKRk9N7dvXA5+mc11njDVptB8HavqtsoM9ravJGD03AcV8Pz3EtzM80ztJLIxd3Y5LE8kk+tAE2p6jdavqdzqF7KZbm4kMkjnuSaq0UUAFfZHwlvhf/C/QZVVkCQGHBPXYxQn8dua+N6+lv2c9RWbwlqOnkIGt7zzB83zEOo7eny0Ae00UUUAFFFFABRRRQAUUUUAFFFFABRRRQAUUUUAFFFFABRRRQAUUUUAFFFFABRRRQAUUUUAFFFFABRRRQAUUUUAFFFFABRRRQAUUUUAFFFFABRRRQAUUUUAFFFFABRRRQAUUUUAFFFFABRRRQAUUUUAFFFFABRRRQAUUUUAFFFFABRRRQAUUUUAFFFFABRRRQAUUUUAcp8TP+SZ+Iv+vGT+VfFdfc/iuCK58IazFMivG1lNlWHB+QmvhpuKAG0UUUAFes/ADXxpfjqTTZGAh1OHyxnH+sX5l/TcMe/tXk1e6fs7eGIrq+v/ABFdQh/s2ILUsvAc8swyOoGBkHjJ9aAPouiiigAooooAKKKKACiiigAooooAKKKKACiiigAooooAKKKKACiiigAooooAKKKKACiiigAooooAKKKKACiiigAooooAKKKKACiiigAooooAKKKKACiiigAooooAKKKKACiiigAooooAKKKKACiiigAooooAKKKKACiiigAooooAKKKKACiiigAooooAKKKKACiiigBsiJJEySKGRgQysMgj0NfC3iPSJ9B8Q3+l3GfMtZ3jzjG4A8HHuOa+6iQRjNeAftCeEIsW3iyB40c7bW5jJALnnaw9SBkH2x6GgDwCilPWkoAK+uPgbbxRfCjS5I0CvNJO8hH8TCVlyfwUD8K+R6+p/wBn++a6+HAt3mVzaXksaoCMohwwz9SzHmgD1iikyDS0AFFFFABRRRQAUUUUAFFFFABRRRQAUUUUAFFFFABRRRQAUUUUAFFFFABRRRQAUUUUAFFFFABRRRQAUUUUAFFFFABRRRQAUUUUAFFFFABRRRQAUUUUAFFFFABRRRQAUUUUAFFFFABRRRQAUUUUAFFFFABRRRQAUUUUAFFFFABRRRQAUUUUAFFFFABRRRQAhOBWL4j8WaN4T0/7brN4lvGxwi9WkPXCqOTTPFHi3SPCOmG+1e7WFDkRoOXlYDO1R3P6V8ieOvGV7428Ry6ndAxRAbLeAMWESDoPqepPGTQB6v4h/aNY7o/D2jbeOJ71snp/cXjr/tflXjWu+Kda8TXn2rWdQmu5R90OcKv+6o4H4CsfJooACcmiiigArpfB3jnWvBOo/atKuMRSEefbuMxzAHoR2PuOa5qigD6k8HfHfQdbaO01mP8Asq9YhQzNuhcn/a/h/Hj39PWFlV1DKQwPQg5Br4Eyc5zXp3ww+LF94Ru4tP1WaW50NyE2E5a25+8ntzyv5e4B9YUVT03U7PV7GO90+6hurWTOyWFwynt1FXKACiiigAooooAKKKKACiiigAooooAKKKKACiiigAooooAKKKKACiiigAooooAKKKKACiiigAooooAKKKKACiiigAooooAKKKKACiiigAooooAKKKKACiiigAooooAKKKKACiiigAooooAKKKKACiiigAooooAKKKKACiiigAooooAKKKKACquo6hBpmnXV9cuFht4mlckgYCjJ5NPvLy30+zmu7qVYreFGkkkc4CKBkk18xfFX4uy+Lc6RobyQaOP9a7fK1yfcdlHp36ntQBw/jXxff+NPEM+p3sj+XuK20BORBHnhR/U9zXOUUUAFFFFABRRRQAUUUUAFFFFAHUeDvHeteC9QWfTblvs7MPPtXOY5QOxHY+45r7B8M67beJvDtjrNoGWG7iDhW6oc4ZT7ggj8K+Fx1r6d/Z21T7V4LvdPZk3Wd0SFDZYK4yCR2GQ2PoaAPYaKKKACiiigAooooAKKKKACiiigAooooAKKKKACiiigAooooAKKKKACiiigAooooAKKKKACiiigAooooAKKKKACiiigAooooAKKKKACiiigAooooAKKKKACiiigAooooAKKKKACiiigAooooAKKKKACiiigAooooAKKKKACiiigAooooA8w+Pc8sHwymEUrx+ZdRI+1iNy85B9RwK+UMmvpz9oy7lg8E6fAhHlz3wDgjrhGI/WvmInJzQAUUUUAFFFFABRRRQAUUUUAFFFFABXuH7N2oiLW9c04qMz28cwctjGxiMAd8+Zn8K8PrufhBq39kfE3R3JPl3Mn2V8Lk/vBtH/j238KAPsUdKWkHSloAKKKKACiiigAooooAKKKKACiiigAooooAKKKKACiiigAooooAKKKKACiiigAooooAKKKKACiiigAooooAKKKKACiiigAooooAKKKKACiiigAooooAKKKKACiiigAooooAKKKKACiiigAooooAKKKKACiiigAooooAKKKKACiiigDw/8AaTu4l0LQ7I7vNluZJl442quD+rj9a+cDXv37TP3/AAx9Lr/2lXgNABRRRQAUUUUAFFFFABRRRQAUUUUAFWdOvJNP1G2vYmZZLeVZVKNtIKnIwe3Sq1KDQB96aZexalpdpfQsrRXMKSoVbIIYAjB79atVyPwuvv7Q+GPh6fy9m20EOM5/1ZMefx25/GuuoAKKKKACiiigAooooAKKKKACiiigAooooAKKKKACiiigAooooAKKKKACiiigAooooAKKKKACiiigAooooAKKKKACiiigAooooAKKKKACiiigAooooAKKKKACiiigAooooAKKKKACiiigAooooAKKKKACiiigAooooAKKKKACiiigD5+/aZ+/4Y+l1/7SrwGvfv2mfv8Ahj6XX/tKvAaACiiigAooooAKKKKACiiigAooooAKUDNJVzS7KTUtUtbGEM0tzMkKKoySWIHH50AfX/wltJrL4WaBFOm1zbmQDIPyu7Op49QwNdpVewtI7DTraziVVjgiWJQq4ACjAwB06VYoAKKKKACiiigAooooAKKKKACiiigAooooAKKKKACiiigAooooAKKKKACiiigAooooAKKKKACiiigAooooAKKKKACiiigAooooAKKKKACiiigAooooAKKKKACiiigAooooAKKKKACiiigAooooAKKKKACiiigAooooAKKKKACiiigDwP8AaXt5Wh8N3AQ+SjXCM/YMwjIH4hW/Kvnw8Gvpv9o23kl8G6bKqExxXw3sOi5RgM/jXzIetABRRRQAUUUUAFFFFABRRRQAUUUUAFejfBHRF1j4k2ckkZeGwRrpvlyAy8Ln0+Yg/UV5yOTX0H+zfoRWHWdcljwJClrA2SOBln9iM7OfY/iAe9r90UtAGBRQAUUUUAFFFFABRRRQAUUUUAFFFFABRRRQAUUUUAFFFFABRRRQAUUUUAFFFFABRRRQAUUUUAFFFFABRRRQAUUUUAFFFFABRRRQAUUUUAFFFFABRRRQAUUUUAFFFFABRRRQAUUUUAFFFFABRRRQAUUUUAFFFFABRRRQAUUUUAFFFFAHKfEnw8fE/gPVNOjj33HlebbgDJ8xPmUD64x+NfFroyOyshVlOCpGCDX34QT3rwv44fDa1k0648W6VCY7qIhr2KNeJFPBkx2I7+3J6ZoA+daKKKACiiigAooooAKKKKACiiigDS0LQtR8R6xb6Xplu091O2FA6AdyT2A7mvtLwj4dg8KeGLHRrcLi3jAdx/G55ZvxOa80/Z/8Iw6f4dfxJcRq11fkpAxAJjiUkHHplgc+wFezUAFFFFABRRRQAUUUUAFFFFABRRRQAUUUUAFFFFABRRRQAUUUUAFFFFABRRRQAUUUUAFFFFABRRRQAUUUUAFFFFABRRRQAUUUUAFFFFABRRRQAUUUUAFFFFABRRRQAUUUUAFFFFABRRRQAUUUUAFFFFABRRRQAUUUUAFFFFABRRRQAUUUUAFV72zhv7K4tJ13RTxtG49QRg1YooA+Cb+1ay1C5tXjeN4ZWjZJBhlIJGCPWq1d98YdCfRPiPqeISkF4/2qJgGw2/luT1+bd06VwPSgAooooAKKKKACiiigAoop0UbSypGn3nYKPqaAPuTwrZx2HhTR7SEt5UNnEi7jk4CCtmqumQPa6TZ28oAkigRGwc8hQDVqgAooooAKKKKACiiigAooooAKKKKACiiigAooooAKKKKACiiigAooooAKKKKACiiigAooooAKKKKACiiigAooooAKKKKACiiigAooooAKKKKACiiigAooooAKKKKACiiigAooooAKKKKACiiigAooooAKKKKACiiigAooooAKKKKACiiigAooooA474ieBLTxz4da0lJjvIcyWkw/gfHQ+oPQ18c39nPp2oXFldJsuLeRopUyDtZSQRke4r72PSvjT4sqq/FPXwoAH2gHAH+wtAHGUUUUAFFFFABRRRQAVqeG7H+0/E2lWPmeX9pvIod+M7dzgZx361l16T8ENAGtfES2nlQNBpyG6bIBG4cJ1/2iD+Ge1AH1tRQOlFABRRRQAUUUUAFFFFABRRRQAUUUUAFFFFABRRRQAUUUUAFFFFABRRRQAUUUUAFFFFABRRRQAUUUUAFFFFABRRRQAUUUUAFFFFABRRRQAUUUUAFFFFABRRRQAUUUUAFFFFABRRRQAUUUUAFFFFABRRRQAUUUUAFFFFABRRRQAUUUUAFFFFABRRRQAhGRXyD8arL7F8U9V/eb/OEc3TGMoOP0r6/r5L+PH/JU7z/r3h/9AFAHmlFFFAChSRmgqQM16V8GfAyeLvEzXV9Hv0zT8SSoy5WVyflQ+3Un6Y71Y+NXgGPwnrqalpsKx6Vfk7I0GFhkA5Uc9D1H4jtQB5ZRRRQAq9a+o/gBpVha+A31GBxJd3k7C5bbgpsOFTPfg7v+BV8t19C/s36z5lnrWiySfNG6XMSmTscq2F9iFyf9oUAe9UUUUAFFFFABRRRQAUUUUAFFFFABRRRQAUUUUAFFFFABRRRQAUUUUAFFFFABRRRQAUUUUAFFFFABRRRQAUUUUAFFFFABRRRQAUUUUAFFFFABRRRQAUUUUAFFFFABRRRQAUUUUAFFFFABRRRQAUUUUAFFFFABRRRQAUUUUAFFFFABRRRQAUUUUAFFFFABXyX8eP8Akqd5/wBe8P8A6AK+sycDNfJXx1dX+Kd9tYHEEIODnB2DigDzaiiigD6c/Z0iRfAV9MqKJH1F1ZwvJAjjwCfbJ/M1b/aDsprn4arMm3Za30UsmT/CQycfi4/WrXwFs4rf4W2s0eQ9zczSyZPVg2z+SCp/jp/ySfU/+usH/o1aAPkeiiigAr1n9nq9W3+IU1uVJa6sZEUjthlbJ/BTXk1ejfA67itPijp/mbszRywpgfxFCefyoA+uaKKKACiiigAooooAKKKKACiiigAooooAKKKKACiiigAooooAKKKKACiiigAooooAKKKKACiiigAooooAKKKKACiiigAooooAKKKKACiiigAooooAKKKKACiiigAooooAKKKKACiiigAooooAKKKKACiiigAooooAKKKKACiiigAooooAKKKKACiiigBG6V8Y/FOeO4+J+vvFIrqLnZlTkZUAEfgQR+FfZzdK+FPEd6upeJ9VvlQotzeTTBCclQzk4/WgDMoopRwaAPrj4F/8kn0v/rpP/wCjWpPjp/ySfU/+usH/AKNWrfwbsmsvhXoys4bzVeYYGMBnY4/WrnxTsf7Q+GeuwiHzmW2MqrjOCpDZ/DGfwoA+MKKVuDSUAFdt8If+Sq6B/wBdn/8ARbVxNdz8H4nf4qaEyIzBZXLYGcDy25NAH2NRRRQAUUUUAFFFFABRRRQAUUUUAFFFFABRRRQAUUUUAFFFFABRRRQAUUUUAFFFFABRRRQAUUUUAFFFFABRRRQAUUUUAFFFFABRRRQAUUUUAFFFFABRRRQAUUUUAFFFFABRRRQAUUUUAFFFFABRRRQAUUUUAFFFFABRRRQAUUUUAFFFFABRRRQAUUUUAc9448QQeF/B2parNJsMcRWLBwzSNwoHvkj9T2r4jdi7lmOS3JNe4/tGeI3l1PTfDsMp8uCP7TcKDwXbhQfoAT/wKvDKACiigDPSgD7P+Ff/ACS/w9/16D+ZrpdTsY9T0q7sJiwiuoXhcoeQrAg49+a5v4WAj4X+Hs/8+g/ma65hkYoA+FPEOi3Xh3XrzSL1SJ7WQxtxjcOzD2IwfxrMr6Z+O3gS31LQZPFFrGkd/YqPtBAx50XA556r/Livmc8k0AJXofwSvVs/ijpoKFjOskIwemUJz+leeV1Pw5vZLD4i+Hpogm430UR3DIw7bD+jGgD7WooooAKKKKACiiigAooooAKKKKACiiigAooooAKKKKACiiigAooooAKKKKACiiigAooooAKKKKACiiigAooooAKKKKACiiigAooooAKKKKACiiigAooooAKKKKACiiigAooooAKKKKACiiigAooooAKKKKACiiigAooooAKKKKACiiigAooooAKKKKAPkf45XUV18Ur/AMpifKjiifIxhggJ/nXnFdt8Xf8Akquvj/psv/ota4mgApy9abU1rby3d1FbwoXllcIijqzE4AoA+4vCkTw+ENFilRkkSxgVkYYKkRjII7GtemxjEag9hTqAOb8f2cd/4A1+CUsE+wSv8vXKqWH6gV8SV95avZx6ho97ZTFhFc28kL7Tg7WUg4P0NfBtABV/Rbuax1zT7q3bZNDcxyRtgHDBgQcHjqKoVYsP+Qjbf9dU/mKAPvcdKKKKACiiigAooooAKKKKACiiigAooooAKKKKACiiigAooooAKKKKACiiigAooooAKKKKACiiigAooooAKKKKACiiigAooooAKKKKACiiigAooooAKKKKACiiigAooooAKKKKACiiigAooooAKKKKACiiigAooooAKKKKACiiigAooooAKKKKACiiigD5D+NotB8UdT+y4yRGZsEn95sGevtjpXnldZ8TL3+0PiT4gnEezbePFjOfufJn8dufxrk6ADrXT/D/AEW91zxzpNrZRF2juEnkbHCIjAsxPYf1IHeuYHWvrj4Q+A7fwp4Wgu7i326xexiS4dx8yKeRHg9MDGR69elAHoy9KWkAwKWgCOYZicDqVNfBE8EtrcS28yFJYnKOp7MDgivvlq+GvFlvLaeL9ZgnQpIt7NlT2+cmgDHqa1kWK8gkf7qSKx+gNQ0UAffVvOl1bRXERJjlQOpIxwRkVLVDQ/8AkAab/wBesX/oIq/QAUUUUAFFFFABRRRQAUUUUAFFFFABRRRQAUUUUAFFFFABRRRQAUUUUAFFFFABRRRQAUUUUAFFFFABRRRQAUUUUAFFFFABRRRQAUUUUAFFFFABRRRQAUUUUAFFFFABRRRQAUUUUAFFFFABRRRQAUUUUAFFFFABRRRQAUUUUAFFFFABRRRQAUUVQ1m/XTdFv70yJH9nt3k3ucKCFJ5oA+INevJNQ17Ubyfb51xdSSuVGBlmJOB+NZ1STSmaV5Gxl2LHHqajoAv6HbxXfiDTbadd8M11FG65IypYAjj2r7tRdoAAwAMV8L+Gv+Rp0j/r9h/9DFfdQoAWiiigAwDXxV8S/wDkpniP/r+k/nX2rXxV8TP+SmeI/wDr+k/nQBytFFFAH3hof/IA03/r1i/9BFX6ztBdX8P6aVIINrFgjoflFaNABRRRQAUUUUAFFFFABRRRQAUUUUAFFFFABRRRQAUUUUAFFFFABRRRQAUUUUAFFFFABRRRQAUUUUAFFFFABRRRQAUUUUAFFFFABRRRQAUUUUAFFFFABRRRQAUUUUAFFFFABRRRQAUUUUAFFFFABRRRQAUUUUAFFFFABRRRQAUUUUAFFFFABXkXx78WJpHhP+w7e4232pEBkU/MIB94n0BIx78+9d/4x8TW3hHwxd6zdciFcRx95HPCqOfX9Aa+NPEPiDUfEusT6nqlw01zKf8AgKDsqjsB6UAZNFFFAGp4a/5GnSP+v2H/ANDFfdQr4o+HMMc/xG8PxSxrIjX0eVYZB5r7WUYoAdRRRQAV8VfEz/kpniP/AK/pP519q18V/Ewf8XM8Rf8AX9J/OgDlKKKKAPtL4ZXMV38NvDskDh0WxjjJwR8yDaw59CpH4V1tfKvwt+Lkvg5RpGrLJc6Ozfu9vL2xJ5I9V5JI9env9Qafe22pWMN7ZzpPbToHjljOVZT3FAFqiiigAooooAKKKKACiiigAooooAKKKKACiiigAooooAKKKKACiiigAooooAKKKKACiiigAooooAKKKKACiiigAooooAKKKKACiiigAooooAKKKKACiiigAooooAKKKKACiiigAooooAKKKKACiiigAooooAKKKKACiiigAooooAKKKKAPCf2lNRuYbDQNPSQi2uHmllQH7zIEC5+m8187E5Oa+gP2mUcjwy4Vtg+0gtjgE+Vgfofyr5/oAKKUDJr0/wCGXwiuvGgGp6i0lpo6MNrAfPcEHkL6D/a/LPOACv8ABbwrf6748stRhXbZaZKs9xMegPJVR7kj8Bk19b1m6HoWm+HdKg03S7VLe2hXAVRyfcnuT61pUAFFFFABXyf8cfDFxonjy51ERH7Dqf76KTOfnwN6/XPP0YV9YVl694e0rxLpkmn6tZRXUDg4Dryhxjcp6qeeooA+FKK9c+JHwWufC0E2saI8l5pScyxPzLbjuSQPmX36jv615IRzxQADqK+jv2b9WurnR9a0uVg1tZyRSw+qmTfuH0+Qfma+cORzX0t+zcP+KS1c45+3AZ/7ZrQB7TRRRQAUUUUAFFFFABRRRQAUUUUAFFFFABRRRQAUUUUAFFFFABRRRQAUUUUAFFFFABRRRQAUUUUAFFFFABRRRQAUUUUAFFFFABRRRQAUUUUAFFFFABRRRQAUUUUAFFFFABRRRQAUUUUAFFFFABRRRQAUUUUAFFFFABRRRQAUUUUAFFFFAGX4g8P6f4m0efS9TgWa2mGD/eQ9mU9iPWvGh+zXblnz4lkC7vkxaAnHv83WveaKAPHtI/Z38NWUkUuo399qDoxLJlYo39AQAW/8er1u2t4rS3jt4IkihjUJHGgwqqBgADsKmooAKKKKACiiigAooooAbIgkQowDKeCCMgj0rzDWvgL4Q1a9a6hF5pxbrHaSKI8+u1lOPoMV6jRQB4Mf2a7cMmPEsjLu+cG0AOPb5utey+H9A0/wzo8Ol6ZAsNtCMD+857sx7k+talFABRRRQAUUUUAFFFFABRRRQAUUUUAFFFFABRRRQAUUUUAFFFFABRRRQAUUUUAFFFFABRRRQAUUUUAFFFFABRRRQAUUUUAFFFFABRRRQAUUUUAFFFFABRRRQAUUUUAFFFFABRRRQAUUUUAFFFFABRRRQAUUUUAFFFFABRRRQAUUUUAFFFFABRRRQAUUUUAFFFFABRRRQAUUUUAFFFFABRRRQAUUUUAFFFFABRRRQAUUUUAFFFFABRRRQAUUUUAFFFFABRRRQAUUUUAFFFFABRRRQAUUUUAFFFFABRRRQAUUUUAFFFFABRRRQAUUUUAFFFFABRRRQAUUUUAFFFFABRRRQAUUUUAFFFFABRRRQAUUUUAFFFFABRRRQAUUUUAFFFFABRRRQAUUUUAFFFFABRRRQAUUUUAFFFFABRRRQAUUUUAFFFFABRRRQAUUUUAFFFFABRRRQAUUUUAFFFFABRRRQAUUUUAFFFFABRRRQAUUUUAFFFFABRRRQAUUUUAFFFFABRRRQAUUUUAFFFFABRRRQAUUUUAFFFFABRRRQAUUUUAFFFFABRRRQAUUUUAFFFFABRRRQAUUUUAFFFFABRRRQAUUUUAFFFFABRRRQAUUUUAFFFFABRRRQAUUUUAFFFFABRRRQAUUUUAFFFFABRRRQAUUUUAFFFFABRRRQAUUUUAFFFFABRRRQAUUUUAFFFFABRRRQAUUUUAFFFFABRRRQB//2Q==;" parent="1" vertex="1">
          <mxGeometry x="1400" y="20" width="640" height="480" as="geometry" />
        </mxCell>
        <mxCell id="nYYT95ApVnNXHSg36jaL-7" value="" style="shape=image;verticalLabelPosition=bottom;labelBackgroundColor=default;verticalAlign=top;aspect=fixed;imageAspect=0;image=data:image/jpeg,/9j/4AAQSkZJRgABAQEAZABkAAD/2wBDAAgGBgcGBQgHBwcJCQgKDBQNDAsLDBkSEw8UHRofHh0aHBwgJC4nICIsIxwcKDcpLDAxNDQ0Hyc5PTgyPC4zNDL/2wBDAQkJCQwLDBgNDRgyIRwhMjIyMjIyMjIyMjIyMjIyMjIyMjIyMjIyMjIyMjIyMjIyMjIyMjIyMjIyMjIyMjIyMjL/wAARCAHgAoADASIAAhEBAxEB/8QAHwAAAQUBAQEBAQEAAAAAAAAAAAECAwQFBgcICQoL/8QAtRAAAgEDAwIEAwUFBAQAAAF9AQIDAAQRBRIhMUEGE1FhByJxFDKBkaEII0KxwRVS0fAkM2JyggkKFhcYGRolJicoKSo0NTY3ODk6Q0RFRkdISUpTVFVWV1hZWmNkZWZnaGlqc3R1dnd4eXqDhIWGh4iJipKTlJWWl5iZmqKjpKWmp6ipqrKztLW2t7i5usLDxMXGx8jJytLT1NXW19jZ2uHi4+Tl5ufo6erx8vP09fb3+Pn6/8QAHwEAAwEBAQEBAQEBAQAAAAAAAAECAwQFBgcICQoL/8QAtREAAgECBAQDBAcFBAQAAQJ3AAECAxEEBSExBhJBUQdhcRMiMoEIFEKRobHBCSMzUvAVYnLRChYkNOEl8RcYGRomJygpKjU2Nzg5OkNERUZHSElKU1RVVldYWVpjZGVmZ2hpanN0dXZ3eHl6goOEhYaHiImKkpOUlZaXmJmaoqOkpaanqKmqsrO0tba3uLm6wsPExcbHyMnK0tPU1dbX2Nna4uPk5ebn6Onq8vP09fb3+Pn6/9oADAMBAAIRAxEAPwD3+iiigAooooAKKKKACiiigAooooAKKKKACiiigAooooAKKKKACiiigAooooAKKKKACiiigAooooAKKKKACiiigAooooAKKKKACiiigAooooAKKKKACiiigAooooAKKKKACiiigAooooAKKKKACiiigAooooAKKKKACiiigAooooAKKKKACiiigAooooAKKKKACiiigAooooAKKKKACiiigAooooAKKKKACiiigAooooAKKKKACiiigAooooAKKKKACiiigAooooAKKKKACiiigAooooAKKKKACiiigAooooAKKKKACiiigAooooAKKKKACiiigAooooAKKKKACiiigAooooAKKKKACiiigAooooAKKKKACiiigAooooAKKKKACiiigAooooAKKKKACiiigAooooAKKKKACiiigAooooAKKKKACiiigAooooAKKKKACiiigAooooAKKKKACiiigAooooAKKKKACiiigAooooAKKKKACiiigAooooAKKKKACiiigAooooAKKKKACiiigAooooAKKKKACiiigAooooAKKKKACiiigAooooAKKKKACiiigAooooAKKKKACiiigAooooAKKKKACiiigAooooAKKKKACiiigAooooAKKKKACiiigAooooAKKKKACiiigAooooAKKKKACiiigAooooAKKKKACiiigAooooAKKKKACiiigAooooAKKKKACiiigAooooAKKKKACiijIFABRXP3njnwpYTtBdeItMhlUAlHuUBH61mv8VPBKahHZnxLYmR13Bg+YwOergbQeOhOenrQB2VFYFl438LajKYrTxDpk0gXcVS5QnHr1963UkSRFdGVlYZDKcgj1oAdRRRQAUUUUAFFFFABRRRQAUUUUAFFFFABRRRQAUUUUAFFFFABRRRQAUUUUAFFFFABRRRQAUUUUAFFFFABRRRQAUUUUAFFFFABRRRQAUUUUAFFFFABRRRQAUUUUAFFFFABRRRQAUUUUAFFFFABRRRQAUUUUAFFFFABRRRQAUUUUAFFFFABRRRQAUUUUAFFFFABRRRQAE4rwL4+eP7u1uY/CmmTvCrRCS9dchjn7qA+mOTjrkD1Fey+KPEVj4U8P3OsaixEEAHyryzseAq+5P8AnFfFXiDWbnxBr17q14cz3UpkYDouegHsBgfhQBnFs0lFFACg8V7Z8AvGuox+I18LXEjTWFzHJJCGOTC6jccHspAPHrg+ufEq9A+Ct1FafFXSGmbaHEsS8E5Zo2AHHvQB9f0UgOaWgAooooAKKKKACiiigAooooAKKKKACiiigAooooAKKKKACiiigAooooAKKKKACiiigAooooAKKKKACiiigAooooAKKKKACiiigAooooAKKKKACiiigAooooAKKKKACiiigAooooAKKKKACiiigAooooAKKKKACiiigAooooAKKKKACiiigAooooAKKKKACiiigDxP9pBXbwro7KrFFvDuIHA+Q4zXzZX1b8frWWb4Zu8aMyw3kTyEfwryuT+LAfjXykRigAooooAK6/4Wf8lQ8Pf9fY/ka5Cu3+ENnLefFLQ1iKgxStM244+VVJP44FAH2OKWkU5zS0AFFFFABRRRQAUUUUAFFFFABRRRQAUUUUAFFFFABRRRQAUUUUAFFFFABRRRQAUUUUAFFFFABRRRQAUUUUAFFFFABRRRQAUUUUAFFFFABRRRQAUUUUAFFFFABRRRQAUUUUAFFFFABRRRQAUUUUAFFFFABRRRQAUUUUAFFFFABRRRQAUUUUAFFFFABRRRQAUUUUAcf8VLKO/+GHiCGUsFW1Mw2nnchDj8MqK+MW61983EMdxbyQyoHjkUq6noQRgivhzxRpLaF4p1PSiGAtbl413DBKgnafxGD+NAGRRRRQAV6p+z/Ypd/ExZi5U2lnLMAB97OEx/4/n8K8rr3v8AZu0vdea1qzJH8kaWyN/EMks34HA/KgD6EooooAKKKKACiiigAooooAKKKKACiiigAooooAKKKKACiiigAooooAKKKKACiiigAooooAKKKKACiiigAooooAKKKKACiiigAooooAKKKKACiiigAooooAKKKKACiiigAooooAKKKKACiiigAooooAKKKKACiiigAooooAKKKKACiiigAooooAKKKKACiik3D1oAWiuC+IPxT0bwKgt3zeaqy7ktI2xgZ6u38I/U/rXges/G3xrq0swh1IWFs5+WG1jVSoB4+cgtn155oA+rb/UbTTLOS7v7qG2toxl5ZnCqPxNfG3xH1+y8T+O9S1XTofLtZWAQlcGTaAN5HvjNYmo6zqerSM9/qF1dEuX/AH0pYbj1OD0qhQAUUUUAFfX3wY0VtE+G2nLJF5c94Wu5Pvc7j8uQenyhfbivlTw/pq6x4g0/TnlWJbq4SJnZgoUE8nJ4r7ltoIraCK3hRUiiQIiKOFUDAA/CgCeiiigAooooAKKKKACiiigAooooAKKKKACiiigAooooAKKKKACiiigAooooAKKKKACiiigAooooAKKKKACiiigAooooAKKKKACiiigAooooAKKKKACiiigAooooAKKKKACiiigAooooAKKKKACiiigAooooAKKKKACiiigAooooAKKKKACiiigAooqnquqWejabPqF/cpb2sC7pJHOAB/U+g70AGp6pZaPp81/qFxHb2sK7pJZDgKP8fbvXz/44+Pt5cSy2XhOP7PbglTezIDI3J5RTkAEY5PP0rjfiZ8TL3x1qXlRF7fR4GPkW5PLn++/qfbtn6mvP8npQBPe3tzqN5Ld3k8k9zK26SWRizMfUk1XoooAKKKKACiiigBwbAr6c+Bfjy48RabPoepzGa/sFDRTOw3SQ9AD3JU8Z9CM+/wAw10vgPxU/g7xhY6zsaWKIlJo1OC0bDDAe/ce4FAH21RWfomtWHiDSYNT025S4tZhlHU/mD6EdCK0KACiiigAooooAKKKKACiiigAooooAKKKKACiiigAooooAKKKKACiiigAooooAKKKKACiiigAooooAKKKKACiiigAooooAKKKKACiiigAooooAKKKKACiiigAooooAKKKKACiiigAooooAKKKKACiiigAooooAKKKKACiiigAooooAKKKKAGswAOa+Yfjb8Rf7f1ZvD+l3G7SrRv3rxkFbiUd8+i9Prk+ldB8cviRc294/hXR7iSBo8NezxSFS25T+647YIJ+uPWvASc0ABOTSUUUAFFFFABRRRQAUUUUAFA4NFFAHV+BvHeqeCNYS6s5GktGOLi0ZjslXv9G9D/TNfZtncx3tlBdwkmKeNZEJGDhhkfzr4IBxX234AvJb/wCH2gXM23zJLGLO0YHC4/pQB0dFFFABRRRQAUUUUAFFFFABRRRQAUUUUAFFFFABRRRQAUUUUAFFFFABRRRQAUUUUAFFFFABRRRQAUUUUAFFFFABRRRQAUUUUAFFFFABRRRQAUUUUAFFFFABRRRQAUUUUAFFFFABRRRQAUUUUAFFFFABRRRQAUUUUAFFFFABRRRQAVx/jv4h6N4J0uWW5uI5dQ24hskceY7EcZH8K+pP+FXvHevt4Y8E6pq0RQTwwkQ72wN54X68nOO+K+K9QvrrUr6a9vZ5J7mZi8kshyzE0AO1PUrrV9UutRvZPMubmRpZWxjLE5PAqpRRQAUUUUAFFFFABRRRQAUUUUAFFFFABX1V8CfFCa14Gj0uR83elN5LAkcxkkocewyv/AetfKtdH4L8YXvgrxFBqtkN4A2TQFiFlQ9VOP09DigD7cyKKoaNqcGtaRZ6nakmC6hWZMjBwwzV+gAooooAKKKKACiiigAooooAKKKKACiiigAooooAKKKKACiiigAooooAKKKKACiiigAooooAKKKKACiiigAooooAKKKKACiiigAooooAKKKKACiiigAooooAKKKKACiiigAooooAKKKKACiiigAooooAKKKKACiiigAooooA8l/aD1FrT4dR2qmP/TL2ONg33tqhnyPxVR+NfLVfTf7RNh5/gWxvFgLvbX65kwfkRkYH8CwT9K+ZKACiijrQAUUu0+lJQAUUUUAFFFFABRRRQAUUUUAFA6iigdRnpQB9V/ALWBqHw7WxYqZNPuJIuAc7WO8ZJ92I47AV6pXj/wCztp7W/gi8vWJ/0q8bapXHCqBkHvySPwr2CgAooooAKKKKACiiigAooooAKKKKACiiigAooooAKKKKACiiigAooooAKKKKACiiigAooooAKKKKACiiigAooooAKKKKACiiigAooooAKKKKACiiigAooooAKKKKACiiigAooooAKKKKACiiigAooooAKKKKACiiigAooooA4v4p+HbvxN8PdS0+wwbnCzIhB+fYQ20Y7nGB74r42kjaKRo3Uq6nDKwwQfSvv3Ga898e/CbQfGMMtxHAtjq2GZLqBQPMbniQfxDPfr70AfIVKDirGoWFzpeo3FheRGG5t5DHLGeqsDgiq1AGrc3WlSeH7G3gsZo9TikkNxcmUFJVONoC44I+v554yqK7j4Z+BYfHms31jNcvbiCzeZGTHL5AXOQeMnn+dAHD0Vb1PT59J1O6066ULc2szwyhTkBlJBwe/IqpQAUUUUAFFFFABRRRQAUDrRXT+APDh8U+NdL0zaDE8oknycfu1+ZvzAx+NAH1X8MtJOifDrRLFwwkFsJXDMDhpCXIyO2W4rraYoxT6ACiiigAooooAKKKKACiiigAooooAKKKKACiiigAooooAKKKKACiiigAooooAKKKKACiiigAooooAKKKKACiiigAooooAKKKKACiiigAooooAKKKKACiiigAooooAKKKKACiiigAooooAKKKKACiiigAooooAKKKKACiiigAooooA8e+LfwkbxTK+u6EqjVyAJ4WbC3CgYBBPRgB9CBXzTe2N1p13Ja3tvJb3EZw8UqlWXvyDX3qVzmvFf2gPB41DQ4PEtrGPtFj+7ucdXiJ4P4MfyY+lAHzZVyw1S90q4+0afdTWs+0p5kLlGwRgjI9jVQjBpKAHO5kcuxJYnJJOSTTaKKACiiigAooooAKKKKACvdP2btLEmr6zqzLJ+5gS3Rs/KdzbmH1+RfzNeF19Rfs96aLXwBLeNCyveXjsHJ4dFAUEfjuH4UAeu0UUUAFFFFABRRRQAUUUUAFFFFABRRRQAUUUUAFFFFABRRRQAUUUUAFFFFABRRRQAUUUUAFFFFABRRRQAUUUUAFFFFABRRRQAUUUUAFFFFABRRRQAUUUUAFFFFABRRRQAUUUUAFFFFABRRRQAUUUUAFFFFABRRRQAUUUUAFFFFABRRRQAVFcQx3FvJDLGskUilHRhkMpGCCO4qWigD5b+LPwnl8Kzya1o0TSaNI2XjGS1qT2P8AsZ6Ht0Pv5Lg197XlnBqFnPaXUSy288bRSxt0ZWGCD+Br5m+InwT1Hw+0moeHkl1DTOWaIDdLBz0wOWGMcjng5oA8hopSMHBpKACiiigAooooAKKKKACvsr4T2Udj8L9AjiLFXt/OO455dix/DLGvjWvtT4Z/8kz8Of8AXjH/ACoA6uiiigAooooAKKKKACiiigAooooAKKKKACiiigAooooAKKKKACiiigAooooAKKKKACiiigAooooAKKKKACiiigAooooAKKKKACiiigAooooAKKKKACiiigAooooAKKKKACiiigAooooAKKKKACiiigAooooAKKKKACiiigAooooAKKKKACiiigAppHHFOooA+T/jj4RTw54z+3WkHl2OqBplwcgS5/eD25IOPf8AAeYV9lfFPwrH4s8DXtsAourZTc2zkdHUZx+IyPxz2r41PWgAooooAKKKKACiiigAr7J+E18l/wDC/QJI1ZVS38khuuUYoT9Mqa+Nq+rPgDdy3Pwziik27LW7mhjwP4Th+fxc0Aep0UUUAFFFFABRRRQAUUUUAFFFFABRRRQAUUUUAFFFFABRRRQAUUUUAFFFFABRRRQAUUUUAFFFFABRRRQAUUUUAFFFFABRRRQAUUUUAFFFFABRRRQAUUUUAFFFFABRRRQAUUUUAFFFFABRRRQAUUUUAFFFFABRRRQAUUUUAFFFFABRRRQAUUUUAFFFFADJAGBDAEEYIPevhzxbpEug+LdV0yblre5dQcAblzlTjJxkEHHvX3NXzN+0P4fh0/xTY6xBGqjUYWWXaOskeBk8d1ZfyNAHjNFFFABRRRQAUUUUAFfRH7Nt6jaXrljuYyJNHLjsFII/mtfO9erfATxENH8d/YJnC2+pxGHk4/eL8yHp/vDt972oA+qaKM0UAFFFFABRRRQAUUUUAFFFFABRRRQAUUUUAFFFFABRRRQAUUUUAFFFFABRRRQAUUUUAFFFFABRRRQAUUUUAFFFFABRRRQAUUUUAFFFFABRRRQAUUUUAFFFFABRRRQAUUUUAFFFFABRRRQAUUUUAFFFFABRRRQAUUUUAFFFFABRRRQAUUUUAFFFFABXlH7QGl/bvh79sWNmaxukkJBwFVvkJPryVH416vXF/Fay/tD4Y+IITJ5YS287OM58sh8fjtx+NAHxpRRRQAUUUUAFFFFABVmxvZtPv7e9tn2XFvKssb4ztZSCD+YqtRQB92aBqaazoVhqcZUrd26TfKCByoJxnnrWnXEfCK9kv/hdoU0iqrJC0IC+iOyA/XCiu3oAKKKKACiiigAooooAKKKKACiiigAooooAKKKKACiiigAooooAKKKKACiiigAooooAKKKKACiiigAooooAKKKKACiiigAooooAKKKKACiiigAooooAKKKKACiiigAooooAKKKKACiiigAooooAKKKKACiiigAooooAKKKKACiiigAooooAKKKKACsHxnZPqPgrXLNGCtNYzIGPQZQ1vVQ1z/kX9S/69Zf/AEA0AfB9FFFABRRXZ+EPhh4j8a2k13psUMdrG2zzrlyiu3cLgHOO9AHGYzRXv2kfs3ETbtX18GMEfJaQ8sO/LdD+BryTxt4PvfBPiObSrtjIg+eCcIVWVD0I/kfQigDnKKKUcEGgD6s+AFzLP8NVSRyywXkscY/urw2PzYn8a9SrxP8AZwvjJ4d1exaYHyblZFi7qGXr+JX9K9soAKKKKACiiigAooooAKKKKACiiigAooooAKKKKACiiigAooooAKKKKACiiigAooooAKKKKACiiigAooooAKKKKACiiigAooooAKKKKACiiigAooooAKKKKACiiigAooooAKKKKACiiigAooooAKKKKACiiigAooooAKKKKACiiigAooooAKKKKACqGuf8i/qX/XrL/wCgGr9UNc/5F/Uv+vWX/wBANAHwfRRRQBZ06xm1PUraxtl3T3EqxIPdjgdK+4vD+h2fh7Q7TSrGIR29vGEHAyx7scdSTyfrXx/8M/8Akpnh3/r+j/nX2pQAmBXkfx88M/2t4MTV41JuNLk3HCj5omwG5xng4Pp1r12uJ+Ll1Fa/C3XWmbaJIBEvBOWZgAPzoA+NzSUpGKSgD2/9m2+2eJdasNgIms1mL56bHxjHv5n6V9IV8wfs5yxx+Pr9XdVZ9NdVBOCx8yM4HrwDX0+DmgAooooAKKKKACiiigAooooAKKKKACiiigAooooAKKKKACiiigAooooAKKKKACiiigAooooAKKKKACiiigAooooAKKKKACiiigAooooAKKKKACiiigAooooAKKKKACiiigAooooAKKKKACiiigAooooAKKKKACiiigAooooAKKKKACiiigAooooAKoa5/wAi/qX/AF6y/wDoBq/VHWUaTQtQRFLO1tIFVRkk7TwKAPg6ilZSpIYEEHBB7UlAHV/DP/kpnh3/AK/o/wCdfalfFfwz/wCSmeHf+v6P+dfalABXJ/ErQJfEvw/1bTbcE3DRiWJQcbnQhgOh64xXWUjcigD4CYYOD1pK90+N3wzttLiuPF2muUSadftVsQNqlv41Pu2OPfPSvCz1oA9L+A//ACVOz/695v8A0A19ZgYr5K+BMiR/FOx3uq7oZlXccZOw8D3r62FABRRRQAUUUUAFFFFABRRRQAUUUUAFFFFABRRRQAUUUUAFFFFABRRRQAUUUUAFFFFABRRRQAUUUUAFFFFABRRRQAUUUUAFFFFABRRRQAUUUUAFFFFABRRRQAUUUUAFFFFABRRRQAUUUUAFFFFABRRRQAUUUUAFFFFABRRRQAUUUUAFFFFABRRRQAUHpRRQB8MeKtNbSPFer6e3mH7PeSxq0i4LKGOGx7jB/Gseu2+Lv/JVdf8A+uy/+i1riaAOo+HEscPxI8PSSuqIt9HlmOAOfWvtYHNfCnhsgeKdIJOAL2H/ANDFfdYxQAtFFFAHk37QuoG1+H0NorR7ry9RGVj8xRQzkr+Krz7+9fLJ619YfHLwqfEHglr+Fn+06VunVAMh0OA4IAJzgZ/A18nnqaANDQtXudB12y1WzYLPaSrKuehweQfYjIP1r7V8MeJLDxToFrq2nsDFOoLJuBaNu6NjoQa+Gq9A+FXxAfwR4h23Lk6TesqXShdxTHR19xnn1HrgUAfX9FVrO8gvrWG6tZkmt5kDxyIcqynoQas0AFFFFABRRRQAUUUUAFFFFABRRRQAUUUUAFFFFABRRRQAUUUUAFFFFABRRRQAUUUUAFFFFABRRRQAUUUUAFFFFABRRRQAUUUUAFFFFABRRRQAUUUUAFFFFABRRRQAUUUUAFFFFABRRRQAUUUUAFFFFABRRRQAUUUUAFFFFABRRRQAUUUUAFFFFAHxl8VriK6+KHiCWFw6C52Ej+8qhWH4EEfhXG1reJr7+0/FGrX/AJfli5vJptmc7dzk4z361k0AFfeOj3keo6NY30SssdzbxzIH6gMoIB9+a+Dq+1/hzetqHw70C4dAp+xRpgf7I2/0oA6iiiigCC8t4ry0mtp0WSGaNo3RhkMpGCD+FfCWq2i2GsXtmjFlt55IgzDBIViM/pX3mRmviTx9ZxWHxA1+1h3eXHfS43HJ5Yn+tAHOUUUUAd54C+Kes+B5RAhN7pbfespXwq85JQ87T19jnkV9PeDvG2i+M9MF5plyDIqqZ7djiSEnsw/PnocV8Sg4Oa0NI1vUtB1GPUNLu5LW6jOVdD+hHQj2PFAH3fRXmnwm+Jx8c2E1pqCRRatagFxHnEqcDeB0Bz1H0r0ugAooooAKKKKACiiigAooooAKKKKACiiigAooooAKKKKACiiigAooooAKKKKACiiigAooooAKKKKACiiigAooooAKKKKACiiigAooooAKKKKACiiigAooooAKKKKACiiigAooooAKKKKACiiigAooooAKKKKACiiigAooooAKKKKACg9KKD0oA+HPGGkvoXi7V9Nfd/o93IqlsZZM5UnHqpB/GsOvfvjn8O9T1DVo/Emi2Ut2rQhLyOFdzIV4DAdSCDzgcbc9+PA2jdHKMpVlOCCMEGgBo619u+BdGPh/wVpGmspWSK2Qyg4yHI3MOPcmvkTwR4aufFPi/T9Lgg81HlV5wcgLECC5JHQY4/EV9togQYHTtQA6iiigArwX4tfBy91PVpfEHhmE3E91Jm6tC4B3H+NSx6HuPy9veqKAPia4+HvjG3meFvC+rlkbBMdm7qfoyggj6Gqd34Q8S2EBnvPD2q28IIBeWzkVc/UivuWkIyaAPgN0eNyjqyspwQRgipLe0ubpttvbyzNkDEaFjz06V9w6h4V0HV3D6joun3bKSQ09sjkE9TyO+BVyy0uy02EQ2Npb20QUKEhjCDA6Dj0oA8Z+BXw71HRZ7jxFrVnLaXDp5NrBKCrqpPzsynpnAAz7n0r3KkAwMUtABRRRQAUUUUAFFFFABRRRQAUUUUAFFFFABRRRQAUUUUAFFFFABRRRQAUUUUAFFFFABRRRQAUUUUAFFFFABRRRQAUUUUAFFFFABRRRQAUUUUAFFFFABRRRQAUUUUAFFFFABRRRQAUUUUAFFFFABRRRQAUUUUAFFFFABRRRQAUUUUAFFFFACbRXH+K/hl4X8WkzX+nrFd8n7Vb/ACSH/ex978c12NFAHIeCfh5ofgaCRdNieS5l4lupyDIw9OBgD2FdfRRQAUUUUAFFFFABRRRQAUUUUAFFFFABRRRQAUUUUAFFFFABRRRQAUUUUAFFFFABRRRQAUUUUAFFFFABRRRQAUUUUAFFFFABRRRQAUUUUAFFFFABRRRQAUUUUAFFFFABRRRQAUUUUAFFFFABRRRQAUUUUAFFFFABRRRQAUUUUAFFFFABRRRQAUUUUAFFFFABRRRQAUUUUAFFFFABRRRQAUUUUAFFFFABRRRQAUUUUAFFFFABRRRQAUUUUAFFFFABRRRQAUUUUAFFFFABRRRQAUUUUAFFFFABRRRQAUUUUAFFFFABRRRQAUUUUAFFFFABRRRQAUUUUAFFFFABRRRQAUUUUAFFFFABRRRQAUUUUAFFFFABRRRQAUUUUAFFFFABRRRQAUUUUAFFFFABRRRQAUUUUAFFFFABRRRQAUUUUAFFFFABRRRQAUUUUAFFFFABRRRQAUUUUAFFFFABRRRQAUUUUAFFFFABRRRQAUUUUAFFFFABRRRQAUUUUAFFFFABRRRQAUUUUAFFFFABRRRQAUUUUAFFFFABRRRQAUUUUAFFFFABRRRQAUUUUAFFFFABRRRQAUUUUAFFFFABRRRQAUUUUAFFFFABRRRQAUUUUAFFFFABRRRQAUUUUAFFFFABRRRQAUUUUAFFFFABRRRQAUUUUAFFFFABRRRQAUUUUAFFFFABRRRQAUUUUAFFFFABRRRQAUUUUAFFFFABRRRQAUUUUAFFFFABRRRQAUUUUAFFFFABRRRQAUUUUAFFFFABRRRQAUUUUAFFFFABRRRQAUUUUAFFFFABRRRQAUUUUAFFFFABRRRQAUUUUAFFFFABRRRQAUUUUAFFFFABRRRQAUUUUAFFFFABRRRQAUUUUAFFFFABRRRQAUUUUAFFFFABRRRQAUUUUAFFFFABRRRQAUUUUAFFFFABRRRQAUUUUAFFFFABRRRQAUUUUAFFFFABRRRQAUUUUAFFFFABRRRQAUUUUAFFFFABRRRQAUUUUAFFFFABRRRQAUUUUAFFFFABRRRQAUUUUAFFFFABRRRQAUUUUAFFFFABRRRQAUUUUAFFFFABRRRQAUUUUAFFFFABRRRQAUUUUAFFFFABRRRQAUUUUAFFFFABRRRQAUUUUAFFFFABRRRQAUUUUAFFFFABRRRQAUUUUAFFFFABRRRQAUUUUAf/2Q==;" parent="1" vertex="1">
          <mxGeometry x="120" y="500" width="640" height="480" as="geometry" />
        </mxCell>
        <mxCell id="nYYT95ApVnNXHSg36jaL-8" value="" style="shape=image;verticalLabelPosition=bottom;labelBackgroundColor=default;verticalAlign=top;aspect=fixed;imageAspect=0;image=data:image/jpeg,/9j/4AAQSkZJRgABAQEAZABkAAD/2wBDAAgGBgcGBQgHBwcJCQgKDBQNDAsLDBkSEw8UHRofHh0aHBwgJC4nICIsIxwcKDcpLDAxNDQ0Hyc5PTgyPC4zNDL/2wBDAQkJCQwLDBgNDRgyIRwhMjIyMjIyMjIyMjIyMjIyMjIyMjIyMjIyMjIyMjIyMjIyMjIyMjIyMjIyMjIyMjIyMjL/wAARCAHgAoADASIAAhEBAxEB/8QAHwAAAQUBAQEBAQEAAAAAAAAAAAECAwQFBgcICQoL/8QAtRAAAgEDAwIEAwUFBAQAAAF9AQIDAAQRBRIhMUEGE1FhByJxFDKBkaEII0KxwRVS0fAkM2JyggkKFhcYGRolJicoKSo0NTY3ODk6Q0RFRkdISUpTVFVWV1hZWmNkZWZnaGlqc3R1dnd4eXqDhIWGh4iJipKTlJWWl5iZmqKjpKWmp6ipqrKztLW2t7i5usLDxMXGx8jJytLT1NXW19jZ2uHi4+Tl5ufo6erx8vP09fb3+Pn6/8QAHwEAAwEBAQEBAQEBAQAAAAAAAAECAwQFBgcICQoL/8QAtREAAgECBAQDBAcFBAQAAQJ3AAECAxEEBSExBhJBUQdhcRMiMoEIFEKRobHBCSMzUvAVYnLRChYkNOEl8RcYGRomJygpKjU2Nzg5OkNERUZHSElKU1RVVldYWVpjZGVmZ2hpanN0dXZ3eHl6goOEhYaHiImKkpOUlZaXmJmaoqOkpaanqKmqsrO0tba3uLm6wsPExcbHyMnK0tPU1dbX2Nna4uPk5ebn6Onq8vP09fb3+Pn6/9oADAMBAAIRAxEAPwD3+iiigAooooAKKKKACiiigAooooAKKKKACiiigAooooAKKKKACiiigAooooAKKKKACiiigAooooAKKKKACiiigAooooAKKKKACiiigAooooAKKKKACiiigAooooAKKKKACiiigAooooAKKKKACiiigAooooAKKKKACiiigAooooAKKKKACiiigAooooAKKKKACiiigAooooAKKKKACiiigAooooAKKKKACiiigAooooAKKKKACiiigAooooAKKKKACiiigAooooAKKKKACiiigAooooAKKKKACiiigAooooAKKKKACiiigAooooAKKKKACiiigAooooAKKKKACiiigAooooAKKKKACiiigAooooAKKKKACiiigAooooAKKKKACiiigAooooAKKKKACiiigAooooAKKKKACiiigAooooAKKKKACiiigAooooAKKKKACiiigAooooAKKKKACiiigAooooAKKKKACiiigAooooAKKKKACiiigAooooAKKKKACiiigAooooAKKKKACiiigAooooAKKKKACiiigAooooAKKKKACiiigAooooAKKKKACiiigAooooAKKKKACiiigAooooAKKKKACiiigAooooAKKKKACiiigAooooAKKKKACiiigAooooAKKKKACiiigAooooAKKKKACiiigAooooAKKKKACiiigAooooAKKKKACiiigAooooAKKKKACiiigAooooAKKKKACiiigAooooAKKKKACiiigAooooAKKKKACiiigAooooAKKKKACiiigAooooAKKKKACiiigAooooAKKKKACiiigAooooAKKKKACiiigAooooAKKKKACiiigAooooAKKKKACiiigAooooAKKKKACiiigAooooAKKKKACiiigAooooAKKKKACiiigAooooAKKKKACiiigAooooAKKK818b/GbQvB99/Z8aPqN+jhZ4YTgQjjOWIxuxngenOKAPSqK5Xwj8QdA8a25fSrv9+n+stpRtlT8O49xkV1IPFAC0UUUAFFFFABRRRQAUUUUAFFFFABRRRQAUUUUAFFFFABRRRQAUUUUAFFFFABRRRQAUUUUAFFFFABRRRQAUUUUAFFFFABRRRQAUUUUAFFFFABRRRQAUUUUAFFFFABRRRQAUUUUAFFFFABRRRQAUUUUAFFFFABRRRQAUUUUAFFFFABRRRQAUUUUAFFFFABRRRQAUUUUAFUdV1aw0bT5L7UbqK1tY8bpJDgCqPivxRYeE9AutUv5FVI1IjjJwZZMHag9yR+HWvj/wAXeNNZ8Y6m13qlyWQMfJt1OI4VPZR+A56mgD1/xt8f7drOWy8KRzGdyVN7Om1VXJ5RTzk+pAxnpXz+7tI7O7FnY5ZmOST6mkJyaSgC5pWqXmi6lBqNhO8F3AweORDgg/4dsV9QfCv4qweM7ddM1Rkh1uJegG1blR/Evo3qPxHHT5TrW8N61L4e8R6dq0JIa0nWQ4zyoPI4I6jIxnvQB900VFBMJ4kkUYV1DD8aloAKKKKACiiigAooooAKKKKACiiigAooooAKKKKACiiigAooooAKKKKACiiigAooooAKKKKACiiigAooooAKKKKACiiigAooooAKKKKACiiigAooooAKKKKACiiigAooooAKKKKACiiigAooooAKKKKACiiigAooooAKKKKACiiigAooooAKKKKACiiigAooooA+ZP2g/Esl94si0BJD9m06MO6cgGVxnn1wpXH1PvXjea9A+Nn/ACVzW/8Ath/6Jjrz+gAooooAKKKKAPtn4f6odZ8B6HfM8jvJZosjyY3F1G1ifqVNdNXi37PHiGK58NXuhOQLiymMyAD70b9+vJDZ9Oor2gEHpQAtFFFABRRRQAUUUUAFFFFABRRRQAUUUUAFFFFABRRRQAUUUUAFFFFABRRRQAUUUUAFFFFABRRRQAUUUUAFFFFABRRRQAUUUUAFFFFABRRRQAUUUUAFFFFABRRRQAUUUUAFFFFABRRRQAUUUUAFFFFABRRRQAUUUUAFFFFABRRRQAUUUUAFFFFABRRRQAUUUUAfJnx202e0+KF9dSr+6vIopYmAPICBCOnXKHp6ivM6+sPjL8P5fGGgLfWEYbVNPDNGuQPNjPLL9eMj8fWvlAqVOCMH3oASiiigAooooA7L4Xa62hfEXSLouEhkl+zzZOAUf5efoSD9QK+y06V8D2s8lrdRXELbZInDo2M4IOQa+79Muo77S7W8ikEsdxCkqOOjBgCD+tAFuiiigAooooAKKKKACiiigAooooAKKKKACiiigAooooAKKKKACiiigAooooAKKKKACiiigAooooAKKKKACiiigAooooAKKKKACiiigAooooAKKKKACiiigAooooAKKKKACiiigAooooAKKKKACiiigAooooAKKKKACiiigAooooAKKKKACiiigAooooAKKKKAEPQ18gfGLw4PDvxCvVhi8u0vMXUIAOBu+8OgHDBunbFfWl/qVnpdq91f3cNrbp96WZwqj8TXyh8XPHtr441+E2FsqWVkGjhnYYkmBIyT6LkcD3z3xQB53RRRQAUUUUAKpwc196aZBFbaXaQQRrHFHCiIijAVQoAA9q+C1GTzX3H4P1hdf8IaVqigL9otkZlAwA2MMB7ZBoA26KKKACiiigAooooAKKKKACiiigAooooAKKKKACiiigAooooAKKKKACiiigAooooAKKKKACiiigAooooAKKKKACiiigAooooAKKKKACiiigAooooAKKKKACiiigAooooAKKKKACiiigAooooAKKKKACiiigAooooAKKKKACiiigAooooAKKKKACiis7Wtd07w9p0moardx2tpHgNI/qegAHJPsKANEnFZPiDX9P8ADmjz6pqVwkNvCOrHlj2VR3JrxXxT+0UxElv4Z0wDpi7uz9ekY/Dkn14rxrxB4s1zxReG51jUJbls5VGOET/dUcCgC94z8d6v421N7nUJ3W2DEwWisfLhHTgdz6nqa5eg8migAooooAKKKKAFBwa+p/2ftT+2/Dp7YjDWd5JFy2SQQrA47D5sfhXyvXsn7PXiKLT/ABNe6LO4QalGGiJHWRMnGf8AdLflQB9N0Ug6CloAKKKKACiiigAooooAKKKKACiiigAooooAKKKKACiiigAooooAKKKKACiiigAooooAKKKKACiiigAooooAKKKKACiiigAooooAKKKKACiiigAooooAKKKKACiiigAooooAKKKKACiiigAooooAKKKKACiiigAooooAKKKKACiiigAooooAK8C/aS1OUDQ9KG4RMZLlsPwSMKMj2yefc177Xy/+0S5HxDtFycDTY8DP/TSSgDyDJooooAKKKKACiiigAooooAKs2F7Pp15DeWkzw3MDiSKRDgqwOQarUUAfYnww8fReOfDyySMBqdrhLuMLtGT0ZfY4/PPtXd18nfAjVJrH4mWlsrhYb6GSGUMxA4Uup+uVAH1NfWNABRRRQAUUUUAFFFFABRRRQAUUUUAFFFFABRRRQAUUUUAFFFFABRRRQAUUUUAFFFFABRRRQAUUUUAFFFFABRRRQAUUUUAFFFFABRRRQAUUUUAFFFFABRRRQAUUUUAFFFFABRRRQAUUUUAFFFFABRRRQAUUUUAFFFFABRRRQAUUUUAFFFFABXy5+0V/yUW1/wCwbF/6Mkr6jr59/aQ0Mi40jXUj+Vla0lcA9RllBP8A33+tAHgVFFFABRRRQAUUUUAFFFFABRRRQB1nwzJ/4WX4dH/T9H/OvtOvjf4SWRv/AIo6DEjhCk5myR1CKXI/ELivsigAooooAKKKKACiiigAooooAKKKKACiiigAooooAKKKKACiiigAooooAKKKKACiiigAooooAKKKKACiiigAooooAKKKKACiiigAooooAKKKKACiiigAooooAKKKKACiiigAooooAKKKKACiiigAooooAKKKKACiiigAooooAKKKKACiiigArj/iboEfiLwHq1o0QeWOE3EB25IkQZGMc5PI/GuwpCAQQR1oA+AaK3/GmjjQfGOraYE2LBdOEUKQAhOVwD2wRWBQAUUUUAFFFFABRRRQAUUUUAehfBD/AJK3o3+7P/6Jevr2vkL4If8AJW9G+k//AKJevr2gAooooAKKKKACiiigAooooAKKKKACiiigAooooAKKKKACiiigAooooAKKKKACiiigAooooAKKKKACiiigAooooAKKKKACiiigAooooAKKKKACiiigAooooAKKKKACiiigAooooAKKKKACiiigAooooAKKKKACiiigAooooAKKKKACiiigAooooA+Z/wBojQRaeJrHW41AW+h8uQjHLx4GfX7pUfhXjFfTf7RsSf8ACB6dJsUuupIobHIBjkyM++B+VfMlABRRRQAUUUUAFFFFABRRRQB2vwnvnsPihoMkaqWe48k7h2dSp/HBNfZIYGvhPw9f/wBleJNMvzK0S291HIzr1VQwz+ma+6YmDDcOh6UASUUUUAFFFFABRRRQAUUUUAFFFFABRRRQAUUUUAFFFFABRRRQAUUUUAFFFFABRRRQAUUUUAFFFFABRRRQAUUUUAFFFFABRRRQAUUUUAFFFFABRRRQAUUUUAFFFFABRRRQAUUUUAFFFFABRRRQAUUUUAFFFFABRRRQAUUUUAFFFFABRRRQAUUUUAePftG/8k/sP+wnH/6Klr5hr6k/aGtpbn4cwyxqNltfxySEnopV0/mwr5boAKKKKACiiigAooooAKKKKAAda+xPh14y07Wfh/Y3c2oQJJZwLDeGWXBjZRjLFuxAznp1r47Bwc04vntQB9R6/wDHzwrpTPFp6XOqTqcfuh5cfX+83t6A1l2X7SGiSM/27RNQgAA2mCRJcnvkErj9a+bycmkoA+qbn4/+C4LRJYn1C5kbGYY7fDJkZ5LEDjpwTXI3n7SUrSJ9i8OoqY+bzrkk59sAV4JRQB9veEPF2meMtEj1TTpeD8ssLH54n7qw/r3FdD1r4m8HeONZ8Gamt1pk58pmBntmP7uYDsw/Hr2r6Y+H3xW0jxwGtFjaz1SNdzW0jAhx3KH+LHGRgEfrQB6DRRRQAUUUUAFFFFABRRRQAUUUUAFFFFABRRRQAUUUUAFFFFABRRRQAUUUUAFFFFABRRRQAUUUUAFFFFABRRRQAUUUUAFFFFABRRRQAUUUUAFFFFABRRRQAUUUUAFFFFABRRRQAUUUUAFFFFABRRRQAUUUUAFFFFABRRRQB5t8dgP+FU6gf+m0H/owV8k19l/FmxW/+GOuRmBpmjh81VUEkFSDnj0wT+FfGzDBoAbRRRQAUUUUAFFFFABRRRQAUUUUAFFFFABRRRQAA4q5pt/Ppuo219byyRzQSCRHjbawIPY9qp0UAfe9jdC90+2u1G0TxLIBnOMgHGfxqxXnHwZ8TWmt+AdPsxcxtfadELeeEcFQCQhx3BUDn1zXowIPSgBaKKKACiiigAooooAKKKKACiiigAooooAKKKKACiiigAooooAKKKKACiiigAooooAKKKKACiiigAooooAKKKKACiiigAooooAKKKKACiiigAooooAKKKKACiiigAooooAKKKKACiiigAooooAKKKKACiiigAooooAjmjSWF45FDI4KsrDIIPUV8j/FL4b3XgvWZLm2jZ9EuJD9nkXJ8onny2J7jse4H1r68Iz1rkviZpcWq/DrXbeTYNlo86lk3YMY3jHv8uM+9AHxaeDRQetFABRRRQAUUUUAFFFFABRRRQAUUUUAFFFFABRRRQBqaD4h1Tw3qceoaRdvbXSAjeuCCD1BB4I+tfXfw38aweOPDEd+Asd7EfLu4VzhH9R7EYPt07V8YdK7z4U+Ox4H8TtLdeY2m3iiK6VDnbz8r474yfwJoA+w6KrWF/a6jZRXdncxXEEqhkkjYEMDyKs0AFFFFABRRRQAUUUUAFFFFABRRRQAUUUUAFFFFABRRRQAUUUUAFFFFABRRRQAUUUUAFFFFABRRRQAUUUUAFFFFABRRRQAUUUUAFFFFABRRRQAUUUUAFFFFABRRRQAUUUUAFFFFABRRRQAUUUUAFFFFABRRRQAVBdxCe3kiIU70K/MMjkYqekIB60AfCviHQb3w3rl3pWoR7Li3cqeCAw7MM9QRyDWXX294p8FaD4wsRb6xYrMUyY5VO2SM+zD+XSvHdd/Zw2xtJoGtM7Bf9TeoOTg/wAa++P4fxoA8DoroPE3g3W/CF99l1iyeEn/AFcqndHIOeVYcdunX2rn6ACiiigAooooAKKvafpGoatKsWn2NxdSFgu2GMtyeg4rpk+FHjiSwa9Xw3diJckqxUScekZO4/lQBxdFW73T7rTrlre9tpreZc5jmQqwwcdD9DVSgAooooAKKKKAClBxSUUAenfBzx3P4Z8U2+nXVyw0i/kEcqM3yxyHhX56c4B6cfQV9YBsnpXwErFSCDgjvX178JPG8fjDwpCk0gOp2KLDdKSMtgcPj0I7+uaAPQaKKKACiiigAooooAKKKKACiiigAooooAKKKKACiiigAooooAKKKKACiiigAooooAKKKKACiiigAooooAKKKKACiiigAooooAKKKKACiiigAooooAKKKKACiiigAooooAKKKKACiiigAooooAKKKKACiiigAooooAKKKKAMrxD4f0/xNpE+l6nbrNbSjHPVT2ZT2I9a+T/H/wAMtX8D3e51N1ps0hW3uox19Fcfwt+h7V9i0xo1cYdQw64IzQB8ceHfhV4x8R4e10eSC3P/AC3u/wB0nfpnk9McA9s16Ta/s0s9sjXfiby5yPnSKz3KD7EuM/lX0ABiloA8Ig/ZptEnRp/E08kQYb0SzCMR6Alzg++DXd6T8IPBWjsrx6JFcyKSQ14TN1GMbT8v6V3lFAFSx06002BYLK0gtoV4EcMYRQPYAVZcgDNOrL8Q69p3hvR5tU1S4ENrCOT1LHsqjuT6UAfK/wAZfEE+tfEW/ikceTYf6LCqtkADkn6kk/y7V55V3WL7+1NavtQ8vy/tVxJNsBzt3MTjP41SoAKKKB1oAUDNOMTqoLIQGGQSOo6ZH5H8q9O+EnwxuPFepxavqUO3Q7d8neCPtLD+AewPU/h649w+Ifw507xj4e8mG3jg1G1jJspY1CgEDiM/7BPHt1+oB8fUVc1LSr3R72Wz1C2ktrmMkNHIuCOcfl71ToAK1vDniHUvC+tQappc5iuIj0/hde6sO4NZNAODQB9x+EvEtp4r8N2msWmQk6/Mh6o44ZT9DW5XzX8BPHFrpF5deHNRmWGG9kElq7dPNxgqT23ADGe496+kVbIHFAD6KKKACiiigAooooAKKKKACiiigAooooAKKKKACiiigAooooAKKKKACiiigAooooAKKKKACiiigAooooAKKKKACiiigAooooAKKKKACiiigAooooAKKKKACiiigAooooAKKKKACiiigAooooAKKKKACiiigAooooAKKKKACiiigApFOc0tN3BTg0ANnnit4JJpZFSONS7sx4UAZJNfIPxM+I19431iRI5potGicfZ7ViMcZG9sdScn1xmu7+NvxNS6EnhbRJw0GQ15dRSAh+/lqQeRzz+X18IJzQAlFFFABX0r8M/g/wCG38K6fq+tWLX17ewiVknJCRgnIAUY5xjk579q8J8FeH5fE/i7TtIjUlZ5l80g/djHLnof4Qe1fbsUaRQpHGqqiKFVVGAAOgAoAIoYoIliijWONBhUQYAHoBTto9KWigDnvFHgrQPF1oYtY06OZwMJMo2yp9GHP4dK+T/iH4Eu/Aev/YpW860mBktZ/wC+ueh9GHf8+9faNc74z8G6b430X+zdSEiqriSKWJsPG3qM8dMjBoA+IqK7jx98MNa8CSrNcmO60+Vtsd1CDgH0Yfwn9DXD0AKGI6EivU/hv8YdR8L3EGnavPJeaKflJY7pIOgBUnkqMfd/KvK6AcHNAH31bzpcQpNG4eORQyMpyGBGQRUtfI3gr4x674NsU04Qw6hp6sSsU5IaPjojA8DODgg+2M16jpH7RPh+4UDU9NvrRztBMQWVQe56g4H0JoA9oorjtM+KngnVtottftlZn2BZwYiT9HA49662OaOWNJI3V0cAqynIIPQg0ASUUdaKACiiigAooooAKKKKACiiigAooooAKKKKACiiigAooooAKKKKACiiigAooooAKKKKACiiigAooooAKKKKACiiigAooooAKKKKACiiigAooooAKKKKACiiigAooooAKKKKACiiigAooooAKKKKACiiigAooooADXz/APHrx9KtwPCemzlFCB7542+9npGfwwTz3Ar38nAr4Z8VarJrfivVdTk3A3NzJIAxyVXcdoz7DA/CgDJZiTim0UUAFPhieeZIYkZ5HYKqqMliegA7miKKSeVIokaSR2CqijJYnoAPWvq74XfCi08HWaX+pwxXOtygFnIDLbjrtT39W/LigCr8HPhfJ4PtpNZ1QkatdxeX5Ib5YIyQ20+rHAz6dPWvWBwKKKACiiigAooooAyvEeg2viTw9f6Rdg+VdxFCR1U9Qw9wQD+FfEer6Vc6Jq13pl4hS5tZWidT6g9foeor7xryv4ofCW28YK+radsttYjQ7vl+W4AHAb/a4AB9OueKAPlSipbmCS2uZIJo2jmjYpJG4wVYHBBHY1FQAUoOKSigB281r6P4t8QeH8jSdXu7RWzlI5DtOcZO3pngc+1Y1FAH0J4E+PzTzRWHi2JF3kKl9AmBkkD94vYdeR+XeveVbJr4DGSRX2D8H9budd+HOnTXav51vuti7LgSBDhWHqMYBPqDQB3tFFFABRRRQAUUUUAFFFFABRRRQAUUUUAFFFFABRRRQAUUUUAFFFFABRRRQAUUUUAFFFFABRRRQAUUUUAFFFFABRRRQAUUUUAFFFFABRRRQAUUUUAFFFFABRRRQAUUUUAFFFFABRRRQAUUUUAFFFFABRRWbreu6b4d02TUNVvI7W1Tgu56k9AB1J9hQBi/EjXo/D3gHVr1ivmGAxRKcfM7/KBjIz1ycdgTXxa3Wu6+JvxDufHesqyIYNMtSwtYT1IPV2/2jgcdunqTwlABSgZpKVaAPdf2e/CENzcXfii7jVxbt9mtQwB2vgFm+oBAB9zX0TXA/BmWC4+FmjtDAIgokRgD95g7At+J5rvqACiiigAooooAKKKKACkIyKWigD5i+Pfgl9J8SL4hs4cWOo/64qDhJx1z2G4c/UNXjtfc3ijw9Y+KdBudH1BWME6/eU4ZGByGB9QQP5d68SP7NNySSPFEOO2bM/8AxdAHg1Fe7n9mq6H/ADM8J/7cz/8AF1kn9nHxWTxqejY95Zf/AI3QB4+Bk4rrPD/wz8W+JoBcadpEv2dgSs0xESN06FsZ69vf0r2vwP8AATTtGuoNQ8Q3KajdxtvW3jBECntnIy/PPYe1eyRxRxRrHGioijaqqMAD0AoA+ftD/Zym3xvrutxhf44bNCe/Z2x1H+zwfXFe86bptrpOn29hZRCG2t4xHHGOiqOnWrW0UtABRRRQAUUUUAFFFFABRRRQAUUUUAFFFFABRRRQAUUUUAFFFFABRRRQAUUUUAFFFFABRRRQAUUUUAFFFFABRRRQAUUUUAFFFFABRRRQAUUUUAFFFFABRRRQAUUUUAFFFFABRRRQAUUUUAFFFFABRRRQAV4p+0j/AMito/8A1+n/ANANe11heKfCGjeMtOWx1q2aaJG3xlXKsjYxkEf1yKAPh7aaQjFfYQ+DvgeLRZdOXRkxIADcliZwRj5g56HjOBx145rwP4hfCXVvBcjXkG++0fr9pRMGHJwFcdu3zdD7dKAPOaKDwSKKAPrP4D3UM3wrso45AzwTzRyAfwsXLY/JlP416ZXyF8MPiVP4DvZYp4XudJuTmaFMb1YcBkz37Ed6+oPDHjDRPF9kbrRr1J1U4dD8rofdTyP5UAbtFFFABRRRQAUUUUAFFFFABRRRQAUUUUAFFFFABRRRQAUUUUAFFFFABRRRQAUUUUAFFFFABRRRQAUUUUAFFFFABRRRQAUUUUAFFFFABRRRQAUUUUAFFFFABRRRQAUUUUAFFFFABRRRQAUUUUAFFFFABRRRQAUUUUAFFFFABRRRQAUUUUAFFFFABRRRQAUUUUAFFFFAARnrUU9vDdQSQXESSwyKVdHXKsD1BFS0UAeS+I/gH4Y1eSabTHm0mdyWxEN8QJ/2T0GewI/CvM9Y/Z/8Wafvexaz1GMbiPKfY5A6fK3GT6Z/GvqaigD4O1XSdQ0TUJbHUrOe0uY/vRSoVP19x7jg16J8BLaef4nwSQt+7t7WaSX5uqldv4/My/5Fe4/E74fW/jnQ3WJIo9XgGbW4YY+qE+h/Q8+tYfwe+GV94JkvtQ1c25vrlBEixNu8tAcnnHchenoKAPWKKKKACiiigAooooAKKKKACiiigAooooAKKKKACiiigAooooAKKKKACiiigAooooAKKKKACiiigAooooAKKKKACiiigAooooAKKKKACiiigAooooAKKKKACiiigAooooAKKKKACiiigAooooAKKKKACiiigAooooAKKKKACiiigAooooAKKKKACiiigAooooAKKKKACiiigAooooAQqD1oCgGlooAKKKKACiiigAooooAKKKKACiiigAooooAKKKKACiiigAooooAKKKKACiiigAooooAKKKKACiiigAooooAKKKKACiiigAooooAKKKKACiiigAooooAKKKKACiiigAooooAKKKKACiiigAooooAKKKKACiiigAooooAKKKKACiiigAooooAKKKKACiiigAooooAKKKKACiiigAooooAKKKKACiiigAooooAKKKKACiiigAooooAKKKKACiiigAooooAKKKKACiiigAooooAKKKKACiiigAooooAKKKKACiiigAooooAKKKKACiiigAooooAKKKKACiiigAooooAKKKKACiiigAooooAKKKKACiiigAooooAKKKKACiiigAooooAKKKKACiiigAooooAKKKKACiiigAooooAKKKKACiiigAooooAKKKKACiiigAooooAKKKKACiiigAooooAKKKKACiiigAooooAKKKKACiiigAooooAKKKKACiiigAooooAKKKKACiiigAooooAKKKKACiiigAooooAKKKKACiiigAooooAKKKKACiiigAooooAKKKKACiiigAooooAKKKKACiiigAooooAKKKKACiiigAooooAKKKKACiiigAooooAKKKKACiiigAooooAKKKKACiiigAooooAKKKKACiiigAooooAKKKKACiiigAooooAKKKKACiiigAooooAKKKKACiiigAooooAKKKKACiiigAooooAKKKKACiiigAooooAKKKKACiiigAooooAKKKKACiiigAooooAKKKKACiiigAooooAKKKKACiiigAooooAKKKKACiiigAooooAKKKKACiiigAooooAKKKKACiiigAooooAKKKKACiiigAooooAKKKKACiiigAooooAKKKKACiiigAooooAKKKKACiiigAooooAKKKKACiiigAooooAKKKKACiiigAooooAKKKKACiiigAooooAKKKKACiiigAooooAKKKKACiiigAooooAKKKKACiiigAooooAKKKKACiiigAooooAKKKKACiiigAooooAKKKKACiiigAooooAKKKKACiiigAooooAKKKKACiiigAooooAKKKKACiiigAooooAKKKKACiiigAooooAKKKKACiiigAooooA//9k=;" parent="1" vertex="1">
          <mxGeometry x="1400" y="500" width="640" height="480" as="geometry" />
        </mxCell>
      </root>
    </mxGraphModel>
  </diagram>
</mxfile>
